<svg width="163" height="48" viewBox="0 0 163 48" fill="none" xmlns="http://www.w3.org/2000/svg">
<g id="Frame 28">
<path id="Vector" fill-rule="evenodd" clip-rule="evenodd" d="M156.011 47.9943H6.03062C2.73199 47.9943 0.0302734 45.2954 0.0302734 41.994V6.00035C0.0302734 2.70171 2.72916 0 6.03062 0H156.011C159.31 0 162.012 2.69888 162.012 6.00035V41.9968C162.012 45.2955 159.313 47.9943 156.011 47.9943Z" fill="#FBFBFB"/>
<path id="Vector_2" d="M67.6351 36.947C70.4646 36.947 72.7584 34.6621 72.7584 31.8435C72.7584 29.0249 70.4646 26.7399 67.6351 26.7399C64.8055 26.7399 62.5117 29.0249 62.5117 31.8435C62.5117 34.6621 64.8055 36.947 67.6351 36.947Z" fill="black"/>
<path id="Vector_3" d="M78.8099 36.947C81.6394 36.947 83.9332 34.6621 83.9332 31.8435C83.9332 29.0249 81.6394 26.7399 78.8099 26.7399C75.9803 26.7399 73.6865 29.0249 73.6865 31.8435C73.6865 34.6621 75.9803 36.947 78.8099 36.947Z" fill="black"/>
<path id="Vector_4" fill-rule="evenodd" clip-rule="evenodd" d="M156.011 0.00280762H6.03062C2.73199 0.00280762 0.0302734 2.70169 0.0302734 6.00316V41.9996C0.0302734 45.2983 2.72916 48 6.03062 48H156.011C159.31 48 162.012 45.3011 162.012 41.9996V6.00033C162.012 2.70169 159.313 0.00280762 156.011 0.00280762ZM156.011 0.961841C158.789 0.961841 161.05 3.22223 161.05 6.00033V41.9968C161.05 44.7749 158.789 47.0353 156.011 47.0353H6.03062C3.25253 47.0353 0.992139 44.7749 0.992139 41.9968V6.00033C0.992139 3.22223 3.25253 0.961841 6.03062 0.961841H156.011Z" fill="#CCCED3"/>
<path id="Vector_5" fill-rule="evenodd" clip-rule="evenodd" d="M56.9275 12.2921C56.9275 13.2993 56.6305 14.097 56.0335 14.6968C55.3546 15.4069 54.4747 15.7605 53.3884 15.7605C52.3502 15.7605 51.4647 15.4012 50.7404 14.6798C50.0106 13.9612 49.6484 13.0644 49.6484 12.0007C49.6484 10.9342 50.0106 10.0402 50.7404 9.32165C51.4647 8.60308 52.3502 8.24097 53.3884 8.24097C53.9033 8.24097 54.3984 8.34281 54.8652 8.54084C55.3348 8.7417 55.711 9.01046 55.9911 9.34428L55.3574 9.97798C54.8821 9.40935 54.2258 9.12362 53.3856 9.12362C52.6274 9.12362 51.9739 9.38954 51.4194 9.92423C50.8649 10.4589 50.5905 11.1492 50.5905 12.0007C50.5905 12.8523 50.8677 13.5426 51.4194 14.0772C51.9711 14.6119 52.6274 14.875 53.3856 14.875C54.189 14.875 54.8595 14.6063 55.397 14.0716C55.745 13.7208 55.9458 13.237 55.9996 12.6146H53.3856V11.749H56.8738C56.9105 11.9357 56.9275 12.1167 56.9275 12.2921Z" fill="#010202"/>
<path id="Vector_6" d="M56.9275 12.2921C56.9275 13.2993 56.6305 14.097 56.0335 14.6968C55.3546 15.4069 54.4747 15.7605 53.3884 15.7605C52.3502 15.7605 51.4647 15.4012 50.7404 14.6798C50.0106 13.9612 49.6484 13.0644 49.6484 12.0007C49.6484 10.9342 50.0106 10.0402 50.7404 9.32165C51.4647 8.60308 52.3502 8.24097 53.3884 8.24097C53.9033 8.24097 54.3984 8.34281 54.8652 8.54084C55.3348 8.7417 55.711 9.01046 55.9911 9.34428L55.3574 9.97798C54.8821 9.40935 54.2258 9.12362 53.3856 9.12362C52.6274 9.12362 51.9739 9.38954 51.4194 9.92423C50.8649 10.4589 50.5905 11.1492 50.5905 12.0007C50.5905 12.8523 50.8677 13.5426 51.4194 14.0772C51.9711 14.6119 52.6274 14.875 53.3856 14.875C54.189 14.875 54.8595 14.6063 55.397 14.0716C55.745 13.7208 55.9458 13.237 55.9996 12.6146H53.3856V11.749H56.8738C56.9105 11.9357 56.9275 12.1167 56.9275 12.2921Z" stroke="#010202" stroke-width="0.2"/>
<path id="Vector_7" fill-rule="evenodd" clip-rule="evenodd" d="M62.4578 9.28481H59.179V11.5678H62.1325V12.4335H59.179V14.7165H62.4578V15.602H58.2539V8.40216H62.4578V9.28481Z" fill="#010202"/>
<path id="Vector_8" d="M62.4578 9.28481H59.179V11.5678H62.1325V12.4335H59.179V14.7165H62.4578V15.602H58.2539V8.40216H62.4578V9.28481Z" stroke="#010202" stroke-width="0.2"/>
<path id="Vector_9" fill-rule="evenodd" clip-rule="evenodd" d="M66.3564 15.5992H65.4314V9.28484H63.4199V8.39935H68.3679V9.28484H66.3564V15.5992Z" fill="#010202"/>
<path id="Vector_10" d="M66.3564 15.5992H65.4314V9.28484H63.4199V8.39935H68.3679V9.28484H66.3564V15.5992Z" stroke="#010202" stroke-width="0.2"/>
<path id="Vector_11" fill-rule="evenodd" clip-rule="evenodd" d="M71.9473 15.5992H72.8724V8.39935H71.9473V15.5992Z" fill="#010202"/>
<path id="Vector_12" d="M71.9473 15.5992H72.8724V8.39935H71.9473V15.5992Z" stroke="#010202" stroke-width="0.2"/>
<path id="Vector_13" fill-rule="evenodd" clip-rule="evenodd" d="M76.9766 15.5992H76.0515V9.28484H74.04V8.39935H78.988V9.28484H76.9766V15.5992Z" fill="#010202"/>
<path id="Vector_14" d="M76.9766 15.5992H76.0515V9.28484H74.04V8.39935H78.988V9.28484H76.9766V15.5992Z" stroke="#010202" stroke-width="0.2"/>
<path id="Vector_15" fill-rule="evenodd" clip-rule="evenodd" d="M83.7554 14.0659C84.2872 14.6063 84.9407 14.875 85.7131 14.875C86.4825 14.875 87.1332 14.6063 87.6679 14.0659C88.1998 13.5256 88.4685 12.8382 88.4685 12.0008C88.4685 11.1634 88.1998 10.4731 87.6679 9.93557C87.136 9.39523 86.4825 9.12648 85.7131 9.12648C84.9407 9.12648 84.2901 9.39806 83.7582 9.93557C83.2263 10.4731 82.9576 11.1634 82.9576 12.0008C82.9576 12.8382 83.2235 13.5256 83.7554 14.0659ZM88.3525 14.6685C87.6424 15.3984 86.7654 15.7605 85.7131 15.7605C84.6607 15.7605 83.7808 15.3984 83.0736 14.6685C82.3663 13.9415 82.0127 13.0532 82.0127 12.0008C82.0127 10.9484 82.3663 10.0572 83.0736 9.33017C83.7808 8.60311 84.6578 8.23816 85.7102 8.23816C86.757 8.23816 87.634 8.6031 88.344 9.33299C89.0541 10.0629 89.4078 10.9512 89.4078 11.9979C89.4134 13.0532 89.0598 13.9415 88.3525 14.6685Z" fill="#010202"/>
<path id="Vector_16" d="M83.7554 14.0659C84.2872 14.6063 84.9407 14.875 85.7131 14.875C86.4825 14.875 87.1332 14.6063 87.6679 14.0659C88.1998 13.5256 88.4685 12.8382 88.4685 12.0008C88.4685 11.1634 88.1998 10.4731 87.6679 9.93557C87.136 9.39523 86.4825 9.12648 85.7131 9.12648C84.9407 9.12648 84.2901 9.39806 83.7582 9.93557C83.2263 10.4731 82.9576 11.1634 82.9576 12.0008C82.9576 12.8382 83.2235 13.5256 83.7554 14.0659ZM88.3525 14.6685C87.6424 15.3984 86.7654 15.7605 85.7131 15.7605C84.6607 15.7605 83.7808 15.3984 83.0736 14.6685C82.3663 13.9415 82.0127 13.0532 82.0127 12.0008C82.0127 10.9484 82.3663 10.0572 83.0736 9.33017C83.7808 8.60311 84.6578 8.23816 85.7102 8.23816C86.757 8.23816 87.634 8.6031 88.344 9.33299C89.0541 10.0629 89.4078 10.9512 89.4078 11.9979C89.4134 13.0532 89.0598 13.9415 88.3525 14.6685Z" stroke="#010202" stroke-width="0.2"/>
<path id="Vector_17" fill-rule="evenodd" clip-rule="evenodd" d="M90.7119 15.5992V8.39935H91.8379L95.3374 13.998H95.377L95.3374 12.6118V8.39935H96.2653V15.5992H95.2978L91.637 9.72616H91.5974L91.637 11.1152V15.5992H90.7119Z" fill="#010202"/>
<path id="Vector_18" d="M90.7119 15.5992V8.39935H91.8379L95.3374 13.998H95.377L95.3374 12.6118V8.39935H96.2653V15.5992H95.2978L91.637 9.72616H91.5974L91.637 11.1152V15.5992H90.7119Z" stroke="#010202" stroke-width="0.2"/>
<path id="Vector_19" d="M127.605 21.6392H125.367V36.6386H127.605V21.6392Z" fill="black"/>
<path id="Vector_20" fill-rule="evenodd" clip-rule="evenodd" d="M145.533 27.0427L142.967 33.5466H142.888L140.226 27.0427H137.812L141.807 36.1295L139.53 41.1878H141.864L148.02 27.0427H145.533Z" fill="black"/>
<path id="Vector_21" fill-rule="evenodd" clip-rule="evenodd" d="M133.104 26.7144C131.483 26.7144 129.805 27.4273 129.109 29.0116L131.095 29.8405C131.52 29.0116 132.312 28.74 133.141 28.74C134.298 28.74 135.475 29.4359 135.495 30.6694V30.825C135.087 30.593 134.222 30.2479 133.161 30.2479C131.016 30.2479 128.838 31.4247 128.838 33.6229C128.838 35.6315 130.595 36.9244 132.564 36.9244C134.066 36.9244 134.898 36.2482 135.418 35.4561H135.495V36.6132H137.656V30.8618C137.659 28.1997 135.67 26.7144 133.104 26.7144Z" fill="black"/>
<path id="Vector_22" fill-rule="evenodd" clip-rule="evenodd" d="M119.211 21.6392H113.848V36.6386H116.085V30.9551H119.211C121.693 30.9551 124.131 29.1587 124.131 26.2957C124.131 23.4356 121.693 21.6392 119.211 21.6392Z" fill="black"/>
<path id="Vector_23" fill-rule="evenodd" clip-rule="evenodd" d="M92.5255 27.88H92.4492C91.9456 27.2802 90.9781 26.7371 89.7644 26.7371C87.2126 26.7371 84.873 28.9805 84.873 31.8604C84.873 34.7206 87.2126 36.9442 89.7644 36.9442C90.9809 36.9442 91.9484 36.4038 92.4492 35.7871H92.5255V36.5198C92.5255 38.4718 91.4816 39.5157 89.8012 39.5157C88.4291 39.5157 87.5776 38.5312 87.2296 37.6995L85.2776 38.5114C85.8377 39.8637 87.3258 41.5272 89.8012 41.5272C92.4322 41.5272 94.653 39.9797 94.653 36.2114V27.0482H92.5255V27.88Z" fill="black"/>
<path id="Vector_24" fill-rule="evenodd" clip-rule="evenodd" d="M96.2002 36.6386H98.4436V21.6392H96.2002V36.6386Z" fill="black"/>
<path id="Vector_25" fill-rule="evenodd" clip-rule="evenodd" d="M108.708 29.9876C108.283 28.8476 106.987 26.7399 104.34 26.7399C101.711 26.7399 99.5273 28.8108 99.5273 31.8435C99.5273 34.7036 101.692 36.947 104.591 36.947C106.931 36.947 108.283 35.5156 108.846 34.6838L107.106 33.5239C106.524 34.3755 105.734 34.9356 104.591 34.9356C103.451 34.9356 102.639 34.4122 102.119 33.3881L108.942 30.5648L108.708 29.9876Z" fill="black"/>
<path id="Vector_26" fill-rule="evenodd" clip-rule="evenodd" d="M54.3448 28.3072V30.4714H59.5275C59.3719 31.6907 58.9646 32.579 58.3478 33.1958C57.5925 33.9511 56.4128 34.78 54.3448 34.78C51.1536 34.78 48.6613 32.2084 48.6613 29.0201C48.6613 25.8318 51.1565 23.2602 54.3448 23.2602C56.0648 23.2602 57.3209 23.9364 58.2488 24.8049L59.7765 23.2772C58.4808 22.0409 56.7607 21.0932 54.3448 21.0932C49.9768 21.0932 46.3047 24.6521 46.3047 29.0201C46.3047 33.3881 49.9768 36.9442 54.3448 36.9442C56.7042 36.9442 58.4808 36.1719 59.8727 34.7206C61.3013 33.2891 61.7483 31.2805 61.7483 29.6566C61.7483 29.1559 61.7115 28.6919 61.6323 28.3044L54.3448 28.3072Z" fill="black"/>
<path id="Vector_27" fill-rule="evenodd" clip-rule="evenodd" d="M26.7957 23.9958L12.263 9.49139C12.0961 9.82805 11.9971 10.2411 11.9971 10.7418V37.2554C11.9971 37.7618 12.0989 38.1833 12.2715 38.52L26.7957 23.9958Z" fill="black"/>
<path id="Vector_28" fill-rule="evenodd" clip-rule="evenodd" d="M12.3057 9.39801C12.3113 9.38386 12.3198 9.37254 12.3283 9.3584C12.3198 9.37254 12.3142 9.38669 12.3057 9.39801Z" fill="black"/>
<path id="Vector_29" fill-rule="evenodd" clip-rule="evenodd" d="M27.6361 23.1556L32.1116 18.6801L15.047 8.98502C14.5632 8.70777 14.1077 8.57764 13.7004 8.57764C13.4938 8.57764 13.3043 8.61441 13.1289 8.67948L27.6361 23.1556Z" fill="black"/>
<path id="Vector_30" fill-rule="evenodd" clip-rule="evenodd" d="M38.4227 22.2672L33.1919 19.2939L28.4844 24.0014L33.1919 28.6976L38.4227 25.7243C40.0975 24.7766 40.0975 23.2178 38.4227 22.2672Z" fill="black"/>
<path id="Vector_31" fill-rule="evenodd" clip-rule="evenodd" d="M27.647 24.8445L13.1709 39.3262C13.6886 39.5016 14.3365 39.4168 15.0465 39.015L32.1225 29.3087L27.647 24.8445Z" fill="black"/>
<path id="Vector_32" fill-rule="evenodd" clip-rule="evenodd" d="M12.291 38.5652C12.3589 38.6897 12.4353 38.8029 12.523 38.8991C12.4353 38.7972 12.3533 38.6897 12.291 38.5652Z" fill="black"/>
<path id="Vector_33" d="M67.6358 28.7513C66.0912 28.7513 64.7559 30.0074 64.7559 31.8435C64.7559 33.6597 66.0883 34.9384 67.6358 34.9384C69.1833 34.9384 70.5157 33.6625 70.5157 31.8435C70.5157 30.0074 69.1833 28.7513 67.6358 28.7513Z" fill="white"/>
<path id="Vector_34" d="M81.6896 31.8435C81.6896 30.0074 80.3571 28.7513 78.8096 28.7513C77.265 28.7513 75.9297 30.0074 75.9297 31.8435C75.9297 33.6597 77.2622 34.9384 78.8096 34.9384C80.3571 34.9384 81.6896 33.6597 81.6896 31.8435Z" fill="white"/>
<path id="Vector_35" fill-rule="evenodd" clip-rule="evenodd" d="M89.9566 34.9384C88.4119 34.9384 87.1162 33.6427 87.1162 31.8661C87.1162 30.0668 88.4119 28.7542 89.9594 28.7542C91.4842 28.7542 92.6837 30.0696 92.6837 31.8661C92.6809 33.6427 91.4814 34.9356 89.9566 34.9384Z" fill="#FBFBFB"/>
<path id="Vector_36" fill-rule="evenodd" clip-rule="evenodd" d="M119.268 28.8674H116.082V23.7271H119.268C120.942 23.7271 121.893 25.1133 121.893 26.2958C121.89 27.4585 120.939 28.8674 119.268 28.8674Z" fill="white"/>
<path id="Vector_37" fill-rule="evenodd" clip-rule="evenodd" d="M101.748 31.6907C101.691 29.7188 103.275 28.7145 104.418 28.7145C105.306 28.7145 106.062 29.1615 106.311 29.798L101.748 31.6907Z" fill="white"/>
<path id="Vector_38" fill-rule="evenodd" clip-rule="evenodd" d="M132.833 34.9356C132.1 34.9356 131.076 34.5679 131.076 33.6626C131.076 32.5055 132.349 32.0613 133.45 32.0613C134.431 32.0613 134.898 32.2735 135.495 32.5621C135.323 33.9511 134.126 34.9356 132.833 34.9356Z" fill="#FBFBFB"/>
</g>
</svg>
