<svg width="164" height="48" viewBox="0 0 164 48" fill="none" xmlns="http://www.w3.org/2000/svg">
<g id="Group">
<path id="Vector" d="M133.138 0.00565709H12.4326C11.9913 0.00565709 11.5585 0.0056577 11.12 0.00848672C10.7522 0.0113157 10.3873 0.0169725 10.0167 0.0226305C9.21039 0.0311176 8.40695 0.101843 7.612 0.234807C6.81704 0.3706 6.05037 0.622384 5.3318 0.987328C4.61323 1.3551 3.95973 1.8332 3.38827 2.40184C2.8168 2.97047 2.3387 3.6268 1.97376 4.3482C1.60881 5.06677 1.35703 5.83627 1.22407 6.63122C1.0911 7.42618 1.01755 8.22679 1.00906 9.03306C0.997743 9.40084 0.994916 9.76861 0.989258 10.1392V37.8721C0.994916 38.2455 0.997743 38.6048 1.00906 38.9782C1.01755 39.7817 1.0911 40.5851 1.22407 41.3801C1.35703 42.175 1.60881 42.9474 1.97376 43.6659C2.3387 44.3817 2.81398 45.038 3.38827 45.601C3.9569 46.1725 4.6104 46.6506 5.32897 47.0155C6.04755 47.3804 6.81704 47.6351 7.60917 47.7737C8.40412 47.9038 9.20756 47.9745 10.0138 47.9859C10.3844 47.9943 10.7494 47.9972 11.1172 47.9972C11.5557 48 11.9913 48 12.4298 48H151.595C152.025 48 152.464 48 152.896 47.9972C153.261 47.9972 153.638 47.9915 154.003 47.983C154.806 47.9745 155.609 47.9038 156.402 47.7709C157.199 47.6351 157.969 47.3776 158.69 47.0127C159.409 46.6477 160.065 46.1696 160.631 45.5982C161.202 45.0324 161.68 44.376 162.048 43.6631C162.41 42.9445 162.662 42.1722 162.792 41.3773C162.925 40.5823 162.999 39.7817 163.016 38.9754C163.021 38.602 163.021 38.2427 163.021 37.8693C163.03 37.4336 163.03 37.0008 163.03 36.5566V11.4462C163.03 11.0077 163.03 10.572 163.021 10.1364C163.021 9.76861 163.021 9.40083 163.016 9.03023C163.002 8.22679 162.928 7.42335 162.792 6.6284C162.662 5.83344 162.41 5.06395 162.048 4.34538C161.307 2.90258 160.133 1.7257 158.69 0.984498C157.969 0.619554 157.196 0.367773 156.402 0.23198C155.607 0.0990156 154.806 0.0282901 154.003 0.0198031C153.638 0.014145 153.261 0.00565649 152.896 0.00282747C152.466 -1.55396e-06 152.028 0 151.595 0H133.138V0.00565709Z" fill="#CCCED3"/>
<path id="Vector_2" d="M11.126 46.9504C10.761 46.9504 10.4046 46.9447 10.0425 46.9391C9.28994 46.9278 8.54025 46.8627 7.79905 46.7439C7.10594 46.6251 6.43829 46.4016 5.81025 46.0847C5.19069 45.7707 4.62489 45.3605 4.13547 44.8654C3.63756 44.376 3.22452 43.8102 2.9105 43.1906C2.59365 42.5654 2.37298 41.8949 2.25982 41.2018C2.13818 40.4578 2.07028 39.7053 2.06179 38.9528C2.05331 38.701 2.04199 37.8579 2.04199 37.8579V10.142C2.04199 10.142 2.05331 9.31027 2.06179 9.06981C2.07028 8.31729 2.13818 7.56477 2.25982 6.82357C2.37298 6.13046 2.59365 5.45715 2.91333 4.82911C3.22735 4.20672 3.63756 3.64092 4.13264 3.1515C4.62489 2.65642 5.19352 2.24338 5.81308 1.9237C6.43829 1.60968 7.10594 1.38902 7.79622 1.27303C8.54025 1.15138 9.29277 1.08348 10.0453 1.075L11.1288 1.06085H152.894L153.989 1.07783C154.736 1.08631 155.482 1.15138 156.218 1.27303C156.914 1.39185 157.59 1.61251 158.224 1.93219C159.469 2.57438 160.481 3.59 161.121 4.83476C161.432 5.45998 161.65 6.1248 161.763 6.81225C161.887 7.56194 161.958 8.31729 161.972 9.07547C161.975 9.41495 161.975 9.77989 161.975 10.1448C161.983 10.5947 161.984 11.0218 161.984 11.4547V36.5651C161.984 37.0007 161.983 37.4251 161.975 37.8551C161.975 38.2455 161.975 38.602 161.969 38.9697C161.955 39.7138 161.887 40.4578 161.766 41.1933C161.655 41.8893 161.435 42.5654 161.118 43.1963C160.801 43.8102 160.391 44.3732 159.899 44.8598C159.409 45.3548 158.84 45.7707 158.218 46.0876C157.587 46.4072 156.914 46.6307 156.218 46.7467C155.477 46.8655 154.727 46.9334 153.975 46.9419C153.624 46.9504 153.256 46.9561 152.897 46.9561L151.595 46.9589L11.126 46.9504Z" fill="#FBFBFB"/>
<g id="Group_2">
<path id="Vector_3" d="M40.2135 23.8713C40.2418 21.7552 41.3508 19.8003 43.1529 18.6914C42.01 17.059 40.1654 16.0604 38.1738 15.9981C36.0775 15.7775 34.0491 17.2514 32.9797 17.2514C31.8906 17.2514 30.2469 16.0179 28.4788 16.0547C26.1505 16.1311 24.0315 17.424 22.8971 19.458C20.484 23.6365 22.2832 29.7755 24.5945 33.1533C25.7516 34.8083 27.1039 36.6528 28.872 36.5877C30.6034 36.517 31.2484 35.4844 33.339 35.4844C35.407 35.4844 36.0153 36.5877 37.8202 36.5453C39.676 36.517 40.8472 34.8847 41.9619 33.2155C42.7936 32.0358 43.433 30.7345 43.8573 29.3568C41.6507 28.426 40.2164 26.2646 40.2135 23.8713ZM36.8074 13.7773C37.8202 12.5609 38.3181 10.9992 38.1993 9.42065C36.6518 9.58191 35.2231 10.3231 34.1962 11.4915C33.1834 12.6457 32.6685 14.1536 32.7704 15.6841C34.3348 15.7011 35.8229 14.9967 36.8074 13.7773Z" fill="#010202"/>
<g id="Group_3">
<path id="Vector_4" d="M60.9782 32.5703H55.3004L53.934 36.596H51.5293L56.9073 21.6956H59.4053L64.7861 36.596H62.339L60.9782 32.5703ZM55.886 30.7117H60.387L58.1662 24.1766H58.1039C58.1068 24.1766 55.886 30.7117 55.886 30.7117ZM76.4049 31.1643C76.4049 34.5393 74.5971 36.7092 71.87 36.7092C70.4611 36.7828 69.1343 36.0444 68.4525 34.8081H68.4016V40.1889H66.1723V25.7326H68.3308V27.5403H68.3705C69.0805 26.3125 70.4102 25.5742 71.8303 25.6194C74.5886 25.6223 76.4049 27.8006 76.4049 31.1643ZM74.1134 31.1643C74.1134 28.9662 72.9761 27.5205 71.2419 27.5205C69.5388 27.5205 68.3931 28.9973 68.3931 31.1671C68.3931 33.3568 69.5388 34.8222 71.2419 34.8222C72.9761 34.8222 74.1134 33.3851 74.1134 31.1643ZM88.3603 31.1643C88.3603 34.5393 86.5526 36.7092 83.8254 36.7092C82.4165 36.7828 81.0897 36.0444 80.4079 34.8081H80.357V40.1889H78.1277V25.7326H80.2863V27.5403H80.3259C81.0388 26.3125 82.3656 25.5742 83.7858 25.6194C86.5441 25.6223 88.3603 27.8006 88.3603 31.1643ZM86.0688 31.1643C86.0688 28.9662 84.9315 27.5205 83.1974 27.5205C81.4943 27.5205 80.3485 28.9973 80.3485 31.1671C80.3485 33.3568 81.4943 34.8222 83.1974 34.8222C84.9315 34.8222 86.0688 33.3851 86.0688 31.1643ZM96.2618 32.4459C96.4287 33.9226 97.863 34.893 99.8235 34.893C101.702 34.893 103.054 33.9226 103.054 32.5901C103.054 31.4331 102.239 30.7428 100.307 30.2675L98.375 29.8036C95.6394 29.1416 94.3692 27.8629 94.3692 25.7864C94.3692 23.2148 96.6097 21.4495 99.7896 21.4495C102.938 21.4495 105.097 23.2148 105.17 25.7864H102.918C102.783 24.2983 101.555 23.4015 99.7584 23.4015C97.962 23.4015 96.7342 24.3096 96.7342 25.6308C96.7342 26.686 97.5207 27.3027 99.4416 27.778L101.082 28.1825C104.141 28.9039 105.408 30.1346 105.408 32.3129C105.408 35.0995 103.187 36.8478 99.6566 36.8478C96.3523 36.8478 94.1202 35.1419 93.9759 32.4487C93.9787 32.4459 96.2618 32.4459 96.2618 32.4459ZM110.226 23.1638V25.7354H112.291V27.5007H110.226V33.4898C110.226 34.4205 110.639 34.8534 111.547 34.8534C111.793 34.8477 112.036 34.8307 112.28 34.8024V36.5564C111.869 36.6328 111.456 36.6668 111.041 36.6611C108.842 36.6611 107.982 35.835 107.982 33.7302V27.5036H106.401V25.7383H107.982V23.1638H110.226ZM113.485 31.1643C113.485 27.7469 115.499 25.5996 118.636 25.5996C121.785 25.5996 123.791 27.7469 123.791 31.1643C123.791 34.5931 121.797 36.729 118.636 36.729C115.479 36.7318 113.485 34.5931 113.485 31.1643ZM121.519 31.1643C121.519 28.8191 120.444 27.4357 118.636 27.4357C116.832 27.4357 115.757 28.8304 115.757 31.1643C115.757 33.5181 116.832 34.8901 118.636 34.8901C120.444 34.893 121.519 33.5209 121.519 31.1643ZM125.63 25.7326H127.757V27.58H127.808C128.105 26.3889 129.194 25.5713 130.419 25.6166C130.677 25.6166 130.934 25.6449 131.183 25.6987V27.7836C130.858 27.6846 130.521 27.6394 130.182 27.6478C129.525 27.6224 128.892 27.8827 128.445 28.3636C127.998 28.8445 127.783 29.4952 127.859 30.1487V36.5904H125.627V25.7326H125.63ZM141.467 33.4049C141.167 35.3767 139.246 36.729 136.79 36.729C133.63 36.729 131.67 34.6129 131.67 31.2152C131.67 27.8091 133.642 25.5968 136.697 25.5968C139.701 25.5968 141.591 27.662 141.591 30.955V31.7188H133.919V31.8546C133.848 32.6637 134.125 33.4643 134.686 34.0528C135.246 34.6412 136.029 34.9609 136.841 34.9326C137.925 35.0344 138.943 34.412 139.351 33.4049H141.467ZM133.927 30.1628H139.359C139.399 29.4358 139.136 28.7257 138.629 28.2023C138.123 27.679 137.421 27.3904 136.694 27.4046C135.961 27.3989 135.257 27.6875 134.736 28.208C134.219 28.7257 133.925 29.4301 133.927 30.1628Z" fill="#010202"/>
</g>
</g>
<g id="Group_4">
<path id="Vector_5" d="M55.6092 10.4814C56.5569 10.4135 57.482 10.7728 58.1355 11.4631C58.789 12.1506 59.0973 13.0955 58.9785 14.0375C58.9785 16.3262 57.7422 17.6389 55.6092 17.6389H53.0234V10.4786H55.6092V10.4814ZM54.1352 16.6289H55.4847C56.1608 16.6685 56.82 16.4026 57.2783 15.9047C57.7366 15.4068 57.9459 14.725 57.8469 14.0545C57.9374 13.3868 57.7281 12.7135 57.2698 12.2185C56.8115 11.7234 56.158 11.4574 55.4847 11.4942H54.1352V16.6289ZM60.2318 14.9371C60.1384 13.9668 60.6024 13.0304 61.4285 12.5183C62.2545 12.0034 63.3013 12.0034 64.1273 12.5183C64.9534 13.0304 65.4174 13.9668 65.324 14.9371C65.4174 15.9075 64.9562 16.8439 64.1273 17.3588C63.3013 17.8737 62.2545 17.8737 61.4256 17.3588C60.6024 16.8467 60.1384 15.9075 60.2318 14.9371ZM64.232 14.9371C64.232 13.7659 63.7058 13.0813 62.7836 13.0813C61.8556 13.0813 61.3351 13.7659 61.3351 14.9371C61.3351 16.1197 61.8556 16.7986 62.7836 16.7986C63.7058 16.7986 64.232 16.114 64.232 14.9371ZM72.1024 17.6417H70.9962L69.8787 13.6641H69.7939L68.6821 17.6417H67.5872L66.0963 12.2383H67.177L68.1445 16.3601H68.2238L69.3327 12.2383H70.3568L71.4658 16.3601H71.5507L72.5126 12.2383H73.5791L72.1024 17.6417ZM74.838 12.2383H75.8649V13.0955H75.9442C76.2214 12.4646 76.8693 12.077 77.5567 12.1336C78.0886 12.094 78.6119 12.2977 78.974 12.6881C79.339 13.0785 79.5059 13.6132 79.4267 14.1422V17.6389H78.3601V14.4081C78.3601 13.5396 77.9839 13.1096 77.1946 13.1096C76.8325 13.0926 76.4817 13.2341 76.2355 13.4972C75.9866 13.7603 75.8678 14.1196 75.9045 14.4788V17.6389H74.838V12.2383ZM81.1269 10.1278H82.1935V17.6389H81.1269V10.1278ZM83.673 14.9371C83.5797 13.9668 84.0436 13.0304 84.8725 12.5183C85.6986 12.0034 86.7454 12.0034 87.5714 12.5183C88.3975 13.0304 88.8643 13.9668 88.7709 14.9371C88.8643 15.9075 88.4032 16.8439 87.5743 17.3588C86.7454 17.8737 85.6986 17.8737 84.8725 17.3588C84.0436 16.8467 83.5797 15.9075 83.673 14.9371ZM87.6733 14.9371C87.6733 13.7659 87.1471 13.0813 86.2248 13.0813C85.2969 13.0813 84.7764 13.7659 84.7764 14.9371C84.7764 16.1197 85.2969 16.7986 86.2248 16.7986C87.1471 16.7986 87.6733 16.114 87.6733 14.9371ZM89.8941 16.114C89.8941 15.1408 90.6183 14.5807 91.9027 14.5015L93.3653 14.4166V13.9498C93.3653 13.3784 92.989 13.0587 92.2591 13.0587C91.665 13.0587 91.252 13.2765 91.1332 13.6584H90.1006C90.2081 12.7305 91.0822 12.1364 92.3072 12.1364C93.6623 12.1364 94.4261 12.8097 94.4261 13.9526V17.6445H93.3992V16.8835H93.3143C92.9664 17.438 92.344 17.7633 91.6905 17.7322C91.2322 17.7803 90.7739 17.6304 90.4316 17.322C90.0921 17.0136 89.8941 16.5751 89.8941 16.114ZM93.3653 15.6529V15.2002L92.0441 15.2851C91.3001 15.336 90.9634 15.5878 90.9634 16.0659C90.9634 16.5525 91.385 16.8354 91.9649 16.8354C92.3072 16.8694 92.6524 16.7647 92.9155 16.5412C93.1814 16.3149 93.3426 15.9952 93.3653 15.6529ZM95.8293 14.9371C95.8293 13.2284 96.7063 12.1477 98.0728 12.1477C98.7602 12.1166 99.4081 12.4844 99.7306 13.0955H99.8098V10.1278H100.876V17.6417H99.855V16.7873H99.7702C99.425 17.3927 98.7687 17.7577 98.0728 17.7294C96.6979 17.7294 95.8293 16.6487 95.8293 14.9371ZM96.9298 14.9371C96.9298 16.0829 97.4702 16.7732 98.3726 16.7732C99.2723 16.7732 99.8268 16.0744 99.8268 14.9428C99.8268 13.8169 99.2638 13.1068 98.3726 13.1068C97.4787 13.1068 96.9298 13.7999 96.9298 14.9371ZM105.287 14.9371C105.193 13.9668 105.657 13.0304 106.483 12.5183C107.31 12.0034 108.356 12.0034 109.182 12.5183C110.008 13.0304 110.472 13.9668 110.379 14.9371C110.472 15.9075 110.011 16.8439 109.182 17.3588C108.356 17.8737 107.31 17.8737 106.481 17.3588C105.655 16.8467 105.191 15.9075 105.287 14.9371ZM109.287 14.9371C109.287 13.7659 108.761 13.0813 107.839 13.0813C106.911 13.0813 106.39 13.7659 106.39 14.9371C106.39 16.1197 106.911 16.7986 107.839 16.7986C108.761 16.7986 109.287 16.114 109.287 14.9371ZM111.813 12.2383H112.84V13.0955H112.919C113.197 12.4646 113.845 12.077 114.532 12.1336C115.064 12.094 115.587 12.2977 115.949 12.6881C116.314 13.0785 116.478 13.6132 116.402 14.1422V17.6389H115.335V14.4081C115.335 13.5396 114.959 13.1096 114.17 13.1096C113.808 13.0926 113.46 13.2341 113.211 13.4972C112.965 13.7603 112.843 14.1196 112.883 14.4788V17.6389H111.816V12.2383H111.813ZM122.428 10.8945V12.2637H123.599V13.1605H122.428V15.9386C122.428 16.5044 122.66 16.7534 123.192 16.7534C123.327 16.7534 123.463 16.7449 123.599 16.7279V17.6162C123.407 17.6502 123.214 17.67 123.019 17.6728C121.834 17.6728 121.361 17.2541 121.361 16.213V13.1605H120.501V12.2637H121.358V10.8945H122.428ZM125.053 10.1278H126.111V13.1039H126.196C126.485 12.4674 127.144 12.0798 127.843 12.1364C128.372 12.1081 128.886 12.3175 129.249 12.705C129.608 13.0955 129.775 13.6245 129.704 14.1507V17.6389H128.637V14.4109C128.637 13.5481 128.236 13.1096 127.483 13.1096C127.113 13.0785 126.748 13.2143 126.485 13.4802C126.222 13.7433 126.091 14.1111 126.122 14.4817V17.6389H125.056V10.1278H125.053ZM135.919 16.1819C135.62 17.2004 134.635 17.8595 133.577 17.7435C132.858 17.7633 132.165 17.4635 131.684 16.9259C131.203 16.3884 130.983 15.667 131.082 14.9541C130.986 14.2384 131.206 13.5141 131.684 12.9738C132.162 12.4306 132.85 12.1251 133.574 12.1308C135.076 12.1308 135.984 13.1577 135.984 14.8551V15.2257H132.171V15.2851C132.137 15.6868 132.276 16.0829 132.547 16.3771C132.822 16.6713 133.206 16.8382 133.608 16.8326C134.131 16.8948 134.638 16.6374 134.895 16.1763L135.919 16.1819ZM132.171 14.4421H134.901C134.926 14.0743 134.799 13.715 134.544 13.4491C134.293 13.1803 133.936 13.036 133.568 13.0417C133.195 13.036 132.836 13.1832 132.573 13.4491C132.31 13.7093 132.165 14.0686 132.171 14.4421Z" fill="#010202"/>
</g>
</g>
</svg>
