<svg width="186" height="114" viewBox="0 0 186 114" fill="none" xmlns="http://www.w3.org/2000/svg">
<g id="undraw_growth_analytics_re_pyxf 1" clip-path="url(#clip0_874_1936)">
<path id="Path 438" d="M7.85824 103.401C8.64119 103.677 9.48183 103.745 10.2992 103.602C11.1165 103.458 11.883 103.106 12.5247 102.58C14.1592 101.208 14.6717 98.9489 15.0886 96.8567L16.3219 90.668L13.7399 92.4454C11.8829 93.7237 9.9843 95.043 8.6987 96.8945C7.41309 98.746 6.85222 101.274 7.88486 103.277" fill="#E6E6E6"/>
<path id="Path 439" d="M8.25712 111.325C7.93214 108.958 7.59778 106.56 7.82628 104.167C8.02878 102.042 8.6772 99.9674 9.99727 98.2653C10.698 97.3637 11.5506 96.5913 12.5168 95.9826C12.7687 95.8237 13.0006 96.2228 12.7498 96.3811C11.0779 97.4374 9.78478 98.9972 9.0568 100.836C8.25281 102.88 8.12372 105.109 8.2622 107.281C8.34591 108.594 8.52379 109.899 8.70243 111.202C8.71654 111.261 8.70773 111.323 8.6778 111.376C8.64786 111.428 8.59903 111.468 8.54118 111.486C8.48216 111.502 8.41925 111.494 8.3661 111.463C8.31296 111.433 8.27385 111.383 8.25728 111.324L8.25712 111.325Z" fill="#F2F2F2"/>
<path id="Path 442" d="M10.5967 107.526C10.9324 108.037 11.394 108.452 11.9369 108.732C12.4798 109.013 13.0857 109.148 13.6963 109.126C15.2658 109.052 16.5737 107.957 17.751 106.918L21.2339 103.843L18.9289 103.733C17.2712 103.653 15.5708 103.579 13.9919 104.091C12.413 104.602 10.9569 105.832 10.6682 107.466" fill="#E6E6E6"/>
<path id="Path 443" d="M7.33896 112.685C8.90353 109.918 10.7182 106.842 13.9609 105.858C14.8624 105.586 15.8078 105.488 16.746 105.571C17.0417 105.596 16.9679 106.052 16.6727 106.027C15.1 105.896 13.5304 106.311 12.228 107.202C10.9747 108.055 9.99881 109.241 9.17297 110.498C8.66704 111.269 8.21388 112.072 7.76072 112.873C7.61592 113.13 7.19247 112.945 7.33896 112.685Z" fill="#F2F2F2"/>
<path id="Rectangle 62" d="M164.37 3.54675H34.9756V64.9341H164.37V3.54675Z" fill="#E6E6E6"/>
<path id="Rectangle 75" d="M160.671 8.81079H38.6758V60.0281H160.671V8.81079Z" fill="white"/>
<path id="Rectangle 80" d="M164.315 0H34.9199V5.49593H164.315V0Z" fill="#167CFB"/>
<path id="Ellipse 90" d="M39.0052 3.56074C39.5679 3.56074 40.0241 3.10467 40.0241 2.54209C40.0241 1.9795 39.5679 1.52344 39.0052 1.52344C38.4425 1.52344 37.9863 1.9795 37.9863 2.54209C37.9863 3.10467 38.4425 3.56074 39.0052 3.56074Z" fill="white"/>
<path id="Ellipse 91" d="M42.8724 3.56074C43.4351 3.56074 43.8912 3.10467 43.8912 2.54209C43.8912 1.9795 43.4351 1.52344 42.8724 1.52344C42.3097 1.52344 41.8535 1.9795 41.8535 2.54209C41.8535 3.10467 42.3097 3.56074 42.8724 3.56074Z" fill="white"/>
<path id="Ellipse 92" d="M46.7396 3.56074C47.3023 3.56074 47.7584 3.10467 47.7584 2.54209C47.7584 1.9795 47.3023 1.52344 46.7396 1.52344C46.1769 1.52344 45.7207 1.9795 45.7207 2.54209C45.7207 3.10467 46.1769 3.56074 46.7396 3.56074Z" fill="white"/>
<path id="Vector" d="M67.4883 48.0446H129.146V37.4789C129.137 36.3648 128.905 35.2638 128.464 34.2405C128.023 33.2172 127.382 32.2922 126.579 31.5198L126.563 31.5035C125.461 30.3987 121.781 27.595 117.973 27.8327C115.962 27.9579 114.24 28.9271 112.855 30.7134C108.544 36.2758 102.882 34.3982 99.8902 32.7839C97.2537 31.361 94.5612 30.6932 91.8869 30.7994C88.1416 30.9459 82.87 32.3253 79.0254 38.0658C77.557 40.2565 74.3636 43.2303 67.4883 44.9779V48.0446Z" fill="#E4E4E4"/>
<path id="Vector_2" d="M132.634 48.2903H67.6068C67.5529 48.2903 67.5011 48.2688 67.4629 48.2307C67.4248 48.1925 67.4033 48.1408 67.4033 48.0868V16.9256C67.4033 16.8717 67.4248 16.8199 67.4629 16.7818C67.5011 16.7436 67.5529 16.7222 67.6068 16.7222C67.6608 16.7222 67.7126 16.7436 67.7507 16.7818C67.7889 16.8199 67.8103 16.8717 67.8103 16.9256V47.8833H132.634C132.688 47.8833 132.74 47.9048 132.778 47.9429C132.816 47.9811 132.838 48.0328 132.838 48.0868C132.838 48.1408 132.816 48.1925 132.778 48.2307C132.74 48.2688 132.688 48.2903 132.634 48.2903Z" fill="#3F3C61"/>
<path id="Vector_3" d="M79.9763 36.3073H79.5771V48.004H79.9763V36.3073Z" fill="#3F3C61"/>
<path id="Vector_4" d="M91.9255 30.8445H91.5264V48.004H91.9255V30.8445Z" fill="#3F3C61"/>
<path id="Vector_5" d="M103.9 34.4359H103.501V48.0039H103.9V34.4359Z" fill="#3F3C61"/>
<path id="Vector_6" d="M115.875 27.8516H115.476V48.004H115.875V27.8516Z" fill="#3F3C61"/>
<path id="Vector_7" d="M127.848 32.4407H127.449V48.004H127.848V32.4407Z" fill="#3F3C61"/>
<path id="Vector_8" d="M91.7513 32.3403C92.4257 32.3403 92.9724 31.7937 92.9724 31.1195C92.9724 30.4452 92.4257 29.8987 91.7513 29.8987C91.077 29.8987 90.5303 30.4452 90.5303 31.1195C90.5303 31.7937 91.077 32.3403 91.7513 32.3403Z" fill="#167CFB"/>
<path id="Vector_9" d="M115.7 29.1479C116.374 29.1479 116.921 28.6013 116.921 27.9271C116.921 27.2529 116.374 26.7063 115.7 26.7063C115.025 26.7063 114.479 27.2529 114.479 27.9271C114.479 28.6013 115.025 29.1479 115.7 29.1479Z" fill="#167CFB"/>
<path id="Vector_10" d="M103.725 35.7322C104.399 35.7322 104.946 35.1857 104.946 34.5114C104.946 33.8372 104.399 33.2906 103.725 33.2906C103.051 33.2906 102.504 33.8372 102.504 34.5114C102.504 35.1857 103.051 35.7322 103.725 35.7322Z" fill="#167CFB"/>
<path id="Vector_11" d="M79.7767 37.528C80.4511 37.528 80.9977 36.9814 80.9977 36.3072C80.9977 35.633 80.4511 35.0864 79.7767 35.0864C79.1023 35.0864 78.5557 35.633 78.5557 36.3072C78.5557 36.9814 79.1023 37.528 79.7767 37.528Z" fill="#167CFB"/>
<path id="Vector_12" d="M127.674 33.5375C128.349 33.5375 128.895 32.991 128.895 32.3167C128.895 31.6425 128.349 31.0959 127.674 31.0959C127 31.0959 126.453 31.6425 126.453 32.3167C126.453 32.991 127 33.5375 127.674 33.5375Z" fill="#167CFB"/>
<path id="Vector_13" d="M27.3236 110.832H29.7704L30.9343 101.397L27.3232 101.397L27.3236 110.832Z" fill="#FFC3C3"/>
<path id="Vector_14" d="M26.6992 110.034L31.5177 110.033C32.332 110.033 33.1132 110.357 33.6891 110.933C34.265 111.508 34.5885 112.289 34.5886 113.103V113.203L26.6994 113.204L26.6992 110.034Z" fill="#2F2E41"/>
<path id="Vector_15" d="M38.8988 110.832H41.3456L42.5095 101.397L38.8984 101.397L38.8988 110.832Z" fill="#FFC3C3"/>
<path id="Vector_16" d="M38.2744 110.034L43.0929 110.033C43.9072 110.033 44.6884 110.357 45.2643 110.933C45.8402 111.508 46.1637 112.289 46.1637 113.103V113.203L38.2746 113.204L38.2744 110.034Z" fill="#2F2E41"/>
<path id="Vector_17" d="M43.4655 67.6972C43.6723 67.4617 43.8249 67.1838 43.9127 66.8829C44.0004 66.5821 44.0211 66.2657 43.9733 65.956C43.9255 65.6463 43.8104 65.3509 43.636 65.0905C43.4616 64.8301 43.2323 64.6111 42.9641 64.4489L38.9824 45.3362L34.6445 47.0449L39.9224 65.2948C39.6798 65.7633 39.6174 66.3045 39.7472 66.8158C39.877 67.3272 40.1899 67.7732 40.6267 68.0694C41.0634 68.3655 41.5936 68.4912 42.1168 68.4226C42.64 68.354 43.1199 68.0959 43.4655 67.6972Z" fill="#FFC3C3"/>
<path id="Vector_18" d="M24.7 64.0165L22.8966 65.8468C22.8966 65.8468 20.9631 72.9307 24.663 81.6673L27.1376 106.998L31.5901 107.333L32.9192 77.8631L39.052 87.6452L37.9808 107.228L42.9024 107.115L45.1268 85.4156L39.052 62.7722L24.7 64.0165Z" fill="#2F2E41"/>
<path id="Vector_19" d="M31.0051 66.4823C28.2895 66.4633 25.5774 66.2842 22.8829 65.9459L22.7744 65.9314L25.4619 54.1222L24.5365 38.9279L33.2753 38.6286C34.0663 38.5999 34.8401 38.8644 35.4481 39.3712C36.056 39.8781 36.4553 40.5916 36.5692 41.3748L38.3577 53.4973L40.0122 64.2524L39.99 64.2847C38.8011 66.0277 34.8259 66.4823 31.0051 66.4823Z" fill="#167CFB"/>
<path id="Vector_20" d="M32.4805 41.1415L34.256 38.9161C34.256 38.9161 37.3687 36.788 38.3538 41.3484C39.3389 45.9088 41.1693 53.3122 41.1693 53.3122L35.0827 53.805L32.4805 41.1415Z" fill="#167CFB"/>
<path id="Vector_21" d="M15.655 67.8967C15.4482 67.6612 15.2955 67.3832 15.2078 67.0824C15.12 66.7816 15.0993 66.4652 15.1472 66.1555C15.195 65.8458 15.3101 65.5503 15.4845 65.2899C15.6588 65.0295 15.8882 64.8105 16.1564 64.6483L20.1381 45.5356L24.4759 47.2444L19.198 65.4942C19.4407 65.9627 19.503 66.5039 19.3732 67.0153C19.2434 67.5267 18.9305 67.9727 18.4938 68.2688C18.0571 68.565 17.5269 68.6906 17.0037 68.6221C16.4804 68.5535 16.0006 68.2954 15.655 67.8967Z" fill="#FFC3C3"/>
<path id="Vector_22" d="M26.64 41.3411L24.8644 39.1157C24.8644 39.1157 21.7517 36.9876 20.7666 41.548C19.7815 46.1084 17.9512 53.5118 17.9512 53.5118L24.0377 54.0046L26.64 41.3411Z" fill="#167CFB"/>
<path id="Vector_23" d="M34.1226 36.4064H22.5475C22.3094 36.4061 22.0811 36.3115 21.9127 36.1431C21.7444 35.9748 21.6497 35.7466 21.6494 35.5085V30.5203C21.6494 28.7475 22.3538 27.0474 23.6076 25.7938C24.8614 24.5403 26.5619 23.8361 28.335 23.8361C30.1082 23.8361 31.8087 24.5403 33.0625 25.7938C34.3163 27.0474 35.0207 28.7475 35.0207 30.5203V35.5085C35.0204 35.7466 34.9257 35.9748 34.7573 36.1431C34.589 36.3115 34.3607 36.4061 34.1226 36.4064Z" fill="#2F2E41"/>
<path id="Vector_24" d="M29.6126 36.1059C32.3197 36.1059 34.5143 33.9118 34.5143 31.2052C34.5143 28.4987 32.3197 26.3046 29.6126 26.3046C26.9055 26.3046 24.7109 28.4987 24.7109 31.2052C24.7109 33.9118 26.9055 36.1059 29.6126 36.1059Z" fill="#FFC3C3"/>
<path id="Vector_25" d="M36.6025 31.0191H29.5246L29.452 30.0032L29.0891 31.0191H27.9992L27.8554 29.0055L27.1361 31.0191H25.0273V30.9194C25.0289 29.5175 25.5866 28.1735 26.5781 27.1823C27.5695 26.191 28.9138 25.6334 30.3159 25.6318H31.3138C32.716 25.6334 34.0602 26.191 35.0517 27.1823C36.0432 28.1735 36.6009 29.5175 36.6025 30.9194V31.0191Z" fill="#2F2E41"/>
<path id="Vector_26" d="M29.4657 37.3375C29.4124 37.3375 29.3592 37.3328 29.3068 37.3235L24.124 36.4092V27.8455H29.8292L29.688 28.0101C27.7228 30.3016 29.2033 34.0172 30.2608 36.0281C30.3387 36.1754 30.3735 36.3417 30.361 36.5078C30.3486 36.674 30.2895 36.8333 30.1905 36.9673C30.1076 37.0819 29.9986 37.1752 29.8726 37.2396C29.7467 37.304 29.6072 37.3375 29.4657 37.3375Z" fill="#2F2E41"/>
<path id="Vector_27" d="M172.493 110.832H170.047L168.883 101.397L172.494 101.397L172.493 110.832Z" fill="#9E616A"/>
<path id="Vector_28" d="M173.118 113.204L165.229 113.203V113.103C165.229 112.289 165.552 111.508 166.128 110.933C166.704 110.357 167.485 110.033 168.299 110.033L173.118 110.034L173.118 113.204Z" fill="#2F2E41"/>
<path id="Vector_29" d="M163.712 110.832H161.266L160.102 101.397L163.713 101.397L163.712 110.832Z" fill="#9E616A"/>
<path id="Vector_30" d="M164.336 113.204L156.447 113.203V113.103C156.447 112.289 156.771 111.508 157.347 110.933C157.923 110.357 158.704 110.033 159.518 110.033L164.337 110.034L164.336 113.204Z" fill="#2F2E41"/>
<path id="Vector_31" d="M135.217 44.7172C135.412 44.986 135.664 45.2088 135.955 45.3697C136.246 45.5306 136.569 45.6257 136.901 45.6485C137.232 45.6712 137.565 45.6209 137.875 45.5012C138.185 45.3815 138.465 45.1952 138.696 44.9555L143.537 46.8457L145.404 44.1844L138.529 41.6111C138.101 41.2509 137.555 41.0602 136.996 41.0753C136.436 41.0904 135.901 41.3102 135.493 41.6931C135.085 42.0759 134.831 42.5952 134.78 43.1526C134.729 43.7099 134.884 44.2666 135.217 44.7172Z" fill="#9E616A"/>
<path id="Vector_32" d="M163.682 60.8414L157.308 62.9203L159.437 108.053L164.356 108.175L166.874 76.3464L167.446 108.049L173.529 108.384L175.771 60.8414H163.682Z" fill="#2F2E41"/>
<path id="Vector_33" d="M159.381 34.2364L175.741 30.6826L177.56 44.7664L176.045 51.4957L176.652 61.7224C176.652 61.7224 163.716 68.1595 157.308 62.9203C157.308 62.9203 162.458 49.3943 159.473 43.0624L159.381 34.2364Z" fill="#3F3C61"/>
<path id="Vector_34" d="M162.214 36.2286L159.381 34.2365C159.381 34.2365 159.214 34.0047 156.853 36.7644C154.492 39.524 149.702 43.9136 149.702 43.9136L141.719 40.9207L140.265 46.293L149.542 50.6156L162.677 41.8453L162.214 36.2286Z" fill="#3F3C61"/>
<path id="Vector_35" d="M176.655 67.0016C176.955 66.8596 177.221 66.6535 177.434 66.3976C177.646 66.1418 177.8 65.8426 177.884 65.5209C177.968 65.1993 177.98 64.8632 177.92 64.5362C177.861 64.2092 177.73 63.8993 177.537 63.6283L180.297 59.2249L178.029 56.8958L174.22 63.169C173.786 63.5226 173.497 64.0231 173.407 64.5756C173.318 65.1281 173.434 65.6942 173.734 66.1667C174.035 66.6391 174.498 66.985 175.036 67.1389C175.574 67.2928 176.15 67.244 176.655 67.0016Z" fill="#9E616A"/>
<path id="Vector_36" d="M173.189 33.4571L175.741 30.6827C175.741 30.6827 178.584 29.6928 180.907 34.8079C183.23 39.9231 185.825 50.2986 185.825 50.2986L179.759 61.9805L175.048 59.876L179.759 50.2161L174.773 43.0625L173.189 33.4571Z" fill="#3F3C61"/>
<path id="Vector_37" d="M168.862 29.5274C171.436 28.1209 172.382 24.895 170.975 22.3221C169.568 19.7492 166.341 18.8036 163.768 20.2101C161.195 21.6165 160.249 24.8425 161.656 27.4154C163.062 29.9883 166.289 30.9339 168.862 29.5274Z" fill="#9E616A"/>
<path id="Vector_38" d="M171.31 20.6243L171.567 20.1062L170.272 19.4627C170.272 19.4627 168.843 17.138 166.257 17.7913C163.671 18.4446 162.507 18.8356 162.507 18.8356L161.215 19.4856L161.864 20.1307L160.7 20.5217L161.478 20.9078L160.573 21.4275L161.06 24.0916C161.06 24.0916 161.869 22.071 163.423 22.8431C164.978 23.6153 167.821 22.444 167.821 22.444L170.291 27.2237C170.291 27.2237 170.801 25.5482 171.709 25.995C171.709 25.995 174.031 22.2989 171.31 20.6243Z" fill="#2F2E41"/>
<path id="Vector_39" d="M59.8712 113.25H0.199571C0.146641 113.25 0.0958796 113.229 0.0584528 113.192C0.021026 113.154 0 113.103 0 113.05C0 112.998 0.021026 112.947 0.0584528 112.909C0.0958796 112.872 0.146641 112.851 0.199571 112.851H59.8712C59.9242 112.851 59.9749 112.872 60.0124 112.909C60.0498 112.947 60.0708 112.998 60.0708 113.05C60.0708 113.103 60.0498 113.154 60.0124 113.192C59.9749 113.229 59.9242 113.25 59.8712 113.25Z" fill="#CACACA"/>
<path id="Vector_40" d="M185.801 113.25H140.099C140.046 113.25 139.995 113.229 139.958 113.192C139.92 113.154 139.899 113.103 139.899 113.05C139.899 112.998 139.92 112.947 139.958 112.909C139.995 112.872 140.046 112.851 140.099 112.851H185.801C185.854 112.851 185.904 112.872 185.942 112.909C185.979 112.947 186 112.998 186 113.05C186 113.103 185.979 113.154 185.942 113.192C185.904 113.229 185.854 113.25 185.801 113.25Z" fill="#CACACA"/>
</g>
<defs>
<clipPath id="clip0_874_1936">
<rect width="186" height="113.25" fill="white"/>
</clipPath>
</defs>
</svg>
