<svg width="186" height="98" viewBox="0 0 186 98" fill="none" xmlns="http://www.w3.org/2000/svg">
<g id="undraw_mobile_images_rc-0-q 1" clip-path="url(#clip0_874_1992)">
<path id="Vector" d="M186 1.62244H0V95.9703H186V1.62244Z" fill="#167CFB"/>
<path id="Vector_2" d="M84.0663 22.5357V33.6013C84.066 33.7035 84.0253 33.8015 83.953 33.8738C83.8807 33.9461 83.7827 33.9868 83.6805 33.9871H83.4059V91.632C83.4058 93.2271 82.7721 94.7569 81.6441 95.8849C80.5162 97.0128 78.9864 97.6465 77.3912 97.6466H41.3722C40.5825 97.6466 39.8005 97.4909 39.0709 97.1886C38.3413 96.8863 37.6783 96.4432 37.12 95.8847C36.5616 95.3262 36.1187 94.6631 35.8166 93.9335C35.5145 93.2038 35.3591 92.4217 35.3592 91.632V36.0089H35.1604C35.0883 36.009 35.0191 35.9805 34.9679 35.9296C34.9168 35.8788 34.8878 35.8097 34.8875 35.7376V29.4399C34.8875 29.404 34.8945 29.3686 34.9083 29.3354C34.922 29.3023 34.9421 29.2722 34.9674 29.2469C34.9928 29.2215 35.0229 29.2014 35.056 29.1877C35.0891 29.174 35.1246 29.1669 35.1604 29.167H35.3592V26.7948H35.1587C35.083 26.7945 35.0105 26.7642 34.9571 26.7105C34.9038 26.6568 34.8739 26.5841 34.874 26.5084V20.2966C34.8742 20.2211 34.9043 20.1488 34.9576 20.0955C35.011 20.0421 35.0833 20.012 35.1587 20.0118H35.3592V16.7737H35.1554C35.1222 16.7737 35.0893 16.7672 35.0586 16.7545C35.0279 16.7419 35 16.7232 34.9766 16.6998C34.9531 16.6763 34.9345 16.6484 34.9218 16.6177C34.9091 16.5871 34.9026 16.5542 34.9026 16.521V13.1312C34.9025 13.064 34.929 12.9994 34.9764 12.9517C35.0238 12.904 35.0881 12.8771 35.1554 12.8768H35.3592V6.01299C35.3593 4.41826 35.9928 2.88887 37.1205 1.76123C38.2481 0.633586 39.7775 5.80842e-05 41.3722 0H77.3912C78.9861 -7.20943e-06 80.5157 0.633448 81.6436 1.76105C82.7716 2.88866 83.4054 4.41809 83.4059 6.01299V22.1498H83.6805C83.7827 22.1501 83.8807 22.1908 83.953 22.2631C84.0253 22.3354 84.066 22.4334 84.0663 22.5357Z" fill="#3F3C61"/>
<path id="Vector_3" opacity="0.1" d="M159.835 1.62244L80.1988 56.2936L74.7637 48.3768L142.869 1.62244H159.835Z" fill="black"/>
<path id="Vector_4" opacity="0.1" d="M186 1.62244V9.53923L73.9654 86.4512L68.5303 78.5345L180.567 1.62244H186Z" fill="black"/>
<path id="Vector_5" opacity="0.1" d="M186 24.9264V36.5733L99.4801 95.9703H82.5127L186 24.9264Z" fill="black"/>
<path id="Vector_6" d="M180.271 97.4919H5.08301V97.8289H180.271V97.4919Z" fill="#3F3C61"/>
<path id="Vector_7" d="M141.464 70.1355L134.32 65.0641L129.249 72.2079L136.393 77.2793L141.464 70.1355Z" fill="#F0F0F0"/>
<path id="Vector_8" d="M136.328 79.1211C135.929 79.1211 135.538 79.0025 135.205 78.7804C134.873 78.5582 134.614 78.2425 134.461 77.8731C134.308 77.5036 134.267 77.0971 134.345 76.705C134.423 76.3128 134.616 75.9525 134.899 75.6698C135.182 75.3871 135.542 75.1945 135.934 75.1165C136.326 75.0385 136.733 75.0785 137.102 75.2315C137.471 75.3846 137.787 75.6437 138.009 75.9762C138.232 76.3086 138.35 76.6995 138.35 77.0994C138.35 77.6354 138.136 78.1493 137.757 78.5283C137.378 78.9073 136.864 79.1205 136.328 79.1211ZM136.328 75.4146C135.995 75.4146 135.669 75.5134 135.392 75.6985C135.115 75.8837 134.899 76.1468 134.772 76.4546C134.644 76.7625 134.611 77.1012 134.676 77.4281C134.741 77.7549 134.901 78.0551 135.137 78.2907C135.373 78.5263 135.673 78.6868 136 78.7518C136.327 78.8168 136.665 78.7834 136.973 78.6559C137.281 78.5284 137.544 78.3125 137.729 78.0354C137.914 77.7583 138.013 77.4326 138.013 77.0994C138.013 76.6527 137.835 76.2245 137.519 75.9086C137.203 75.5928 136.775 75.4151 136.328 75.4146Z" fill="#3F3C61"/>
<path id="Vector_9" d="M96.0618 16.9527C95.6619 16.9527 95.271 16.8341 94.9386 16.6119C94.6061 16.3898 94.347 16.074 94.1939 15.7046C94.0409 15.3352 94.0009 14.9287 94.0789 14.5365C94.1569 14.1443 94.3494 13.7841 94.6322 13.5013C94.9149 13.2186 95.2752 13.026 95.6674 12.948C96.0595 12.87 96.466 12.9101 96.8355 13.0631C97.2049 13.2161 97.5206 13.4752 97.7428 13.8077C97.9649 14.1402 98.0835 14.5311 98.0835 14.9309C98.0829 15.4669 97.8697 15.9808 97.4907 16.3598C97.1117 16.7388 96.5978 16.952 96.0618 16.9527ZM96.0618 13.2461C95.7286 13.2461 95.4028 13.3449 95.1258 13.5301C94.8487 13.7152 94.6328 13.9783 94.5052 14.2862C94.3777 14.594 94.3444 14.9328 94.4094 15.2596C94.4744 15.5864 94.6348 15.8866 94.8705 16.1222C95.1061 16.3579 95.4063 16.5183 95.7331 16.5833C96.0599 16.6483 96.3987 16.615 96.7065 16.4875C97.0144 16.3599 97.2775 16.144 97.4626 15.8669C97.6477 15.5899 97.7466 15.2641 97.7466 14.9309C97.7461 14.4842 97.5684 14.056 97.2525 13.7401C96.9367 13.4243 96.5085 13.2466 96.0618 13.2461Z" fill="#F0F0F0"/>
<path id="Vector_10" d="M23.4434 85.266H23.1064V97.8026H23.4434V85.266Z" fill="#3F3C61"/>
<path id="Vector_11" d="M23.2748 87.0388C24.2539 87.0388 25.0477 86.245 25.0477 85.2659C25.0477 84.2868 24.2539 83.493 23.2748 83.493C22.2957 83.493 21.502 84.2868 21.502 85.2659C21.502 86.245 22.2957 87.0388 23.2748 87.0388Z" fill="#3F3C61"/>
<path id="Vector_12" d="M23.2753 92.9925C23.2753 92.9925 23.022 87.5452 17.8301 88.1784L23.2753 92.9925Z" fill="#3F3C61"/>
<path id="Vector_13" d="M61.1171 3.08435H55.2642C55.0277 3.08435 54.8359 3.27609 54.8359 3.5126V4.01848C54.8359 4.255 55.0277 4.44674 55.2642 4.44674H61.1171C61.3536 4.44674 61.5453 4.255 61.5453 4.01848V3.5126C61.5453 3.27609 61.3536 3.08435 61.1171 3.08435Z" fill="#E6E8EC"/>
<path id="Vector_14" d="M63.3323 4.5383C63.7591 4.5383 64.1051 4.19233 64.1051 3.76555C64.1051 3.33877 63.7591 2.9928 63.3323 2.9928C62.9055 2.9928 62.5596 3.33877 62.5596 3.76555C62.5596 4.19233 62.9055 4.5383 63.3323 4.5383Z" fill="#E6E8EC"/>
<path id="Vector_15" d="M80.5262 7.20239V92.1306C80.5257 93.1424 80.1235 94.1125 79.4079 94.8278C78.6923 95.5431 77.7219 95.9449 76.7101 95.9449H42.2311C41.7298 95.9458 41.2334 95.8478 40.7701 95.6564C40.3068 95.465 39.8859 95.1841 39.5314 94.8298C39.1769 94.4754 38.8958 94.0546 38.7042 93.5914C38.5127 93.1283 38.4144 92.6318 38.415 92.1306V7.20239C38.415 6.70125 38.5137 6.20502 38.7055 5.74203C38.8972 5.27904 39.1783 4.85835 39.5327 4.504C39.887 4.14964 40.3077 3.86855 40.7707 3.67679C41.2337 3.48502 41.7299 3.38633 42.2311 3.38635H47.3916V4.04847C47.3916 4.88181 47.7226 5.68102 48.3119 6.27028C48.9011 6.85954 49.7003 7.19058 50.5337 7.19059H68.0689C68.9022 7.19059 69.7014 6.85954 70.2907 6.27028C70.88 5.68102 71.211 4.88181 71.211 4.04847V3.38635H76.7101C77.2113 3.38619 77.7076 3.48478 78.1707 3.6765C78.6337 3.86822 79.0545 4.1493 79.4089 4.50368C79.7632 4.85806 80.0443 5.2788 80.236 5.74186C80.4277 6.20492 80.5263 6.70121 80.5262 7.20239Z" fill="#167CFB"/>
<path id="Vector_16" d="M79.1846 28.4104H40.0977V47.4484H79.1846V28.4104Z" fill="#3F3C61"/>
<path id="Vector_17" d="M79.1846 60.0844H40.0977V79.1224H79.1846V60.0844Z" fill="#3F3C61"/>
<path id="Vector_18" d="M75.141 17.1224C77.002 17.1224 78.5106 15.6138 78.5106 13.7529C78.5106 11.8919 77.002 10.3833 75.141 10.3833C73.2801 10.3833 71.7715 11.8919 71.7715 13.7529C71.7715 15.6138 73.2801 17.1224 75.141 17.1224Z" fill="white"/>
<path id="Vector_19" d="M76.6576 13.6445H75.2496V12.2366H75.033V13.6445H73.625V13.8612H75.033V15.2692H75.2496V13.8612H76.6576V13.6445Z" fill="#3F3C61"/>
<path id="Vector_20" d="M55.8354 41.4829C56.8586 45.2652 60.3632 47.6077 60.3632 47.6077C60.3632 47.6077 62.209 43.8178 61.1858 40.0355C60.1626 36.2531 56.6579 33.9106 56.6579 33.9106C56.6579 33.9106 54.8122 37.7005 55.8354 41.4829Z" fill="white"/>
<path id="Vector_21" d="M57.3391 40.67C60.1468 43.4031 60.4897 47.6046 60.4897 47.6046C60.4897 47.6046 56.2805 47.3748 53.4729 44.6417C50.6652 41.9085 50.3223 37.707 50.3223 37.707C50.3223 37.707 54.5315 37.9368 57.3391 40.67Z" fill="#167CFB"/>
<path id="Vector_22" d="M55.8354 73.1567C56.8586 76.9391 60.3632 79.2816 60.3632 79.2816C60.3632 79.2816 62.209 75.4917 61.1858 71.7093C60.1626 67.927 56.6579 65.5845 56.6579 65.5845C56.6579 65.5845 54.8122 69.3744 55.8354 73.1567Z" fill="white"/>
<path id="Vector_23" d="M57.3391 72.344C60.1468 75.0771 60.4897 79.2786 60.4897 79.2786C60.4897 79.2786 56.2805 79.0488 53.4729 76.3156C50.6652 73.5825 50.3223 69.381 50.3223 69.381C50.3223 69.381 54.5315 69.6108 57.3391 72.344Z" fill="#167CFB"/>
<path id="Vector_24" d="M65.1438 73.1567C64.1206 76.9391 60.6159 79.2816 60.6159 79.2816C60.6159 79.2816 58.7702 75.4917 59.7934 71.7093C60.8166 67.927 64.3212 65.5845 64.3212 65.5845C64.3212 65.5845 66.167 69.3744 65.1438 73.1567Z" fill="white"/>
<path id="Vector_25" d="M63.6399 72.344C60.8322 75.0771 60.4893 79.2786 60.4893 79.2786C60.4893 79.2786 64.6984 79.0488 67.5061 76.3156C70.3138 73.5825 70.6567 69.381 70.6567 69.381C70.6567 69.381 66.4475 69.6108 63.6399 72.344Z" fill="#167CFB"/>
<path id="Vector_26" d="M164.434 20.371H161.108V17.045H164.434V20.371ZM161.364 20.1152H164.179V17.3009H161.364V20.1152Z" fill="#3F3C61"/>
<path id="Vector_27" d="M166.397 95.6943L164.128 93.2621L166.56 90.9935L168.829 93.4257L166.397 95.6943ZM164.49 93.2747L166.409 95.3327L168.467 93.4131L166.548 91.3551L164.49 93.2747Z" fill="#F0F0F0"/>
<path id="Vector_28" d="M23.1336 18.766C24.0714 18.766 24.8316 18.0058 24.8316 17.068C24.8316 16.1302 24.0714 15.37 23.1336 15.37C22.1958 15.37 21.4355 16.1302 21.4355 17.068C21.4355 18.0058 22.1958 18.766 23.1336 18.766Z" fill="#F0F0F0"/>
<path id="Vector_29" d="M23.1339 21.9734C22.1637 21.9734 21.2153 21.6857 20.4086 21.1467C19.6019 20.6077 18.9732 19.8416 18.6019 18.9452C18.2306 18.0489 18.1335 17.0626 18.3228 16.111C18.5121 15.1595 18.9792 14.2854 19.6653 13.5994C20.3513 12.9133 21.2254 12.4461 22.1769 12.2569C23.1285 12.0676 24.1148 12.1647 25.0112 12.536C25.9075 12.9073 26.6736 13.536 27.2126 14.3427C27.7516 15.1494 28.0393 16.0978 28.0393 17.068C28.0379 18.3686 27.5206 19.6154 26.601 20.5351C25.6813 21.4547 24.4345 21.972 23.1339 21.9734ZM23.1339 12.5399C22.2384 12.5399 21.3629 12.8055 20.6183 13.3031C19.8736 13.8006 19.2933 14.5078 18.9505 15.3352C18.6078 16.1626 18.5181 17.073 18.6929 17.9514C18.8676 18.8298 19.2988 19.6366 19.9321 20.2698C20.5654 20.9031 21.3722 21.3344 22.2505 21.5091C23.1289 21.6838 24.0394 21.5941 24.8667 21.2514C25.6941 20.9087 26.4013 20.3283 26.8989 19.5837C27.3964 18.839 27.662 17.9636 27.662 17.068C27.6606 15.8675 27.1831 14.7166 26.3342 13.8677C25.4854 13.0188 24.3344 12.5413 23.1339 12.5399Z" fill="#2F2E41"/>
<path id="Vector_30" d="M164.098 36.1604H108.837V40.7093H164.098V36.1604Z" fill="#F0F0F0"/>
<path id="Vector_31" d="M157.106 46.7745H115.829V48.5363H157.106V46.7745Z" fill="#F0F0F0"/>
<path id="Vector_32" d="M157.106 49.613H115.829V51.3748H157.106V49.613Z" fill="#F0F0F0"/>
<path id="Vector_33" d="M157.106 52.4515H115.829V54.2133H157.106V52.4515Z" fill="#F0F0F0"/>
<path id="Vector_34" d="M157.106 55.2899H115.829V57.0517H157.106V55.2899Z" fill="#F0F0F0"/>
</g>
<defs>
<clipPath id="clip0_874_1992">
<rect width="186" height="97.8355" fill="white"/>
</clipPath>
</defs>
</svg>
