<svg width="186" height="133" viewBox="0 0 186 133" fill="none" xmlns="http://www.w3.org/2000/svg">
<g id="undraw_stand_out_-1-oag 1" clip-path="url(#clip0_874_1895)">
<path id="Vector" d="M144.782 60.3149C144.434 59.4205 144.931 58.9733 145.13 58.1783C145.329 57.3833 144.683 54.8989 144.683 54.8989C144.683 54.8989 142.596 46.303 141.95 44.6137C141.677 43.8988 141.083 43.407 140.489 43.0767C140.449 42.8574 140.391 42.716 140.31 42.6759C139.735 42.3879 138.301 41.7626 137.346 41.5898C137.167 41.2827 136.955 40.9962 136.714 40.7354C136.881 40.4133 136.959 40.052 136.939 39.6895C136.878 38.7521 136.168 37.912 136.26 36.9772C136.33 36.2682 136.849 35.6858 137.049 35.002C137.133 34.6949 137.153 34.3738 137.107 34.0587C137.062 33.7436 136.952 33.4412 136.785 33.1703C136.932 33.3266 137.079 33.483 137.226 33.6394C137.426 33.3397 137.522 32.9828 137.5 32.6232C137.478 32.2637 137.338 31.9213 137.103 31.6485C136.637 31.1344 135.859 30.9416 135.498 30.3495C135.127 29.7412 135.326 28.9145 134.975 28.2942C134.116 26.7748 131.916 27.8519 130.598 27.3216C130.056 27.1036 129.644 26.8638 129.035 26.881C128.517 26.9107 128.005 27.0064 127.511 27.1657C126.802 27.3707 126.185 27.8127 125.764 28.4179C125.805 28.3705 125.851 28.3268 125.9 28.2874C126.219 28.0372 126.78 28.058 126.948 28.427C126.988 28.5198 127.005 28.621 126.997 28.7218C126.97 29.1667 126.581 29.4989 126.195 29.7216C125.809 29.9442 125.374 30.1305 125.122 30.4981C124.706 31.1048 124.951 31.9191 124.951 32.6547C124.948 33.1222 124.839 33.583 124.634 34.0031C124.429 34.4232 124.133 34.792 123.766 35.0823L125.168 34.5091C124.499 35.6808 124.059 36.9696 123.873 38.3062L125.769 36.7401C125.067 37.8576 124.64 39.1258 124.524 40.4404L126.046 38.8812C126.115 39.003 126.15 39.1414 126.146 39.2815L125.987 39.8935C125.931 40.015 125.869 40.1335 125.801 40.2487C125.556 40.6692 125.303 41.1867 125.532 41.616L125.533 41.6154C125.292 42.4265 124.929 43.238 124.12 43.6324C125.017 43.7262 125.953 43.2776 126.359 42.5636C126.425 42.692 126.505 42.813 126.597 42.9243C126.623 42.9569 126.648 42.9893 126.674 43.0217L126.451 43.1707L125.851 43.5702C125.851 43.5702 121.926 44.3652 122.174 45.8558C122.185 45.9172 122.197 45.9903 122.211 46.0724L121.081 47.9924L119.442 53.5574C119.442 53.5574 118.597 55.3461 118.746 56.0914C118.895 56.8367 118.746 57.1349 118.746 58.4764C118.746 59.818 118.1 60.3645 118.746 61.4576C119.392 62.5508 121.33 65.7308 121.33 65.7308L121.755 66.05C121.735 66.2417 121.742 66.4355 121.777 66.6251C122.174 68.6126 125.901 87.6429 125.901 87.6429C125.901 87.6429 124.013 102.698 127.839 103.642C128.319 103.761 128.79 103.868 129.248 103.964L129.826 107.766L129.479 112.586C129.479 112.586 126.845 118.548 131.665 118.896C136.484 119.244 134.298 113.729 134.298 113.729C134.553 113.258 134.657 112.72 134.596 112.188C134.547 111.746 134.133 109.444 133.728 107.231C135.557 107.011 135.215 105.07 134.971 104.217C135.076 104.155 135.155 104.057 135.193 103.94C135.248 103.742 135.119 102.962 134.887 101.87C134.697 100.784 134.374 99.0252 134.153 97.834L135.342 98.0275L140.36 68.6126C140.36 68.6126 140.393 68.1444 140.378 67.4595C141.064 67.1046 141.772 66.7928 142.497 66.5258C144.136 65.8798 144.782 63.4948 145.329 62.5011C145.875 61.5073 145.13 61.2092 144.782 60.3149ZM126.964 41.5863C127.127 41.4744 127.317 41.4098 127.514 41.3999C127.471 41.631 127.074 41.6985 126.741 41.8196C126.802 41.73 126.877 41.6512 126.964 41.5863ZM124.46 56.3896C124.863 57.0509 124.134 58.8431 123.477 60.2652C123.101 59.9409 122.708 60.0432 123.168 59.1224C123.482 58.5388 123.668 57.8952 123.715 57.2343C123.715 57.1206 123.773 56.2859 124.263 55.9391C124.314 56.0951 124.38 56.2459 124.46 56.3896ZM122.952 62.0976C123.18 62.0049 123.525 61.8625 123.991 61.704C123.768 61.997 123.513 62.346 123.256 62.727C123.16 62.6536 123.082 62.5582 123.029 62.4489C122.976 62.3395 122.95 62.2191 122.952 62.0976ZM139.068 62.7495C138.766 62.4286 138.522 62.1415 138.321 61.8846C138.696 61.9832 139.077 62.0894 139.466 62.203C139.659 62.2319 139.857 62.2187 140.045 62.1644C140.062 62.5079 140.062 62.998 140.062 62.998L139.518 63.3747C139.394 63.149 139.243 62.939 139.068 62.7495ZM140.61 61.0263C140.604 61.0314 140.598 61.0372 140.592 61.0425C140.565 60.846 140.521 60.6524 140.459 60.4639C140.134 59.4369 139.96 57.6148 139.867 56.0598L140.807 59.2217C140.807 59.2217 140.857 60.8117 140.61 61.0263Z" fill="#D0CDE1"/>
<path id="Vector_2" d="M121.31 47.9665C121.31 47.9665 116.212 39.205 116.053 38.2492C115.893 37.2934 113.345 35.5411 113.345 35.5411C112.474 34.6702 111.045 34.3947 109.541 34.409C110.107 33.9406 108.086 33.6257 107.928 33.3109C107.769 32.9923 107.291 32.9923 106.654 32.5144C106.017 32.0365 104.426 32.4347 104.426 32.4347C104.187 31.9317 104.021 31.3971 103.932 30.8471C104.611 30.044 104.983 29.026 104.981 27.9744C104.981 27.9629 104.981 27.9517 104.98 27.9402C105.021 28.0034 105.062 28.0669 105.102 28.1323C105.401 26.3448 105.927 24.859 104.923 23.2284C104.212 22.0727 103.098 21.221 101.796 20.8374L100.84 21.6024L101.211 20.7101C100.899 20.6624 100.582 20.6441 100.266 20.6555L99.4058 21.7617L99.7619 20.6934C99.0154 20.7862 98.2961 21.0326 97.6496 21.4172C97.003 21.8018 96.4431 22.3162 96.0053 22.9279C94.9102 24.5069 94.9835 26.7017 96.0605 28.293C96.0642 28.2818 96.067 28.2709 96.0706 28.2598C96.1181 29.0042 96.3517 29.7248 96.7498 30.3556C97.148 30.9864 97.6981 31.5072 98.3496 31.8704L98.6201 34.0347C98.3767 34.2608 98.0643 34.3986 97.7332 34.426C97.2553 34.426 96.7774 35.7004 96.7774 35.7004C96.7774 35.7004 96.5065 35.8371 96.2146 36.4823C95.4626 36.9943 93.1687 38.6024 92.3177 39.7262C91.8142 39.974 91.2734 40.525 91.3612 41.7538C91.5205 43.984 91.3612 54.3385 91.3612 54.3385C91.3612 54.3385 89.9275 63.1 90.4054 63.7372C90.8833 64.3744 90.2461 66.4453 90.2461 66.4453L90.724 66.5515V67.0825C90.724 67.0825 89.2866 73.7458 91.5205 73.4544C95.1844 72.9765 92.4763 67.5604 92.4763 67.5604V66.9409L93.1135 67.0825C93.1135 67.0825 93.4321 64.8523 94.0693 64.693C94.2909 64.6376 94.5511 64.0421 94.7962 63.2895C94.9391 64.4636 95.0251 65.1709 95.0251 65.1709L96.0219 64.9494L96.2995 65.9674C96.3679 66.0057 96.4396 66.0382 96.5136 66.0643L96.2995 67.2418C96.2995 67.2418 96.1402 68.5162 96.2995 69.3127C96.3798 69.7143 99.3368 78.3004 102.249 86.7135L102.194 88.7472C102.194 88.7472 100.76 90.3402 101.078 91.4553C101.397 92.5704 100.282 101.81 100.282 101.81L99.3262 106.429L99.5667 106.503L99.3459 107.313C99.1558 107.409 98.9866 107.542 98.8483 107.704C97.5739 109.138 95.9809 113.279 95.9809 113.279C95.9809 113.279 93.1135 117.58 97.5739 117.421C102.034 117.262 102.353 115.669 102.353 115.669C102.353 115.669 102.99 111.527 102.99 111.368C102.99 111.208 102.671 109.571 102.671 109.571L102.548 109.435L102.634 107.447L103.468 107.704C103.468 107.704 104.264 103.562 104.902 103.084C105.124 102.917 105.717 101.057 106.393 98.6669C107.085 100.658 107.754 107.542 107.972 108.167C107.895 108.272 107.827 108.384 107.769 108.5C107.053 109.875 106.255 111.204 105.38 112.483C105.38 112.483 100.282 115.51 105.38 116.306C105.38 116.306 108.247 116.465 109.681 115.51C111.114 114.554 114.938 113.12 114.938 112.801C114.938 112.483 113.982 107.799 113.026 108.309L112.386 106.837L113.026 106.589L108.993 88.486C109.088 88.1002 109.158 87.7085 109.203 87.3135C109.203 86.4793 111.265 70.2358 111.79 66.1158C114.1 66.7703 116.212 61.9849 116.212 61.9849L116.736 61.0423L117.486 61.507C117.486 61.507 118.124 59.914 119.079 59.7547C120.035 59.5954 121.787 51.1525 121.787 50.0374C121.773 49.3215 121.61 48.6164 121.31 47.9665ZM113.887 60.4474C113.731 60.1985 113.549 59.9664 113.345 59.7546C113.761 58.6699 114.081 57.5504 114.3 56.4094C114.619 54.6571 113.822 48.9223 113.822 48.9223L113.809 48.5328C114.59 49.5592 115.575 50.9275 115.575 51.3118C115.575 51.4972 115.618 51.6802 115.701 51.8461C115.784 52.012 115.904 52.1563 116.053 52.2676L115.097 55.6129C115.097 55.6129 114.46 57.2058 114.3 58.0023C114.205 58.4746 114.152 58.9544 114.141 59.436L114.367 59.5758L113.887 60.4474Z" fill="#D0CDE1"/>
<path id="Vector_3" d="M48.3813 50.915L49.2314 50.7237L45.7268 40.8472L38.16 38.0594C38.16 38.0594 38.131 38.0915 38.0775 38.1469C37.4321 37.5223 37.1582 36.6159 37.0437 35.9025C37.6522 35.6567 38.199 35.2796 38.6449 34.7981C39.0909 34.3167 39.4251 33.7427 39.6237 33.1172C39.8222 32.4917 39.8803 31.8301 39.7937 31.1795C39.7071 30.529 39.4779 29.9056 39.1226 29.3539C39.7461 29.2042 39.9688 28.6385 40.178 27.964C40.0485 27.9258 39.9163 27.897 39.7826 27.8779C39.8806 27.6581 39.9787 27.4382 40.0767 27.2183C39.9044 27.2028 39.7321 27.1873 39.5597 27.1719C39.6038 26.9663 39.6479 26.7608 39.6919 26.5552C39.4722 26.707 39.2524 26.8587 39.0326 27.0104C39.1073 26.7946 39.1258 26.5634 39.0866 26.3384C39.0473 26.1135 38.9515 25.9023 38.8081 25.7245C38.5163 25.3719 38.1357 25.1035 37.7055 24.947C36.8642 24.616 35.9479 24.5233 35.0574 24.6789C34.1668 24.8346 33.3363 25.2326 32.6572 25.8294L32.6095 25.6437C31.2646 26.6776 30.3846 28.2026 30.1625 29.8843C29.9515 31.5467 30.7501 33.2393 31.7881 34.5548C31.7793 34.4974 31.7699 34.4401 31.7604 34.3829C31.8053 34.4447 31.8516 34.5053 31.8994 34.5648L32.027 39.4135L31.7074 39.6874C31.7069 39.6876 26.3457 42.1131 26.1367 45.0102L26.1361 45.0123C25.8143 46.4226 25.655 53.7504 25.655 53.7504H26.0961L25.655 56.6178L22.7876 67.7688C22.7876 67.7688 19.1237 72.5478 22.3097 73.5036C24.2895 74.0975 24.8544 71.8005 24.9984 69.976C25.1131 70.4283 25.4562 70.734 26.1329 70.7955C26.1862 70.8004 26.243 70.8044 26.298 70.8088C24.7916 74.7019 25.8143 87.3627 25.8143 87.3627C25.0178 88.9557 34.4165 99.9474 34.4165 99.9474L34.9824 99.6455L35.1049 99.8904C34.7899 99.9206 34.5758 99.9474 34.5758 99.9474V104.886C34.5758 104.886 33.1421 109.824 35.0537 110.78C35.5483 111.027 36.0642 110.847 36.5574 110.445C36.4631 111.969 36.3281 114.244 36.3281 114.762C36.3281 115.559 38.399 116.992 38.399 116.992C38.399 116.992 38.8769 118.745 42.7001 118.745C46.5233 118.745 43.6559 114.125 43.6559 114.125L41.585 109.505C41.585 109.505 41.43 109.581 40.9611 109.199L41.1291 107.352L42.0629 107.434L43.3373 88.7964C43.3373 88.7964 44.4524 72.2292 44.6117 69.6804C44.649 68.8632 44.6298 68.0445 44.5541 67.23L49.2314 57.5736L48.3813 50.915ZM44.9303 57.0957L44.4524 58.7611V55.0779L44.9303 57.0957ZM25.0428 68.9092C25.0468 68.3254 25.0178 67.9281 25.0178 67.9281L28.1321 61.6995L28.0445 63.627C28.0445 63.627 25.5503 66.782 25.0428 68.9092ZM32.3456 86.8848L35.3723 76.2117L37.1246 89.115L36.999 93.8059C36.7856 93.3749 36.6143 92.9242 36.4874 92.4603C36.0095 90.5487 32.3456 86.8848 32.3456 86.8848Z" fill="#D0CDE1"/>
<path id="Vector_4" d="M75.4541 112.238C73.9615 111.624 71.0642 110.307 70.7129 109.604C70.3618 108.902 68.6058 103.458 68.6058 103.458L68.1536 103.491C68.0953 101.018 67.8463 91.4343 67.4644 90.2885C67.4644 90.2885 69.3082 75.0993 65.6206 69.0412L64.9562 66.357C65.1742 65.281 65.1463 62.7893 65.006 62.3685C64.8304 61.8417 67.0254 60.1735 66.4108 59.1199C65.7962 58.0664 64.1281 54.4666 64.1281 54.4666C64.1281 54.4666 64.3036 52.1838 61.9331 50.0767C61.9331 50.0767 61.2403 46.1548 58.1186 46.0964C57.6966 45.3599 57.1059 44.1888 57.2797 43.6674C57.4658 43.1091 58.1774 41.3686 58.5793 40.3945C58.7927 40.298 58.9977 40.1839 59.1922 40.0534C61.6749 38.941 63.4251 36.2669 63.4251 33.1431C63.4251 29.7991 61.4202 26.9691 58.6572 26.0202C58.7803 25.6958 58.8306 25.3483 58.8046 25.0024C58.7787 24.6564 58.6771 24.3204 58.507 24.018C58.3369 23.7156 58.1025 23.4543 57.8203 23.2525C57.5381 23.0507 57.215 22.9133 56.8739 22.85C56.5328 22.7867 56.1819 22.7992 55.8462 22.8864C55.5104 22.9736 55.1978 23.1335 54.9306 23.3548C54.6634 23.576 54.4481 23.8533 54.2998 24.1669C54.1515 24.4806 54.0739 24.823 54.0724 25.1699C53.9205 24.8097 53.8601 24.4176 53.8966 24.0284C53.9332 23.6392 54.0655 23.2651 54.2818 22.9395C54.4981 22.6139 54.7917 22.347 55.1363 22.1625C55.481 21.978 55.8659 21.8817 56.2568 21.8823C56.4107 21.8825 56.5642 21.8976 56.7151 21.9274C56.1946 21.6799 55.6017 21.6307 55.0474 21.7889C54.4932 21.9472 54.0157 22.3022 53.7045 22.7873C53.3932 23.2724 53.2695 23.8544 53.3566 24.4242C53.4437 24.9939 53.7356 25.5124 54.1776 25.8824C54.2048 25.9691 54.2372 26.0541 54.2743 26.1371C51.6745 27.1862 49.8199 29.927 49.8199 33.1431C49.8199 36.1264 51.4161 38.6998 53.7221 39.8943C53.7098 40.8648 53.4692 42.5009 52.1308 43.4979C51.4395 43.1821 50.4801 42.8353 49.8645 42.9926C49.5461 42.7444 49.0657 42.6625 48.4121 43.3162C47.0951 44.6332 45.9537 48.0573 45.9537 50.1645C45.9537 52.2717 46.2171 64.4757 46.2171 64.4757C46.2171 64.4757 44.8123 65.0025 45.7781 65.7927C45.9776 65.9588 46.2278 66.0518 46.4874 66.0563L47.4463 73.1678C47.4463 73.1678 46.8317 80.0161 49.2023 80.1039C49.3881 80.1141 49.5729 80.0687 49.7329 79.9736L47.9731 87.918C47.9731 87.918 43.9343 90.5519 40.7736 95.7321C39.1456 98.4002 38.3339 100.042 37.9285 101.008L37.3494 100.649L35.33 104.512C35.33 104.512 30.8523 107.234 31.8181 109.253C32.7839 111.272 33.6619 111.799 33.6619 111.799L34.2765 111.536L35.4178 113.643C35.4178 113.643 38.403 117.945 43.2319 115.75C43.4585 115.446 43.5809 115.076 43.5809 114.697C43.5809 114.317 43.4585 113.948 43.2319 113.643C42.4417 112.502 40.4224 110.043 40.4224 110.043L41.7393 103.371L41.4668 103.202L49.8169 93.0981C49.8169 93.0981 52.2752 91.6055 53.1532 90.2885C54.0312 88.9716 59.4747 75.3627 59.4747 75.3627L62.5477 89.5861C62.5477 89.5861 62.3721 94.7663 63.1623 98.1026C63.593 99.9742 63.8738 101.877 64.0022 103.793L63.7769 103.81L64.3037 107.761C64.3037 107.761 62.0209 113.38 63.6012 113.819C64.7256 114.109 65.8702 114.315 67.0254 114.433L67.201 113.819C67.201 113.819 73.9615 117.506 76.4199 114.784C76.4199 114.784 76.9467 112.853 75.4541 112.238ZM51.3972 69.129C51.6606 69.3924 51.5728 70.6216 51.5728 70.6216L51.046 74.0457L50.5199 76.4208C50.4471 75.2987 50.3002 74.1827 50.0802 73.08L49.8372 66.518C49.885 66.5481 49.9374 66.57 49.9924 66.5828C50.168 66.5828 50.0802 65.0903 50.0802 65.0903C50.0802 65.0903 50.1827 64.8237 50.3106 64.403C50.6519 65.4249 51.0686 66.0916 51.5728 66.2317L51.6606 67.373C51.6606 67.373 50.5192 67.8998 51.5728 67.8998C51.6339 67.8976 51.6946 67.8885 51.7538 67.8729L51.6606 68.3388C51.6606 68.3388 51.1338 68.8656 51.3972 69.129Z" fill="#D0CDE1"/>
<path id="Vector_5" d="M73.9537 116.328C112.933 116.328 144.532 115.807 144.532 115.165C144.532 114.522 112.933 114.002 73.9537 114.002C34.9747 114.002 3.37598 114.522 3.37598 115.165C3.37598 115.807 34.9747 116.328 73.9537 116.328Z" fill="#3F3C61"/>
<path id="Vector_6" d="M98.6546 121.176C141.531 121.176 176.29 119.83 176.29 118.17C176.29 116.51 141.531 115.165 98.6546 115.165C55.778 115.165 21.0195 116.51 21.0195 118.17C21.0195 119.83 55.778 121.176 98.6546 121.176Z" fill="#3F3C61"/>
<path id="Vector_7" d="M84.3269 125.635C105.369 125.635 122.427 124.29 122.427 122.63C122.427 120.97 105.369 119.625 84.3269 119.625C63.2847 119.625 46.2266 120.97 46.2266 122.63C46.2266 124.29 63.2847 125.635 84.3269 125.635Z" fill="#3F3C61"/>
<path id="Vector_8" d="M139.393 127.768C148.763 127.768 156.358 127.074 156.358 126.217C156.358 125.36 148.763 124.666 139.393 124.666C130.023 124.666 122.427 125.36 122.427 126.217C122.427 127.074 130.023 127.768 139.393 127.768Z" fill="#3F3C61"/>
<path id="Vector_9" d="M116.126 133.003C120.57 133.003 124.172 132.309 124.172 131.452C124.172 130.595 120.57 129.901 116.126 129.901C111.682 129.901 108.079 130.595 108.079 131.452C108.079 132.309 111.682 133.003 116.126 133.003Z" fill="#3F3C61"/>
<path id="Vector_10" d="M50.5886 126.411C55.0327 126.411 58.6353 125.716 58.6353 124.86C58.6353 124.003 55.0327 123.309 50.5886 123.309C46.1446 123.309 42.542 124.003 42.542 124.86C42.542 125.716 46.1446 126.411 50.5886 126.411Z" fill="#3F3C61"/>
<path id="Vector_11" d="M90.3379 107.312L91.1135 112.741L94.9914 112.353L94.6036 106.73L90.3379 107.312Z" fill="#FFB8B8"/>
<path id="Vector_12" d="M71.9172 107.312L71.1416 112.741L67.2637 112.353L67.6515 106.73L71.9172 107.312Z" fill="#FFB8B8"/>
<path id="Vector_13" d="M66.2948 51.0827C66.2948 51.0827 62.8047 55.1545 63.5802 61.553C64.3558 67.9515 65.7131 82.4937 65.7131 82.4937L66.6826 108.282L72.8872 107.894L73.8567 85.9838L76.959 68.3393L85.2965 88.8922C85.2965 88.8922 89.3683 108.088 89.5622 108.088C89.756 108.088 95.379 107.506 95.379 107.506L92.6645 84.8204C92.6645 84.8204 88.3988 51.8583 85.8781 51.2766C83.3575 50.6949 66.2948 51.0827 66.2948 51.0827Z" fill="#2F2E41"/>
<path id="Vector_14" d="M95.3784 111.578C95.3784 111.578 91.8883 109.251 90.531 111.966C89.1737 114.68 90.3371 116.619 90.3371 116.619C90.3371 116.619 91.5005 117.395 90.9188 118.17C90.3371 118.946 90.1432 123.987 95.1845 123.212C100.226 122.436 97.7051 117.201 97.7051 117.201L95.3784 111.578Z" fill="#2F2E41"/>
<path id="Vector_15" d="M66.8758 111.578C66.8758 111.578 70.366 109.251 71.7232 111.966C73.0805 114.68 71.9171 116.619 71.9171 116.619C71.9171 116.619 70.7537 117.395 71.3354 118.17C71.9171 118.946 72.111 123.987 67.0697 123.212C62.0285 122.436 64.5491 117.201 64.5491 117.201L66.8758 111.578Z" fill="#2F2E41"/>
<path id="Vector_16" d="M71.0449 13.3701C71.0449 13.3701 72.79 18.2175 71.4327 20.932C70.0754 23.6465 73.5656 26.7489 73.5656 26.7489C73.5656 26.7489 82.6786 22.0954 81.5152 19.7686C80.3519 17.4419 78.4129 14.3396 78.8007 12.4006L71.0449 13.3701Z" fill="#FFB8B8"/>
<path id="Vector_17" d="M74.438 15.2121C77.8648 15.2121 80.6427 12.4342 80.6427 9.00749C80.6427 5.58077 77.8648 2.80286 74.438 2.80286C71.0113 2.80286 68.2334 5.58077 68.2334 9.00749C68.2334 12.4342 71.0113 15.2121 74.438 15.2121Z" fill="#FFB8B8"/>
<path id="Vector_18" d="M69.9782 20.6411C69.9782 20.6411 76.2038 25.8217 80.8468 18.481L85.6837 21.2228L88.2043 50.6948C88.2043 50.6948 74.05 58.8384 67.2637 51.8582L68.2331 24.519L69.9782 20.6411Z" fill="#D0CDE1"/>
<path id="Vector_19" d="M71.9335 17.739L63.1921 23.5495L66.2945 37.8977L62.2227 60.1956L68.8151 50.307L71.9335 17.739Z" fill="#144887"/>
<path id="Vector_20" d="M79.6587 16.1218L81.8056 17.5389L90.5309 20.6412L89.1736 44.6842L92.8576 60.1958L87.6225 62.9103C87.6225 62.9103 86.653 55.5423 80.6423 51.8583C74.6315 48.1743 78.2873 17.2254 79.6587 16.1218Z" fill="#144887"/>
<path id="Vector_21" d="M65.1314 53.7972L67.6521 55.5423C67.6521 55.5423 64.4528 58.9355 63.8711 58.3538C63.7028 58.1921 63.5721 57.9954 63.4883 57.7776C63.4045 57.5598 63.3697 57.3262 63.3864 57.0935L62.8047 55.7362L65.1314 53.7972Z" fill="#FFB8B8"/>
<path id="Vector_22" d="M81.887 53.42L81.03 54.7667C81.03 54.7667 78.5094 55.9301 79.0911 56.7057C79.6727 57.4813 84.5201 59.2263 85.4896 57.4813L86.4591 55.7362L81.887 53.42Z" fill="#FFB8B8"/>
<path id="Vector_23" d="M64.3558 23.3557L62.9986 23.5496L60.7688 37.9948C60.7688 37.9948 59.8963 40.6124 60.8657 46.817C61.8352 53.0216 62.7953 57.062 62.7953 57.062L67.0704 53.9911L65.1314 48.9498L67.6521 30.5298L64.3558 23.3557Z" fill="#144887"/>
<path id="Vector_24" d="M87.4292 20.2534L90.5316 20.6412C90.5316 20.6412 94.0217 24.3252 94.6034 28.2031C95.185 32.081 94.9912 43.133 94.9912 43.133L86.072 57.2874L81.2246 53.7972L88.0109 41.7758L84.7147 27.4275L87.4292 20.2534Z" fill="#144887"/>
<path id="Vector_25" d="M80.3549 3.39575C79.4167 1.87214 77.9481 0.749405 76.2317 0.243632L74.9711 1.25214L75.4612 0.075829C75.049 0.0129521 74.6319 -0.0111573 74.2152 0.00381665L73.0809 1.46215L73.5504 0.0537697C72.5662 0.17608 71.618 0.500996 70.7656 1.00803C69.9132 1.51506 69.1751 2.1932 68.5978 2.9997C67.1542 5.08128 66.9106 7.97608 68.3305 10.0739C68.7202 8.87613 69.1933 7.75219 69.5831 6.55438C69.8894 6.59613 70.1999 6.59765 70.5066 6.55887L70.9808 5.45238L71.1133 6.51207C72.5831 6.38401 74.7632 6.10288 76.1566 5.84529L76.0211 5.03236L76.8318 5.7079C77.2587 5.60961 77.5122 5.5205 77.4912 5.45238C78.5275 7.12306 79.5544 8.19016 80.5907 9.86083C80.9841 7.50429 81.6785 5.54546 80.3549 3.39575Z" fill="#2F2E41"/>
<path id="Vector_26" d="M80.0108 9.65263C80.2428 9.65263 80.4309 9.27653 80.4309 8.81258C80.4309 8.34864 80.2428 7.97253 80.0108 7.97253C79.7789 7.97253 79.5908 8.34864 79.5908 8.81258C79.5908 9.27653 79.7789 9.65263 80.0108 9.65263Z" fill="#FFB8B8"/>
<path id="Vector_27" d="M147.123 118.477C147.302 124.596 143.727 126.838 139.24 126.969C139.136 126.972 139.032 126.974 138.928 126.975C138.72 126.976 138.514 126.973 138.31 126.964C134.252 126.796 131.04 124.642 130.874 118.951C130.702 113.062 138.012 105.41 138.56 104.844L138.561 104.844C138.582 104.822 138.593 104.812 138.593 104.812C138.593 104.812 146.945 112.358 147.123 118.477Z" fill="#167CFB"/>
<path id="Vector_28" d="M138.916 126.042L141.766 121.803L138.922 126.498L138.928 126.975C138.72 126.976 138.514 126.973 138.31 126.964L138.451 120.834L138.447 120.786L138.453 120.777L138.466 120.198L135.345 115.666L138.462 119.764L138.473 119.887L138.58 115.255L135.884 110.556L138.588 114.441L138.56 104.844L138.56 104.812L138.561 104.844L138.74 112.407L141.197 109.335L138.748 113.059L138.801 117.202L141.062 113.158L138.81 117.811L138.839 120.115L142.128 114.482L138.849 120.919L138.916 126.042Z" fill="#3F3C61"/>
<path id="Vector_29" d="M43.1955 109.364C43.3742 115.483 39.7989 117.725 35.312 117.856C35.2078 117.859 35.104 117.861 35.0007 117.862C34.7927 117.863 34.5866 117.86 34.3826 117.851C30.3246 117.683 27.1125 115.529 26.9463 109.838C26.7744 103.949 34.084 96.2974 34.6324 95.7314L34.6334 95.7308C34.6542 95.7093 34.6649 95.6985 34.6649 95.6985C34.6649 95.6985 43.0168 103.245 43.1955 109.364Z" fill="#167CFB"/>
<path id="Vector_30" d="M34.9885 116.929L37.8387 112.69L34.9943 117.385L35.0003 117.862C34.7922 117.863 34.5861 117.86 34.3821 117.851L34.5234 111.721L34.5196 111.673L34.5248 111.664L34.5383 111.085L31.417 106.553L34.5346 110.651L34.5457 110.774L34.6525 106.142L31.9565 101.443L34.6602 105.328L34.6319 95.7314L34.632 95.6995L34.6329 95.7309L34.8119 103.294L37.269 100.222L34.8199 103.946L34.8736 108.089L37.1346 104.045L34.8819 108.698L34.9117 111.002L38.1998 105.369L34.9217 111.806L34.9885 116.929Z" fill="#3F3C61"/>
<path id="Vector_31" d="M120.854 127.103C120.959 130.695 118.86 132.011 116.227 132.088C116.165 132.09 116.105 132.091 116.044 132.091C115.922 132.092 115.801 132.09 115.681 132.085C113.299 131.986 111.414 130.722 111.316 127.382C111.215 123.925 115.506 119.434 115.828 119.101L115.828 119.101C115.841 119.088 115.847 119.082 115.847 119.082C115.847 119.082 120.749 123.512 120.854 127.103Z" fill="#167CFB"/>
<path id="Vector_32" d="M116.037 131.544L117.71 129.056L116.04 131.811L116.044 132.091C115.922 132.092 115.801 132.09 115.681 132.085L115.764 128.487L115.762 128.459L115.765 128.454L115.773 128.113L113.94 125.453L115.77 127.859L115.777 127.931L115.84 125.212L114.257 122.454L115.844 124.734L115.828 119.101L115.828 119.083L115.828 119.101L115.933 123.541L117.375 121.737L115.938 123.923L115.969 126.355L117.297 123.981L115.974 126.713L115.992 128.065L117.922 124.759L115.998 128.537L116.037 131.544Z" fill="#3F3C61"/>
<path id="Vector_33" d="M185.983 9.9249C185.989 9.90722 185.995 9.88932 186 9.87158C185.998 9.87936 185.995 9.88684 185.993 9.89464L185.983 9.9249Z" fill="#2F2E41"/>
<path id="Vector_34" d="M158.887 112.81L173.249 91.4528L158.917 115.107L158.947 117.51C157.898 117.518 156.86 117.501 155.832 117.458L156.544 86.5668L156.525 86.3284L156.551 86.2824L156.619 83.3634L140.892 60.529L156.6 81.1786L156.656 81.7956L157.194 58.456L143.61 34.782L157.233 54.356L157.091 6.00236L157.091 5.84143L157.096 5.99971L157.997 44.1088L170.378 28.6289L158.038 47.3919L158.308 68.2686L169.701 47.8937L158.35 71.3378L158.5 82.9463L175.068 54.5644L158.551 86.996L158.887 112.81Z" fill="#3F3C61"/>
<path id="Vector_35" d="M12.2455 111.982L22.018 97.4491L12.2655 113.545L12.2859 115.181C11.5724 115.186 10.8659 115.174 10.1664 115.145L10.6511 94.1243L10.6378 93.9621L10.6557 93.9308L10.7021 91.9444L0 76.4063L10.6894 90.4578L10.7274 90.8776L11.0935 74.9957L1.84977 58.8862L11.1198 72.2057L11.023 39.3025L11.0232 39.193L11.0264 39.3007L11.64 65.2329L20.0645 54.6992L11.6676 67.4669L11.8515 81.6729L19.6037 67.8083L11.8799 83.7614L11.9823 91.6606L23.2562 72.3475L12.0166 94.4163L12.2455 111.982Z" fill="#3F3C61"/>
</g>
<defs>
<clipPath id="clip0_874_1895">
<rect width="186" height="133.003" fill="white"/>
</clipPath>
</defs>
</svg>
