<svg width="392" height="270" viewBox="0 0 392 270" fill="none" xmlns="http://www.w3.org/2000/svg">
<g clip-path="url(#clip0_874_3585)">
<path d="M356.155 269.976L356.132 269.787C355.758 266.622 356.188 263.425 357.394 260.418C358.599 257.411 360.551 254.665 363.113 252.373C364.562 251.097 366.192 249.983 367.964 249.058L368.133 248.969L368.188 249.133C368.851 251.084 369.733 253.052 370.137 253.925L371.029 247.676L371.222 247.604C372.104 247.27 373.083 247.171 374.031 247.32C374.979 247.47 375.854 247.86 376.542 248.441C377.256 249.019 377.753 249.768 377.968 250.592C378.183 251.415 378.107 252.276 377.749 253.062C377.431 253.781 377.124 254.53 376.827 255.253C375.806 257.74 374.751 260.311 372.967 262.416C371.598 263.998 369.837 265.296 367.811 266.217C365.785 267.137 363.545 267.657 361.256 267.737L356.155 269.976Z" fill="#F2F2F2"/>
<path d="M172.796 267.737C170.507 267.657 168.268 267.137 166.242 266.217C164.216 265.296 162.454 263.998 161.086 262.416C159.301 260.311 158.246 257.74 157.226 255.253C156.929 254.53 156.622 253.781 156.303 253.062C155.946 252.276 155.869 251.415 156.085 250.592C156.3 249.768 156.796 249.019 157.51 248.441C158.199 247.86 159.073 247.47 160.022 247.32C160.97 247.171 161.948 247.27 162.831 247.604L163.023 247.676L163.915 253.925C164.319 253.052 165.201 251.084 165.864 249.133L165.92 248.969L166.089 249.058C167.861 249.983 169.491 251.097 170.94 252.373C173.502 254.665 175.453 257.411 176.659 260.418C177.864 263.425 178.295 266.622 177.92 269.787L177.897 269.976L172.796 267.737Z" fill="#F2F2F2"/>
<path d="M114.708 139.703C114.708 139.703 112.338 123.208 106.999 118.182L94.4326 122.373L104.355 144.174L124.433 165.981C124.534 166.79 124.882 167.561 125.442 168.217C126.001 168.873 126.752 169.389 127.618 169.714C128.484 170.039 129.435 170.161 130.373 170.068C131.312 169.974 132.205 169.668 132.962 169.182C133.719 168.695 134.313 168.044 134.683 167.296C135.054 166.547 135.188 165.728 135.071 164.921C134.955 164.113 134.593 163.347 134.021 162.699C133.45 162.051 132.69 161.545 131.817 161.232L114.708 139.703Z" fill="#A0616A"/>
<path d="M50.6578 148.896C50.6578 148.896 59.2532 134.014 58.0221 127.285L44.8565 124.809L39.1592 147.705L41.9267 175.431C41.4927 176.154 41.2884 176.962 41.3346 177.775C41.3808 178.588 41.6759 179.375 42.1899 180.058C42.7038 180.74 43.4185 181.294 44.2611 181.662C45.1038 182.029 46.0445 182.199 46.9878 182.153C47.9311 182.106 48.8433 181.846 49.6319 181.398C50.4205 180.95 51.0574 180.33 51.4779 179.602C51.8984 178.873 52.0876 178.062 52.0262 177.25C51.9648 176.438 51.655 175.655 51.1284 174.979L50.6578 148.896Z" fill="#A0616A"/>
<path d="M65.8626 262.937H72.0909L75.0536 242.251L65.8613 242.252L65.8626 262.937Z" fill="#9E616A"/>
<path d="M65.6439 268.531L84.7966 268.531V268.322C84.7965 266.62 84.011 264.987 82.613 263.784C81.215 262.58 79.3189 261.904 77.3418 261.903L73.8429 259.618L67.3155 261.904L65.6436 261.904L65.6439 268.531Z" fill="#2F2E41"/>
<path d="M82.9268 259.902L89.0018 261.084L97.1878 241.47L88.2211 239.726L82.9268 259.902Z" fill="#9E616A"/>
<path d="M81.2803 265.318L99.9621 268.952L100.016 268.749C100.451 267.088 100.103 265.347 99.0475 263.907C97.992 262.468 96.3158 261.448 94.3873 261.073L91.5595 258.18L84.6075 259.17L82.9767 258.853L81.2803 265.318Z" fill="#2F2E41"/>
<path d="M110.983 206.567C107.284 216.713 97.8233 243.643 97.8233 243.643C97.8233 243.643 89.7711 245.373 87.2309 243.643C84.6906 241.912 87.854 236.132 87.854 236.132C86.1793 229.656 89.9477 223.111 90.1922 216.833C89.6841 214.198 92.3773 211.936 92.6239 209.424C90.8436 208.257 82.1821 189.951 80.4158 184.835C81.3236 200.422 79.1308 223.792 76.6385 238.814C75.4588 245.925 73.8139 243.847 65.423 244.179C61.6817 243.222 62.3076 236.132 62.3076 236.132V230.23C60.4889 223.622 60.4649 222.194 61.0615 218.964C60.7881 215.535 57.3602 180.082 54.3184 168.083C52.2913 158.524 77.1346 156.42 84.2794 154.141C96.2014 149.195 94.1893 156.226 100.468 162.703C106.522 173.869 110.088 193.806 110.983 206.567Z" fill="#2F2E41"/>
<path d="M87.0645 102.915L81.0368 95.4963H70.4444L61.0982 103.007L60.3125 169.74L102.607 173.823L87.0645 102.915Z" fill="#167CFB"/>
<path d="M82.873 97.24L99.6555 103.853L102.844 146.463C102.844 146.463 105.535 151.937 105.749 152.476C105.974 153.041 106.422 155.832 106.228 156.296C105.633 157.794 105.332 159.366 105.336 160.949C105.482 162.163 106.988 164.331 107.382 165.504C107.654 166.313 105.959 168.996 105.959 168.996C106.655 169.897 107.112 170.919 107.298 171.989C107.484 173.059 107.395 174.151 107.038 175.188L106.582 176.507L97.8593 175.434L94.0984 159.513L93.7014 157.832L93.2907 156.093L92.9697 154.734L92.6843 153.526L92.4448 152.512L82.873 97.24Z" fill="#3F3D56"/>
<path d="M89.0635 105.999L99.6559 103.853C104.766 108.97 108.919 119.063 112.193 128.258C112.426 128.912 112.244 129.816 112.879 130.205C114.034 130.912 114.723 131.765 113.888 133.134C113.569 133.657 114.271 134.26 114.457 134.808C114.613 135.27 114.401 136.039 114.919 136.172C116.401 136.552 116.472 137.643 115.892 139.026L103.431 144.391L103.075 143.897L101.676 141.951L95.653 133.576L89.0635 105.999Z" fill="#3F3D56"/>
<path d="M67.9517 97.6423L58.5324 104.926C58.5324 104.926 56.3284 135.762 54.867 147.536C54.8048 148.037 55.6158 149.233 55.5537 149.734L55.1888 152.674L54.9142 154.886C54.8154 155.681 53.6208 163.631 53.6208 163.631L51.752 164.704C50.9572 167.775 51.4016 170.986 53.0118 173.81L54.2439 175.971L67.8786 174.67L67.9517 97.6423Z" fill="#3F3D56"/>
<path d="M62.3353 109.494L58.5324 104.926L46.6939 111.364C44.0815 117.586 41.2164 128.444 39.634 137.886C39.5982 138.099 39.7657 138.46 39.5286 138.524C38.6761 138.757 38.4185 139.126 39.3336 139.763C39.44 139.878 39.5187 140.009 39.565 140.15C39.6114 140.291 39.6244 140.439 39.6033 140.584C39.5822 140.73 39.5274 140.87 39.4422 140.997C39.357 141.124 39.2431 141.234 39.1073 141.323C38.1037 141.733 37.3323 142.139 38.9473 142.536C40.0831 142.816 38.7138 144.526 38.6301 145.464L52.3379 148.146C53.5904 147.836 53.828 147.204 53.1609 146.286C54.1932 146.018 54.5842 145.541 53.8618 144.702L54.2007 143.936C55.3522 143.783 55.3362 143.372 54.6934 142.822L55.1607 141.766L57.3225 136.88L62.3353 109.494Z" fill="#3F3D56"/>
<path d="M74.2453 93.4047C81.939 93.4047 88.1761 88.0344 88.1761 81.4097C88.1761 74.7851 81.939 69.4148 74.2453 69.4148C66.5515 69.4148 60.3145 74.7851 60.3145 81.4097C60.3145 88.0344 66.5515 93.4047 74.2453 93.4047Z" fill="#A0616A"/>
<path d="M60.1376 89.1387C60.1376 89.1387 63.2057 89.8631 64.9912 90.2664C64.8989 89.1223 64.3235 88.0514 64.0313 86.9323C63.7391 85.8131 63.8025 84.4969 64.7685 83.7067C65.7345 82.9165 67.7463 83.2244 67.9019 84.3614C68.7191 82.8568 69.538 81.3495 70.3585 79.8394C72.6983 83.9861 77.4816 80.4523 82.6972 81.5001C85.3579 82.0398 88.6926 81.8079 90.0983 79.7893C89.3084 79.2184 88.6428 78.5309 88.1329 77.7591C88.9436 77.9639 89.7871 78.0559 90.6315 78.0316C90.6122 77.3096 90.3918 76.602 89.9888 75.9686C89.5857 75.3351 89.0119 74.7943 88.3156 74.3916C87.5654 73.9693 89.4221 72.4667 88.7674 71.9378C87.4247 70.8583 86.5236 71.5913 85.7303 70.1684C85.2189 69.2885 84.4308 68.5498 83.4558 68.0366C82.4808 67.5233 81.358 67.256 80.2153 67.2651C77.9355 67.3111 73.8504 67.2921 72.9659 69.1006C70.1469 67.5117 66.2228 67.9606 63.4674 69.6274C61.177 71.0075 58.5705 75.179 57.9953 77.5339C57.42 79.8888 58.6877 87.0864 60.1376 89.1387Z" fill="#2F2E41"/>
<path d="M123.611 142.115C123.373 142.115 123.137 142.157 122.919 142.24C122.701 142.322 122.505 142.443 122.344 142.593C122.182 142.744 122.059 142.922 121.981 143.116C121.904 143.31 121.874 143.516 121.893 143.72C124.525 149.576 124.168 156.355 123.832 164.025C123.869 164.396 124.066 164.741 124.384 164.993C124.702 165.245 125.117 165.386 125.549 165.388H136.669C137.101 165.386 137.516 165.245 137.834 164.993C138.152 164.741 138.349 164.396 138.386 164.025C137.483 156.574 137.971 149.736 140.325 143.72C140.344 143.516 140.314 143.31 140.237 143.116C140.159 142.922 140.036 142.744 139.875 142.593C139.713 142.443 139.517 142.322 139.299 142.24C139.081 142.157 138.845 142.115 138.607 142.115H123.611Z" fill="#167CFB"/>
<path d="M141.215 144.821L140.385 141.428C140.31 141.12 140.113 140.843 139.829 140.644C139.545 140.446 139.19 140.337 138.823 140.337H133.645C133.624 140.278 133.591 140.223 133.547 140.174L132.972 139.554C132.918 139.496 132.849 139.449 132.771 139.417C132.692 139.384 132.607 139.367 132.52 139.367H129.322C129.236 139.367 129.15 139.384 129.072 139.417C128.993 139.449 128.925 139.496 128.87 139.554L128.295 140.174C128.251 140.223 128.218 140.278 128.198 140.337H123.394C123.028 140.337 122.673 140.446 122.389 140.644C122.104 140.843 121.908 141.12 121.833 141.428L121.003 144.821C120.954 145.021 120.958 145.228 121.013 145.427C121.069 145.626 121.176 145.811 121.325 145.97C121.475 146.129 121.664 146.257 121.878 146.345C122.093 146.433 122.327 146.479 122.565 146.479C127.863 148.819 133.55 148.876 139.653 146.479C139.89 146.479 140.125 146.433 140.339 146.345C140.554 146.257 140.743 146.129 140.892 145.97C141.042 145.811 141.149 145.626 141.204 145.427C141.26 145.228 141.264 145.021 141.215 144.821Z" fill="#3F3D56"/>
<path d="M282.255 146.537C281.983 145.643 281.018 142.913 279.791 144.119C279.609 144.298 279.465 143.723 279.296 143.511C279.003 143.146 278.826 141.584 278.516 141.172C277.886 140.334 277.104 140.582 276.464 139.61C274.632 136.832 272.922 133.659 272.286 130.979C270.336 122.771 273.021 111.548 273.021 111.548L272.152 95.5608L265.808 95.3771V95.0178C265.808 94.2962 265.475 93.6042 264.882 93.094C264.29 92.5838 263.486 92.2971 262.648 92.2971H250.564C249.761 92.2974 248.989 92.561 248.404 93.0343C247.819 93.5075 247.465 94.1549 247.415 94.8448L242.439 94.7008L233.822 118.273C233.822 118.273 237.843 127.171 239.262 135.807C239.647 138.136 239.74 140.494 239.54 142.84C239.348 145.219 238.807 147.567 237.93 149.829C237.93 149.829 274.484 156.42 281.632 150.292C281.632 150.292 282.743 148.143 282.255 146.537Z" fill="#3F3D56"/>
<path d="M329.06 148.255H320.424V28.563C319.826 28.1821 319.222 27.8066 318.611 27.4364C318.486 27.3666 318.368 27.2915 318.25 27.2218C314.571 25.0059 310.731 22.9952 306.754 21.2023C304.974 19.1494 303.025 17.2094 300.922 15.3974C294.721 10.059 287.257 5.9331 279.039 3.30029C270.82 0.667489 262.04 -0.410435 253.294 0.139833C244.549 0.690101 236.044 2.85565 228.357 6.4892C220.671 10.1228 213.983 15.1391 208.749 21.197C206.058 22.4094 203.436 23.7185 200.886 25.1241C200.643 25.2582 200.4 25.3924 200.163 25.5265C200.157 25.5319 200.151 25.5319 200.144 25.5372C199.703 25.786 199.34 26.1259 199.09 26.5259C198.84 26.926 198.71 27.3736 198.711 27.8281V148.255H186.437C181.016 148.255 176.337 152.07 176.361 156.737C176.366 157.802 176.605 158.856 177.066 159.844C177.243 160.232 177.458 160.607 177.707 160.965C178.026 161.434 178.395 161.876 178.81 162.285C179.729 163.187 180.86 163.909 182.129 164.404C183.398 164.899 184.776 165.155 186.169 165.155H329.328C331.923 165.152 334.41 164.265 336.248 162.688C338.086 161.111 339.124 158.971 339.135 156.737C339.16 152.07 334.481 148.255 329.06 148.255ZM284.516 148.255H234.252L227.323 65.8227H291.445L284.516 148.255Z" fill="#E6E6E6"/>
<path d="M292.621 117.637L314.102 101.159L320.439 103.862L294.676 127.129L292.621 117.637Z" fill="#FFB6B6"/>
<path d="M268.604 97.1974L272.153 95.5606C272.153 95.5606 280.895 94.9186 284.463 103.761L293.924 116.066L309.261 104.622L315.906 108.583L296.578 128.445L288.541 129.33L271.161 109.962L268.604 97.1974Z" fill="#3F3D56"/>
<path d="M274.387 83.0535C272.448 94.3716 262.795 95.5644 255.728 89.6559C248.335 83.4747 237.069 90.8326 237.069 83.0535C237.069 75.2744 241.15 61.4854 255.728 61.4854C270.809 61.4854 275.706 75.3577 274.387 83.0535Z" fill="#2F2E41"/>
<path d="M255.666 89.6431C262.6 89.6431 268.222 84.8029 268.222 78.8322C268.222 72.8614 262.6 68.0212 255.666 68.0212C248.732 68.0212 243.11 72.8614 243.11 78.8322C243.11 84.8029 248.732 89.6431 255.666 89.6431Z" fill="#FFB6B6"/>
<path d="M241.159 77.7715H246.125L248.316 72.4895L248.754 77.7715H251.128L252.406 74.6903L252.661 77.7715C256.283 80.5899 262.987 79.5587 270.298 77.7715C270.298 76.2686 269.954 74.7804 269.286 73.3919C268.618 72.0034 267.639 70.7418 266.405 69.6791C265.171 68.6164 263.705 67.7734 262.093 67.1983C260.48 66.6232 258.752 66.3271 257.007 66.3271H254.45C252.705 66.3271 250.977 66.6232 249.364 67.1983C247.752 67.7734 246.286 68.6164 245.052 69.6791C243.818 70.7418 242.839 72.0034 242.171 73.3919C241.503 74.7804 241.159 76.2686 241.159 77.7715Z" fill="#2F2E41"/>
<path d="M218.059 155.282C219.053 155.28 220.024 155.028 220.854 154.557C221.684 154.087 222.336 153.418 222.731 152.633C223.126 151.848 223.246 150.981 223.077 150.137C222.908 149.294 222.457 148.512 221.779 147.886L228.769 131.995L230.2 126.684C229.406 126.254 228.51 125.986 227.578 125.9C226.647 125.813 225.705 125.909 224.823 126.182C223.941 126.455 223.143 126.898 222.489 127.475C221.835 128.053 221.343 128.751 221.048 129.517L213.767 148.467C213.26 149.131 212.971 149.902 212.932 150.697C212.893 151.492 213.105 152.281 213.546 152.98C213.986 153.679 214.638 154.262 215.433 154.668C216.228 155.073 217.135 155.285 218.059 155.282Z" fill="#FFB6B6"/>
<path d="M302.684 85.3679C302.446 85.3679 302.211 85.4104 301.992 85.4928C301.774 85.5751 301.578 85.6955 301.417 85.8464C301.255 85.9972 301.132 86.1753 301.055 86.3692C300.977 86.5632 300.947 86.7689 300.967 86.9733C302.901 94.1558 303.721 100.98 302.905 107.278C302.943 107.649 303.14 107.994 303.457 108.246C303.775 108.498 304.191 108.639 304.623 108.641H315.742C316.174 108.639 316.59 108.498 316.907 108.246C317.225 107.994 317.422 107.649 317.46 107.278C316.841 100.464 317.495 93.6089 319.398 86.9733C319.417 86.7689 319.387 86.5632 319.31 86.3692C319.233 86.1753 319.109 85.9972 318.948 85.8464C318.786 85.6955 318.59 85.5751 318.372 85.4928C318.154 85.4104 317.918 85.3679 317.68 85.3679H302.684Z" fill="#167CFB"/>
<path d="M320.288 88.0741L319.458 84.6812C319.383 84.3726 319.187 84.0958 318.902 83.8971C318.618 83.6985 318.263 83.5901 317.897 83.5901H312.718C312.698 83.5309 312.665 83.4755 312.621 83.4268L312.045 82.8074C311.991 82.7491 311.922 82.7019 311.844 82.6695C311.766 82.6372 311.68 82.6204 311.593 82.6204H308.396C308.309 82.6204 308.223 82.6372 308.145 82.6695C308.067 82.7019 307.998 82.7491 307.944 82.8074L307.368 83.4268C307.324 83.4755 307.291 83.5309 307.271 83.5901H302.468C302.101 83.5901 301.746 83.6985 301.462 83.8971C301.178 84.0958 300.981 84.3726 300.906 84.6812L300.076 88.0741C300.027 88.2742 300.031 88.4812 300.087 88.68C300.142 88.8787 300.249 89.0643 300.399 89.2231C300.548 89.3819 300.737 89.5099 300.952 89.5979C301.166 89.6858 301.4 89.7314 301.638 89.7314C307.366 91.7875 313.068 92.1933 318.726 89.7314C318.964 89.7314 319.198 89.6858 319.413 89.5979C319.627 89.5099 319.816 89.3819 319.966 89.2231C320.115 89.0643 320.222 88.8787 320.278 88.68C320.333 88.4812 320.337 88.2742 320.288 88.0741Z" fill="#3F3D56"/>
<path d="M252.196 20.6184C252.036 20.6184 251.878 20.6469 251.732 20.7021C251.586 20.7572 251.455 20.8379 251.347 20.939C251.238 21.0401 251.156 21.1594 251.104 21.2894C251.052 21.4194 251.032 21.5572 251.045 21.6942L252.344 35.3005C252.369 35.5488 252.501 35.7801 252.714 35.9489C252.927 36.1178 253.205 36.2121 253.495 36.2134H260.946C261.235 36.2121 261.514 36.1178 261.727 35.9489C261.94 35.7801 262.072 35.5488 262.097 35.3005L263.396 21.6942C263.409 21.5572 263.389 21.4194 263.337 21.2894C263.285 21.1594 263.202 21.0401 263.094 20.939C262.986 20.8379 262.855 20.7572 262.708 20.7021C262.562 20.6469 262.404 20.6184 262.245 20.6184H252.196Z" fill="white"/>
<path d="M263.992 22.4319L263.436 20.1583C263.385 19.9516 263.254 19.7661 263.063 19.6329C262.873 19.4998 262.635 19.4272 262.389 19.4272H258.919C258.905 19.3875 258.883 19.3504 258.854 19.3177L258.468 18.9027C258.432 18.8636 258.386 18.832 258.333 18.8103C258.281 18.7886 258.223 18.7773 258.165 18.7773H256.023C255.964 18.7773 255.907 18.7886 255.855 18.8103C255.802 18.832 255.756 18.8636 255.72 18.9027L255.334 19.3177C255.305 19.3504 255.282 19.3875 255.269 19.4272H252.05C251.805 19.4272 251.567 19.4998 251.376 19.6329C251.186 19.7661 251.054 19.9516 251.004 20.1583L250.448 22.4319C250.415 22.566 250.417 22.7047 250.455 22.8379C250.492 22.9711 250.564 23.0955 250.664 23.2019C250.764 23.3083 250.891 23.3941 251.034 23.453C251.178 23.5119 251.335 23.5425 251.494 23.5425H262.945C263.104 23.5425 263.261 23.5119 263.405 23.453C263.549 23.3941 263.675 23.3083 263.776 23.2019C263.876 23.0955 263.947 22.9711 263.985 22.8379C264.022 22.7047 264.024 22.566 263.992 22.4319Z" fill="#CCCCCC"/>
<path d="M257.368 43.9927C253.302 43.9927 249.326 42.9544 245.945 41.009C242.564 39.0636 239.928 36.2986 238.372 33.0635C236.816 29.8285 236.408 26.2687 237.202 22.8344C237.995 19.4001 239.953 16.2455 242.829 13.7695C245.705 11.2935 249.368 9.6073 253.357 8.92418C257.346 8.24105 261.48 8.59165 265.237 9.93165C268.994 11.2717 272.205 13.5409 274.465 16.4523C276.724 19.3638 277.93 22.7868 277.93 26.2884C277.924 30.9822 275.756 35.4823 271.901 38.8014C268.046 42.1204 262.82 43.9874 257.368 43.9927ZM257.368 9.65698C253.548 9.65698 249.814 10.6324 246.637 12.4599C243.461 14.2874 240.985 16.8848 239.523 19.9238C238.061 22.9628 237.679 26.3068 238.424 29.533C239.169 32.7592 241.009 35.7226 243.71 38.0485C246.412 40.3745 249.853 41.9584 253.6 42.6002C257.347 43.2419 261.231 42.9125 264.76 41.6537C268.29 40.395 271.306 38.2633 273.429 35.5283C275.551 32.7932 276.684 29.5777 276.684 26.2884C276.678 21.879 274.641 17.6516 271.02 14.5337C267.399 11.4158 262.489 9.662 257.368 9.65698Z" fill="#F2F2F2"/>
<path d="M320.3 269.321H197.553L197.69 257.042L197.702 255.974L198.799 159.876H319.677L319.832 187.637L319.839 188.705L320.3 269.321Z" fill="#E6E6E6"/>
<path d="M391.258 269.835L0.741691 270C0.545301 270 0.357144 269.932 0.218476 269.812C0.0798083 269.693 0.00195312 269.53 0.00195312 269.361C0.00195312 269.192 0.0798083 269.03 0.218476 268.91C0.357144 268.791 0.545301 268.723 0.741691 268.723L391.258 268.558C391.455 268.558 391.643 268.625 391.783 268.745C391.922 268.865 392 269.027 392 269.196C392 269.366 391.922 269.528 391.783 269.648C391.643 269.768 391.455 269.835 391.258 269.835Z" fill="#CACACA"/>
<path d="M191.527 126.557C191.289 126.557 191.053 126.599 190.835 126.681C190.617 126.764 190.421 126.884 190.26 127.035C190.098 127.186 189.975 127.364 189.897 127.558C189.82 127.752 189.79 127.958 189.81 128.162C191.57 135.305 192.344 142.116 191.748 148.467C191.785 148.837 191.982 149.183 192.3 149.435C192.618 149.687 193.033 149.827 193.465 149.829H204.585C205.017 149.827 205.432 149.687 205.75 149.435C206.068 149.183 206.265 148.837 206.302 148.467C205.404 142.061 206.354 135.222 208.241 128.162C208.26 127.958 208.23 127.752 208.153 127.558C208.075 127.364 207.952 127.186 207.791 127.035C207.629 126.884 207.433 126.764 207.215 126.681C206.997 126.599 206.761 126.557 206.523 126.557H191.527Z" fill="#167CFB"/>
<path d="M209.131 129.263L208.301 125.87C208.226 125.561 208.029 125.285 207.745 125.086C207.461 124.887 207.106 124.779 206.739 124.779H201.561C201.54 124.72 201.507 124.664 201.463 124.615L200.888 123.996C200.834 123.938 200.765 123.891 200.687 123.858C200.608 123.826 200.523 123.809 200.436 123.809H197.238C197.152 123.809 197.066 123.826 196.988 123.858C196.909 123.891 196.841 123.938 196.786 123.996L196.211 124.615C196.167 124.664 196.134 124.72 196.114 124.779H191.31C190.944 124.779 190.589 124.887 190.305 125.086C190.02 125.285 189.824 125.561 189.749 125.87L188.919 129.263C188.87 129.463 188.874 129.67 188.929 129.869C188.985 130.067 189.092 130.253 189.241 130.412C189.391 130.571 189.58 130.699 189.794 130.787C190.009 130.875 190.243 130.92 190.481 130.92C196.047 132.401 202.003 132.401 207.569 130.92C207.807 130.92 208.041 130.875 208.255 130.787C208.47 130.699 208.659 130.571 208.808 130.412C208.958 130.253 209.065 130.067 209.12 129.869C209.176 129.67 209.18 129.463 209.131 129.263Z" fill="#3F3D56"/>
<path d="M256.559 204.405H199.422V205.478H256.559V204.405Z" fill="#F2F2F2"/>
<path d="M319.49 164.704H262.354V165.777H319.49V164.704Z" fill="#F2F2F2"/>
<path d="M287.713 238.741H230.576V239.814H287.713V238.741Z" fill="#F2F2F2"/>
<path d="M319.839 188.847H292.885V187.774H319.833L319.839 188.847Z" fill="#F2F2F2"/>
<path d="M205.192 157.193H178.237V156.12H205.186L205.192 157.193Z" fill="#F2F2F2"/>
<path d="M226.376 51.5037H199.422V50.4307H226.37L226.376 51.5037Z" fill="#F2F2F2"/>
<path d="M316.723 29.5073H289.769V28.4343H316.717L316.723 29.5073Z" fill="#F2F2F2"/>
<path d="M289.308 51.5037H262.354V50.4307H289.302L289.308 51.5037Z" fill="#F2F2F2"/>
<path d="M214.813 256.445V257.518H197.69L197.703 256.445H214.813Z" fill="#F2F2F2"/>
<path d="M318.175 107.895C320.998 107.895 323.287 105.925 323.287 103.494C323.287 101.063 320.998 99.092 318.175 99.092C315.351 99.092 313.062 101.063 313.062 103.494C313.062 105.925 315.351 107.895 318.175 107.895Z" fill="#FFB6B6"/>
<path d="M244.577 97.6376L242.439 94.7006C242.439 94.7006 235.481 93.2195 232.617 97.1892C229.752 101.159 214.339 143.854 214.339 143.854L223.062 146.537L239.885 113.405L244.577 97.6376Z" fill="#3F3D56"/>
</g>
<defs>
<clipPath id="clip0_874_3585">
<rect width="392" height="270" fill="white"/>
</clipPath>
</defs>
</svg>
