<svg width="391" height="261" viewBox="0 0 391 261" fill="none" xmlns="http://www.w3.org/2000/svg">
<g clip-path="url(#clip0_874_3489)">
<g opacity="0.1">
<path d="M287.476 257.15C291.649 257.15 295.032 252.06 295.032 245.782C295.032 239.503 291.649 234.414 287.476 234.414C283.302 234.414 279.919 239.503 279.919 245.782C279.919 252.06 283.302 257.15 287.476 257.15Z" fill="#3F3D56"/>
<path d="M293.455 197.147C294.514 195.035 295.063 192.636 295.046 190.199C295.046 183.907 291.663 178.83 287.489 178.83C283.316 178.83 279.936 183.919 279.936 190.199C279.915 192.635 280.459 195.033 281.513 197.147C280.479 199.269 279.936 201.661 279.936 204.094C279.936 206.526 280.479 208.918 281.513 211.04C280.479 213.163 279.936 215.555 279.936 217.988C279.936 220.421 280.479 222.814 281.513 224.937C280.459 227.05 279.915 229.449 279.936 231.885C279.936 238.177 283.319 243.254 287.489 243.254C291.659 243.254 295.046 238.165 295.046 231.885C295.067 229.449 294.523 227.05 293.469 224.937C294.503 222.814 295.046 220.421 295.046 217.988C295.046 215.555 294.503 213.163 293.469 211.04C294.503 208.918 295.046 206.526 295.046 204.094C295.046 201.661 294.503 199.269 293.469 197.147H293.455Z" fill="#3F3D56"/>
<path d="M287.476 187.674C291.649 187.674 295.032 182.584 295.032 176.306C295.032 170.027 291.649 164.938 287.476 164.938C283.302 164.938 279.919 170.027 279.919 176.306C279.919 182.584 283.302 187.674 287.476 187.674Z" fill="#3F3D56"/>
<path d="M287.476 173.777C291.649 173.777 295.032 168.687 295.032 162.409C295.032 156.13 291.649 151.041 287.476 151.041C283.302 151.041 279.919 156.13 279.919 162.409C279.919 168.687 283.302 173.777 287.476 173.777Z" fill="#3F3D56"/>
<path d="M315.759 67.3175C316.79 65.8062 317.729 64.2151 318.57 62.5554L298.73 58.8079L320.202 58.9928C322.26 53.841 323.382 48.2608 323.5 42.5935C323.617 36.9261 322.728 31.2908 320.886 26.032L292.076 43.2005L318.649 20.7627C316.159 15.8225 312.811 11.5244 308.813 8.13592C304.815 4.74744 300.254 2.34114 295.412 1.0668C290.57 -0.207538 285.552 -0.322643 280.67 0.728656C275.788 1.77995 271.147 3.97515 267.034 7.1776C262.922 10.3801 259.428 14.5212 256.768 19.3433C254.108 24.1654 252.341 29.5652 251.575 35.2065C250.809 40.8479 251.061 46.6101 252.316 52.1345C253.572 57.6588 255.802 62.827 258.87 67.3175C257.262 69.6685 255.879 72.2116 254.745 74.9029L280.514 90.294L253.038 79.6768C251.104 86.2303 250.624 93.2348 251.639 100.056C252.655 106.877 255.134 113.299 258.853 118.74C254.654 124.877 252.043 132.247 251.316 140.009C250.59 147.771 251.778 155.612 254.745 162.634C257.712 169.657 262.338 175.578 268.095 179.72C273.852 183.862 280.506 186.059 287.297 186.059C294.089 186.059 300.743 183.862 306.5 179.72C312.256 175.578 316.882 169.657 319.85 162.634C322.817 155.612 324.005 147.771 323.279 140.009C322.552 132.247 319.94 124.877 315.741 118.74C320.759 111.408 323.487 102.35 323.487 93.0211C323.487 83.6922 320.759 74.6341 315.741 67.3018L315.759 67.3175Z" fill="#167CFB"/>
<path opacity="0.1" d="M251.126 93.0389C251.113 102.37 253.842 111.432 258.871 118.756C254.672 124.892 252.06 132.263 251.334 140.025C250.607 147.787 251.795 155.628 254.763 162.65C257.73 169.672 262.356 175.593 268.113 179.736C273.869 183.878 280.523 186.075 287.315 186.075C294.106 186.075 300.761 183.878 306.517 179.736C312.274 175.593 316.9 169.672 319.867 162.65C322.834 155.628 324.023 147.787 323.296 140.025C322.57 132.263 319.958 124.892 315.759 118.756C320.61 111.678 251.126 88.3673 251.126 93.0389Z" fill="black"/>
</g>
<g opacity="0.1">
<path d="M75.5351 244.991C78.0743 244.991 80.1327 241.893 80.1327 238.071C80.1327 234.248 78.0743 231.15 75.5351 231.15C72.9959 231.15 70.9375 234.248 70.9375 238.071C70.9375 241.893 72.9959 244.991 75.5351 244.991Z" fill="#3F3D56"/>
<path d="M79.1919 208.464C79.8336 207.177 80.1654 205.716 80.1531 204.233C80.1531 200.411 78.1006 197.312 75.5521 197.312C73.0036 197.312 70.9545 200.411 70.9545 204.233C70.9411 205.716 71.2718 207.177 71.9124 208.464C71.2844 209.757 70.9548 211.213 70.9548 212.693C70.9548 214.174 71.2844 215.63 71.9124 216.923C71.2844 218.215 70.9548 219.671 70.9548 221.152C70.9548 222.632 71.2844 224.088 71.9124 225.381C71.2713 226.667 70.9406 228.126 70.9545 229.608C70.9545 233.434 73.007 236.533 75.5521 236.533C78.0972 236.533 80.1531 233.434 80.1531 229.608C80.166 228.126 79.8341 226.666 79.1919 225.381C79.8217 224.089 80.1525 222.633 80.1525 221.152C80.1525 219.671 79.8217 218.215 79.1919 216.923C79.8217 215.631 80.1525 214.174 80.1525 212.693C80.1525 211.212 79.8217 209.756 79.1919 208.464Z" fill="#3F3D56"/>
<path d="M75.5351 202.696C78.0743 202.696 80.1327 199.597 80.1327 195.775C80.1327 191.952 78.0743 188.854 75.5351 188.854C72.9959 188.854 70.9375 191.952 70.9375 195.775C70.9375 199.597 72.9959 202.696 75.5351 202.696Z" fill="#3F3D56"/>
<path d="M75.5351 194.237C78.0743 194.237 80.1327 191.138 80.1327 187.316C80.1327 183.494 78.0743 180.395 75.5351 180.395C72.9959 180.395 70.9375 183.494 70.9375 187.316C70.9375 191.138 72.9959 194.237 75.5351 194.237Z" fill="#3F3D56"/>
<path d="M58.3246 129.425C57.6967 128.505 57.1252 127.537 56.6142 126.526L68.7 124.246L55.629 124.36C54.3776 121.225 53.695 117.83 53.6226 114.382C53.5503 110.934 54.0898 107.505 55.2082 104.305L72.7331 114.769L56.5629 101.084C58.0795 98.0789 60.118 95.4643 62.5514 93.4034C64.9848 91.3425 67.7611 89.8792 70.7075 89.1046C73.654 88.33 76.7076 88.2607 79.6784 88.901C82.6492 89.5412 85.4736 90.8774 87.9759 92.8263C90.4781 94.7752 92.6048 97.2951 94.2235 100.229C95.8421 103.164 96.9183 106.449 97.3848 109.882C97.8514 113.315 97.6985 116.822 96.9356 120.184C96.1726 123.546 94.816 126.691 92.9502 129.425C93.929 130.854 94.7708 132.4 95.4611 134.037L79.7732 143.412L96.501 136.959C97.6758 140.95 97.9663 145.215 97.3463 149.367C96.7264 153.52 95.2154 157.429 92.9502 160.742C95.5059 164.477 97.0957 168.964 97.5378 173.689C97.9798 178.414 97.2563 183.187 95.45 187.462C93.6437 191.736 90.8274 195.34 87.3232 197.862C83.8189 200.384 79.7682 201.721 75.634 201.721C71.4998 201.721 67.449 200.384 63.9448 197.862C60.4405 195.34 57.6243 191.736 55.8179 187.462C54.0116 183.187 53.2881 178.414 53.7302 173.689C54.1722 168.964 55.762 164.477 58.3178 160.742C55.2638 156.277 53.6035 150.762 53.6035 145.083C53.6035 139.404 55.2638 133.889 58.3178 129.425H58.3246Z" fill="#167CFB"/>
<path opacity="0.1" d="M97.6637 145.083C97.671 150.764 96.0101 156.281 92.9498 160.742C95.5056 164.477 97.0953 168.964 97.5374 173.689C97.9795 178.414 97.256 183.187 95.4497 187.462C93.6433 191.736 90.8271 195.341 87.3228 197.862C83.8186 200.384 79.7678 201.721 75.6336 201.721C71.4994 201.721 67.4487 200.384 63.9444 197.862C60.4402 195.341 57.6239 191.736 55.8176 187.462C54.0113 183.187 53.2878 178.414 53.7298 173.689C54.1719 168.964 55.7617 164.477 58.3174 160.742C55.3652 156.451 97.6637 142.24 97.6637 145.083Z" fill="black"/>
</g>
<g opacity="0.1">
<path d="M179.186 251.016C182.585 251.016 185.34 246.87 185.34 241.755C185.34 236.641 182.585 232.495 179.186 232.495C175.787 232.495 173.032 236.641 173.032 241.755C173.032 246.87 175.787 251.016 179.186 251.016Z" fill="#3F3D56"/>
<path d="M184.057 202.133C184.915 200.41 185.358 198.456 185.34 196.471C185.34 191.359 182.603 187.21 179.182 187.21C175.762 187.21 173.025 191.359 173.025 196.471C173.007 198.456 173.451 200.411 174.311 202.133C173.468 203.862 173.025 205.811 173.025 207.794C173.025 209.776 173.468 211.725 174.311 213.454C173.468 215.183 173.025 217.131 173.025 219.113C173.025 221.095 173.468 223.043 174.311 224.772C173.451 226.493 173.007 228.448 173.025 230.434C173.025 235.546 175.782 239.695 179.182 239.695C182.583 239.695 185.34 235.546 185.34 230.434C185.358 228.449 184.915 226.494 184.057 224.772C184.898 223.042 185.34 221.094 185.34 219.113C185.34 217.132 184.898 215.183 184.057 213.454C184.898 211.724 185.34 209.776 185.34 207.794C185.34 205.812 184.898 203.863 184.057 202.133Z" fill="#3F3D56"/>
<path d="M179.186 194.414C182.585 194.414 185.34 190.268 185.34 185.153C185.34 180.039 182.585 175.893 179.186 175.893C175.787 175.893 173.032 180.039 173.032 185.153C173.032 190.268 175.787 194.414 179.186 194.414Z" fill="#3F3D56"/>
<path d="M179.186 183.093C182.585 183.093 185.34 178.947 185.34 173.832C185.34 168.718 182.585 164.572 179.186 164.572C175.787 164.572 173.032 168.718 173.032 173.832C173.032 178.947 175.787 183.093 179.186 183.093Z" fill="#3F3D56"/>
<path d="M156.161 96.3656C155.319 95.1357 154.554 93.8402 153.869 92.4883L170.039 89.4368L152.552 89.5862C150.874 85.3896 149.958 80.8435 149.861 76.2262C149.764 71.6089 150.488 67.0173 151.987 62.7324L175.454 76.7236L153.81 58.4383C155.833 54.3989 158.558 50.8822 161.815 48.1081C165.073 45.334 168.794 43.362 172.744 42.3154C176.695 41.2688 180.791 41.1701 184.777 42.0253C188.762 42.8806 192.551 44.6716 195.907 47.2863C199.263 49.9009 202.114 53.2832 204.282 57.2216C206.449 61.1601 207.887 65.5701 208.505 70.1761C209.123 74.7821 208.908 79.4851 207.874 83.9913C206.839 88.4975 205.007 92.71 202.492 96.3656C203.802 98.2816 204.928 100.354 205.851 102.547L184.861 115.083L207.244 106.432C208.816 111.773 209.205 117.48 208.375 123.036C207.546 128.593 205.524 133.824 202.492 138.257C205.912 143.255 208.04 149.26 208.631 155.583C209.223 161.906 208.255 168.293 205.837 174.013C203.42 179.734 199.651 184.557 194.962 187.931C190.273 191.306 184.852 193.095 179.32 193.095C173.787 193.095 168.366 191.306 163.677 187.931C158.988 184.557 155.219 179.734 152.802 174.013C150.385 168.293 149.416 161.906 150.008 155.583C150.599 149.26 152.727 143.255 156.147 138.257C152.061 132.282 149.839 124.903 149.839 117.303C149.839 109.703 152.061 102.324 156.147 96.3498L156.161 96.3656Z" fill="#167CFB"/>
<path opacity="0.1" d="M208.8 117.321C208.81 124.922 206.588 132.304 202.492 138.272C205.912 143.271 208.04 149.275 208.631 155.598C209.223 161.921 208.255 168.308 205.837 174.029C203.42 179.749 199.651 184.572 194.962 187.947C190.273 191.321 184.852 193.111 179.32 193.111C173.787 193.111 168.366 191.321 163.677 187.947C158.988 184.572 155.219 179.749 152.802 174.029C150.385 168.308 149.416 161.921 150.008 155.598C150.599 149.275 152.727 143.271 156.147 138.272C152.196 132.507 208.8 113.514 208.8 117.321Z" fill="black"/>
</g>
<path d="M391 250.182C391 252.884 373.821 255.353 345.418 257.26C340.252 257.602 334.717 257.929 328.847 258.236C323.775 258.498 318.459 258.745 312.899 258.979C307.513 259.199 301.92 259.403 296.12 259.592C277.805 260.194 257.557 260.626 236.047 260.843C230.827 260.898 225.537 260.94 220.178 260.969C214.595 260.997 208.949 261.011 203.238 261.008C99.5394 261.008 15.4795 256.167 15.4795 250.194C15.4795 244.221 99.5394 239.38 203.238 239.38C247.883 239.38 288.882 240.281 321.106 241.775L324.629 241.94H324.65C365.241 243.918 391 246.895 391 250.182Z" fill="#3F3D56"/>
<path opacity="0.15" d="M391 250.182C391 252.884 373.821 255.353 345.418 257.26C340.252 257.602 334.717 257.929 328.847 258.236C323.775 258.498 318.459 258.745 312.899 258.979C307.513 259.199 301.92 259.403 296.12 259.592C277.805 260.194 257.557 260.626 236.047 260.843C230.827 260.898 225.537 260.94 220.178 260.969C214.595 260.997 208.949 261.011 203.238 261.008C99.5394 261.008 15.4795 256.167 15.4795 250.194C15.4795 244.221 99.5394 239.38 203.238 239.38C247.883 239.38 288.882 240.281 321.106 241.775L324.629 241.94H324.65C365.241 243.918 391 246.895 391 250.182Z" fill="black"/>
<path d="M375.521 248.279C375.521 250.536 358.341 252.605 329.938 254.178C324.776 254.465 319.238 254.736 313.371 254.992C308.297 255.212 302.981 255.419 297.423 255.613C292.037 255.796 286.444 255.968 280.644 256.128C262.326 256.631 242.078 256.993 220.568 257.174C215.352 257.219 210.062 257.253 204.699 257.276C199.116 257.3 193.47 257.312 187.762 257.312C84.0633 257.312 0 253.265 0 248.267C0 243.269 84.0633 239.223 187.762 239.223C232.404 239.223 273.402 239.974 305.627 241.224L309.15 241.362H309.174C349.779 243.041 375.521 245.515 375.521 248.279Z" fill="#3F3D56"/>
<path d="M48.4932 166.121L43.7793 149.53L156.666 148.111L161.291 164.536L48.4932 166.121Z" fill="#3F3D56"/>
<path opacity="0.15" d="M48.4932 166.121L43.7793 149.53L156.666 148.111L161.291 164.536L48.4932 166.121Z" fill="black"/>
<path d="M40.9678 166.121L36.2539 149.53L149.141 148.111L153.766 164.536L40.9678 166.121Z" fill="#3F3D56"/>
<path d="M233.68 140.628C222.008 140.628 212.809 135.302 206.084 124.651C199.359 113.999 195.996 101.096 195.996 85.941C195.996 70.6836 199.248 57.8065 205.752 47.3099C212.256 36.8132 221.431 31.5701 233.276 31.5806C245.837 31.5806 255.302 37.1107 261.669 48.171C268.036 59.2314 271.221 72.0324 271.223 86.5741C271.223 101.011 267.928 113.631 261.337 124.434C254.746 135.238 245.527 140.636 233.68 140.628ZM234.022 128.646C241.701 128.646 247.44 124.799 251.239 117.105C255.038 109.41 256.938 99.7107 256.938 88.0055C256.938 74.9764 254.994 64.308 251.106 56.0003C247.217 47.6926 241.254 43.5375 233.215 43.5348C217.935 43.5348 210.295 57.4867 210.295 85.3905C210.295 114.23 218.202 128.649 234.015 128.646H234.022ZM237.867 243.387H220.985L331.505 33.7158H348.069L237.867 243.387ZM335.641 245.538C323.793 245.538 314.557 240.164 307.932 229.416C301.307 218.667 297.981 205.763 297.954 190.702C297.954 175.547 301.183 162.721 307.641 152.224C314.1 141.728 323.297 136.484 335.234 136.495C347.706 136.495 357.104 142.025 363.428 153.085C369.752 164.146 372.915 176.945 372.918 191.485C372.918 205.827 369.644 218.424 363.096 229.274C356.549 240.125 347.395 245.546 335.634 245.538H335.641ZM335.839 233.25C343.481 233.25 349.19 229.468 352.964 221.905C356.738 214.342 358.625 204.681 358.625 192.924C358.625 180.34 356.715 169.787 352.896 161.265C349.076 152.742 343.125 148.474 335.042 148.461C319.674 148.461 311.989 162.413 311.989 190.317C311.985 218.941 319.932 233.252 335.832 233.25H335.839Z" fill="#3F3D56"/>
<path d="M233.68 140.628C222.008 140.628 212.809 135.302 206.084 124.651C199.359 113.999 195.996 101.096 195.996 85.941C195.996 70.6836 199.248 57.8065 205.752 47.3099C212.256 36.8132 221.431 31.5701 233.276 31.5806C245.837 31.5806 255.302 37.1107 261.669 48.171C268.036 59.2314 271.221 72.0324 271.223 86.5741C271.223 101.011 267.928 113.631 261.337 124.434C254.746 135.238 245.527 140.636 233.68 140.628ZM234.022 128.646C241.701 128.646 247.44 124.799 251.239 117.105C255.038 109.41 256.938 99.7107 256.938 88.0055C256.938 74.9764 254.994 64.308 251.106 56.0003C247.217 47.6926 241.254 43.5375 233.215 43.5348C217.935 43.5348 210.295 57.4867 210.295 85.3905C210.295 114.23 218.202 128.649 234.015 128.646H234.022ZM237.867 243.387H220.985L331.505 33.7158H348.069L237.867 243.387ZM335.641 245.538C323.793 245.538 314.557 240.164 307.932 229.416C301.307 218.667 297.981 205.763 297.954 190.702C297.954 175.547 301.183 162.721 307.641 152.224C314.1 141.728 323.297 136.484 335.234 136.495C347.706 136.495 357.104 142.025 363.428 153.085C369.752 164.146 372.915 176.945 372.918 191.485C372.918 205.827 369.644 218.424 363.096 229.274C356.549 240.125 347.395 245.546 335.634 245.538H335.641ZM335.839 233.25C343.481 233.25 349.19 229.468 352.964 221.905C356.738 214.342 358.625 204.681 358.625 192.924C358.625 180.34 356.715 169.787 352.896 161.265C349.076 152.742 343.125 148.474 335.042 148.461C319.674 148.461 311.989 162.413 311.989 190.317C311.985 218.941 319.932 233.252 335.832 233.25H335.839Z" fill="#3F3D56"/>
<path opacity="0.15" d="M233.68 140.628C222.008 140.628 212.809 135.302 206.084 124.651C199.359 113.999 195.996 101.096 195.996 85.941C195.996 70.6836 199.248 57.8065 205.752 47.3099C212.256 36.8132 221.431 31.5701 233.276 31.5806C245.837 31.5806 255.302 37.1107 261.669 48.171C268.036 59.2314 271.221 72.0324 271.223 86.5741C271.223 101.011 267.928 113.631 261.337 124.434C254.746 135.238 245.527 140.636 233.68 140.628ZM234.022 128.646C241.701 128.646 247.44 124.799 251.239 117.105C255.038 109.41 256.938 99.7107 256.938 88.0055C256.938 74.9764 254.994 64.308 251.106 56.0003C247.217 47.6926 241.254 43.5375 233.215 43.5348C217.935 43.5348 210.295 57.4867 210.295 85.3905C210.295 114.23 218.202 128.649 234.015 128.646H234.022ZM237.867 243.387H220.985L331.505 33.7158H348.069L237.867 243.387ZM335.641 245.538C323.793 245.538 314.557 240.164 307.932 229.416C301.307 218.667 297.981 205.763 297.954 190.702C297.954 175.547 301.183 162.721 307.641 152.224C314.1 141.728 323.297 136.484 335.234 136.495C347.706 136.495 357.104 142.025 363.428 153.085C369.752 164.146 372.915 176.945 372.918 191.485C372.918 205.827 369.644 218.424 363.096 229.274C356.549 240.125 347.395 245.546 335.634 245.538H335.641ZM335.839 233.25C343.481 233.25 349.19 229.468 352.964 221.905C356.738 214.342 358.625 204.681 358.625 192.924C358.625 180.34 356.715 169.787 352.896 161.265C349.076 152.742 343.125 148.474 335.042 148.461C319.674 148.461 311.989 162.413 311.989 190.317C311.985 218.941 319.932 233.252 335.832 233.25H335.839Z" fill="black"/>
<path d="M223.075 140.628C211.404 140.628 202.205 135.302 195.48 124.651C188.754 113.999 185.392 101.096 185.392 85.941C185.392 70.6836 188.644 57.8065 195.148 47.3099C201.652 36.8132 210.827 31.5701 222.672 31.5806C235.233 31.5806 244.697 37.1107 251.065 48.171C257.432 59.2314 260.617 72.0324 260.619 86.5741C260.619 101.011 257.324 113.631 250.733 124.434C244.142 135.238 234.923 140.636 223.075 140.628ZM223.417 128.646C231.096 128.646 236.835 124.799 240.634 117.105C244.434 109.41 246.334 99.7107 246.334 88.0055C246.334 74.9764 244.389 64.308 240.501 56.0003C236.613 47.6926 230.649 43.5375 222.61 43.5348C207.33 43.5348 199.691 57.4867 199.691 85.3905C199.691 114.23 207.597 128.649 223.411 128.646H223.417ZM227.262 243.387H210.381L320.901 33.7158H337.464L227.262 243.387ZM325.036 245.538C313.189 245.538 303.953 240.164 297.328 229.416C290.703 218.667 287.377 205.763 287.349 190.702C287.349 175.547 290.578 162.721 297.037 152.224C303.495 141.728 312.693 136.484 324.629 136.495C337.102 136.495 346.5 142.025 352.824 153.085C359.148 164.146 362.311 176.945 362.313 191.485C362.313 205.827 359.039 218.424 352.492 229.274C345.944 240.125 336.79 245.546 325.03 245.538H325.036ZM325.235 233.25C332.877 233.25 338.585 229.468 342.359 221.905C346.134 214.342 348.021 204.681 348.021 192.924C348.021 180.34 346.111 169.787 342.291 161.265C338.471 152.742 332.518 148.474 324.431 148.461C309.062 148.461 301.378 162.413 301.378 190.317C301.378 218.941 309.328 233.252 325.228 233.25H325.235Z" fill="#3F3D56"/>
<path d="M260.007 248.649C261.416 245.644 259.815 241.964 257.975 239.282C256.134 236.6 253.89 233.816 253.938 230.399C254.007 225.495 258.536 222.597 262.148 219.994C264.835 218.064 267.313 215.776 269.53 213.175C270.459 212.173 271.227 210.991 271.798 209.683C272.548 207.764 272.524 205.582 272.483 203.482C272.325 196.477 272.024 189.483 271.579 182.499" stroke="#3F3D56" stroke-width="4" stroke-miterlimit="10"/>
<path d="M278.462 182.114C278.41 180.832 278.079 179.586 277.499 178.491C276.918 177.396 276.107 176.486 275.14 175.845L273.649 179.235L273.693 175.13C272.982 174.891 272.241 174.789 271.5 174.827C270.185 174.898 268.918 175.415 267.859 176.314C266.8 177.213 265.996 178.453 265.55 179.876C265.103 181.3 265.034 182.844 265.351 184.313C265.668 185.782 266.357 187.11 267.33 188.129C268.304 189.148 269.518 189.812 270.82 190.038C272.122 190.263 273.453 190.04 274.644 189.396C275.836 188.752 276.834 187.717 277.514 186.42C278.193 185.124 278.523 183.625 278.462 182.114Z" fill="#167CFB"/>
<path d="M266.592 233.918C265.893 235.478 264.75 236.715 263.352 237.421C261.955 238.126 260.389 238.258 258.917 237.794C257.445 237.33 256.156 236.299 255.267 234.872C254.378 233.446 253.943 231.712 254.034 229.96C254.126 228.209 254.738 226.547 255.769 225.253C256.8 223.959 258.187 223.112 259.696 222.853C261.206 222.595 262.747 222.941 264.061 223.834C265.375 224.726 266.382 226.111 266.913 227.756L262.754 231.645L267.338 230.418C267.336 231.637 267.08 232.837 266.592 233.918Z" fill="#167CFB"/>
<path d="M263.304 219.05C262.431 219.097 261.558 218.946 260.736 218.605C259.913 218.264 259.157 217.741 258.511 217.064C257.864 216.388 257.34 215.571 256.968 214.662C256.596 213.752 256.384 212.767 256.343 211.763C256.291 210.565 256.488 209.369 256.918 208.275C257.315 207.253 257.903 206.344 258.64 205.611C259.376 204.877 260.243 204.339 261.18 204.032L261.142 207.178L262.651 203.749C264.415 203.654 266.139 204.369 267.445 205.735C268.75 207.102 269.53 209.008 269.612 211.036C269.695 213.063 269.074 215.045 267.885 216.546C266.696 218.047 265.037 218.943 263.274 219.038L263.304 219.05Z" fill="#167CFB"/>
<path d="M279.464 206.691C278.58 206.758 277.694 206.622 276.856 206.291C276.019 205.96 275.247 205.44 274.587 204.762C273.926 204.084 273.39 203.262 273.009 202.342C272.628 201.423 272.411 200.426 272.37 199.409C272.328 198.392 272.464 197.376 272.768 196.42C273.072 195.464 273.54 194.587 274.142 193.841C274.745 193.095 275.471 192.495 276.278 192.076C277.085 191.656 277.956 191.426 278.841 191.398C280.085 191.328 281.321 191.665 282.406 192.369L281.229 196.073L283.651 193.403C284.951 194.765 285.727 196.665 285.81 198.684C285.84 199.393 285.782 200.103 285.639 200.792C285.307 202.414 284.526 203.867 283.411 204.931C282.297 205.996 280.911 206.613 279.464 206.691Z" fill="#167CFB"/>
<path opacity="0.1" d="M277.565 184.154C276.029 184.347 274.538 184.898 272.995 185.008C271.452 185.118 269.759 184.693 268.784 183.313C268.257 182.574 267.997 181.634 267.553 180.824C267.133 180.07 266.557 179.447 265.876 179.011C265.449 179.981 265.206 181.044 265.165 182.131C265.123 183.217 265.283 184.301 265.634 185.31C265.986 186.32 266.52 187.232 267.202 187.985C267.884 188.739 268.697 189.316 269.589 189.68C270.48 190.044 271.429 190.185 272.371 190.094C273.314 190.003 274.229 189.682 275.055 189.153C275.881 188.624 276.6 187.899 277.163 187.025C277.726 186.152 278.121 185.15 278.321 184.088C278.068 184.103 277.818 184.123 277.565 184.154Z" fill="black"/>
<path opacity="0.1" d="M279.464 206.691C278.317 206.751 277.176 206.469 276.151 205.873C275.127 205.277 274.254 204.386 273.617 203.288C272.979 202.19 272.6 200.921 272.515 199.605C272.43 198.288 272.643 196.969 273.132 195.775C273.66 196.186 274.114 196.709 274.47 197.316C274.945 198.138 275.233 199.09 275.79 199.845C276.816 201.248 278.599 201.705 280.203 201.622C281.807 201.539 283.361 201.013 284.961 200.836C285.184 200.812 285.41 200.796 285.646 200.788C285.315 202.412 284.532 203.867 283.417 204.932C282.301 205.997 280.913 206.615 279.464 206.691Z" fill="black"/>
<path opacity="0.1" d="M263.304 219.05C262.431 219.097 261.558 218.946 260.736 218.605C259.913 218.264 259.157 217.741 258.511 217.064C257.864 216.388 257.34 215.571 256.968 214.662C256.596 213.752 256.384 212.767 256.343 211.763C256.291 210.565 256.488 209.369 256.918 208.275C257.467 208.696 257.943 209.229 258.324 209.848C258.84 210.686 259.165 211.653 259.771 212.428C260.893 213.863 262.781 214.37 264.481 214.323C266.181 214.276 267.717 213.82 269.356 213.674C268.95 215.177 268.151 216.498 267.068 217.46C265.985 218.422 264.671 218.977 263.304 219.05Z" fill="black"/>
<path opacity="0.1" d="M266.592 233.918C265.817 235.668 264.487 237.009 262.877 237.663C261.266 238.317 259.498 238.235 257.939 237.432C256.38 236.63 255.149 235.17 254.501 233.353C253.852 231.537 253.836 229.504 254.455 227.674C255.003 228.088 255.495 228.593 255.915 229.172C256.548 230.061 256.966 231.067 257.698 231.893C259.066 233.427 261.255 234.06 263.212 234.119C264.341 234.129 265.47 234.062 266.592 233.918Z" fill="black"/>
<path d="M362.974 248.255C364.383 245.251 362.782 241.57 360.942 238.888C359.101 236.207 356.857 233.423 356.905 230.005C356.973 225.102 361.503 222.204 365.115 219.6C367.802 217.671 370.28 215.382 372.497 212.782C373.426 211.78 374.194 210.598 374.765 209.29C375.514 207.371 375.49 205.188 375.449 203.089C375.292 196.084 374.991 189.09 374.546 182.106" stroke="#3F3D56" stroke-width="4" stroke-miterlimit="10"/>
<path d="M381.429 181.721C381.377 180.439 381.046 179.193 380.465 178.098C379.885 177.003 379.074 176.093 378.107 175.452L376.616 178.842L376.66 174.737C375.949 174.498 375.208 174.395 374.467 174.434C373.152 174.505 371.885 175.022 370.826 175.921C369.766 176.82 368.963 178.06 368.516 179.483C368.07 180.907 368.001 182.451 368.318 183.92C368.635 185.389 369.324 186.717 370.297 187.736C371.271 188.755 372.485 189.419 373.787 189.645C375.089 189.87 376.42 189.647 377.611 189.003C378.803 188.359 379.801 187.324 380.481 186.027C381.16 184.731 381.49 183.232 381.429 181.721Z" fill="#167CFB"/>
<path d="M369.559 233.525C368.86 235.085 367.716 236.322 366.319 237.027C364.921 237.733 363.355 237.865 361.883 237.401C360.411 236.937 359.123 235.905 358.234 234.479C357.345 233.053 356.91 231.318 357.001 229.567C357.093 227.815 357.705 226.153 358.736 224.859C359.767 223.565 361.153 222.718 362.663 222.46C364.173 222.201 365.714 222.548 367.028 223.44C368.342 224.333 369.349 225.718 369.88 227.363L365.721 231.252L370.304 230.025C370.303 231.243 370.047 232.443 369.559 233.525Z" fill="#167CFB"/>
<path d="M366.271 218.657C365.398 218.704 364.525 218.553 363.703 218.212C362.88 217.871 362.124 217.347 361.478 216.671C360.831 215.994 360.307 215.178 359.935 214.268C359.563 213.359 359.351 212.374 359.31 211.37C359.258 210.171 359.455 208.976 359.885 207.882C360.282 206.86 360.87 205.95 361.606 205.217C362.343 204.484 363.21 203.945 364.147 203.639L364.109 206.785L365.618 203.356H365.635C366.508 203.309 367.381 203.46 368.204 203.801C369.026 204.142 369.782 204.665 370.428 205.342C371.075 206.019 371.599 206.835 371.971 207.744C372.343 208.654 372.555 209.639 372.596 210.643C372.637 211.646 372.506 212.65 372.209 213.595C371.913 214.541 371.457 215.41 370.869 216.153C370.28 216.896 369.57 217.498 368.779 217.926C367.988 218.354 367.131 218.598 366.258 218.645L366.271 218.657Z" fill="#167CFB"/>
<path d="M382.431 206.297C381.547 206.365 380.661 206.229 379.823 205.898C378.986 205.567 378.214 205.047 377.554 204.369C376.893 203.691 376.357 202.868 375.976 201.949C375.595 201.03 375.378 200.033 375.336 199.016C375.295 197.999 375.43 196.983 375.735 196.027C376.039 195.071 376.506 194.194 377.109 193.448C377.712 192.702 378.438 192.102 379.244 191.682C380.051 191.263 380.923 191.032 381.808 191.005C383.052 190.935 384.288 191.272 385.373 191.976L384.196 195.68L386.618 193.01C387.918 194.372 388.694 196.272 388.776 198.291C388.807 199 388.749 199.709 388.605 200.399C388.274 202.02 387.492 203.473 386.378 204.538C385.264 205.602 383.878 206.22 382.431 206.297Z" fill="#167CFB"/>
<path opacity="0.1" d="M380.532 183.761C378.996 183.954 377.505 184.505 375.962 184.615C374.419 184.725 372.726 184.3 371.751 182.92C371.224 182.181 370.964 181.241 370.519 180.431C370.099 179.677 369.523 179.054 368.843 178.618C368.416 179.588 368.173 180.651 368.131 181.738C368.09 182.824 368.25 183.908 368.601 184.917C368.952 185.927 369.487 186.839 370.169 187.592C370.851 188.345 371.664 188.923 372.556 189.287C373.447 189.65 374.396 189.792 375.338 189.701C376.281 189.61 377.195 189.289 378.022 188.76C378.848 188.231 379.567 187.505 380.13 186.632C380.693 185.759 381.088 184.757 381.288 183.695C381.035 183.71 380.785 183.73 380.532 183.761Z" fill="black"/>
<path opacity="0.1" d="M382.431 206.297C381.284 206.358 380.143 206.076 379.118 205.48C378.094 204.884 377.22 203.993 376.583 202.895C375.946 201.797 375.567 200.528 375.482 199.211C375.397 197.895 375.61 196.576 376.099 195.381C376.626 195.792 377.08 196.315 377.437 196.923C377.912 197.745 378.199 198.696 378.757 199.451C379.783 200.855 381.566 201.311 383.17 201.229C384.774 201.146 386.327 200.619 387.928 200.442C388.151 200.419 388.376 200.403 388.612 200.395C388.282 202.018 387.499 203.473 386.383 204.539C385.268 205.604 383.88 206.222 382.431 206.297Z" fill="black"/>
<path opacity="0.1" d="M366.271 218.657C365.398 218.704 364.525 218.553 363.703 218.212C362.88 217.871 362.124 217.347 361.478 216.671C360.831 215.994 360.307 215.178 359.935 214.268C359.563 213.359 359.351 212.374 359.31 211.37C359.258 210.171 359.455 208.976 359.885 207.882C360.433 208.302 360.91 208.836 361.291 209.455C361.807 210.293 362.132 211.26 362.738 212.035C363.86 213.47 365.748 213.977 367.448 213.93C369.097 213.891 370.684 213.427 372.323 213.281C371.917 214.783 371.118 216.105 370.035 217.067C368.952 218.029 367.638 218.584 366.271 218.657Z" fill="black"/>
<path opacity="0.1" d="M369.559 233.525C368.784 235.275 367.454 236.616 365.843 237.27C364.233 237.924 362.465 237.841 360.906 237.039C359.347 236.237 358.116 234.777 357.467 232.96C356.819 231.144 356.802 229.11 357.422 227.28C357.97 227.695 358.462 228.2 358.882 228.778C359.515 229.667 359.932 230.674 360.665 231.5C362.033 233.033 364.222 233.666 366.179 233.725C367.308 233.736 368.437 233.669 369.559 233.525Z" fill="black"/>
<path d="M37.6046 243.143C36.1953 240.139 37.7962 236.458 39.6366 233.777C41.477 231.095 43.7211 228.311 43.6732 224.894C43.6048 219.99 39.0756 217.092 35.4632 214.489C32.7766 212.559 30.2985 210.27 28.0811 207.67C27.1525 206.668 26.3847 205.486 25.8131 204.178C25.0639 202.259 25.0879 200.077 25.1289 197.977C25.2863 190.972 25.5873 183.978 26.032 176.994" stroke="#3F3D56" stroke-width="4" stroke-miterlimit="10"/>
<path d="M19.1498 176.608C19.2013 175.327 19.5325 174.081 20.113 172.986C20.6935 171.89 21.5046 170.981 22.4715 170.34L23.9629 173.73L23.9185 169.625C24.6299 169.386 25.3708 169.283 26.1112 169.322C27.4263 169.393 28.6937 169.91 29.7529 170.809C30.8122 171.708 31.6158 172.948 32.0622 174.371C32.5085 175.795 32.5776 177.339 32.2606 178.808C31.9436 180.277 31.2549 181.605 30.2814 182.624C29.3079 183.643 28.0935 184.307 26.7916 184.533C25.4897 184.758 24.1589 184.535 22.9674 183.891C21.7759 183.247 20.7773 182.212 20.0978 180.915C19.4182 179.619 19.0884 178.12 19.1498 176.608Z" fill="#167CFB"/>
<path d="M31.0202 228.413C31.7186 229.973 32.8625 231.209 34.26 231.915C35.6574 232.621 37.2235 232.753 38.6955 232.289C40.1675 231.825 41.456 230.793 42.3449 229.367C43.2338 227.941 43.6691 226.206 43.5777 224.455C43.4863 222.703 42.8738 221.041 41.8429 219.747C40.8121 218.453 39.4255 217.606 37.9158 217.348C36.4061 217.089 34.865 217.436 33.5509 218.328C32.2369 219.221 31.2298 220.606 30.6986 222.251L34.8583 226.14L30.2744 224.913C30.2763 226.131 30.532 227.331 31.0202 228.413Z" fill="#167CFB"/>
<path d="M34.3075 213.545C35.1808 213.592 36.0536 213.441 36.8761 213.1C37.6986 212.759 38.4547 212.235 39.1011 211.559C39.7475 210.882 40.2717 210.066 40.6436 209.156C41.0156 208.247 41.228 207.262 41.2688 206.258C41.3206 205.059 41.1237 203.864 40.6942 202.77C40.2965 201.748 39.7088 200.838 38.9724 200.105C38.236 199.372 37.3688 198.833 36.4318 198.527L36.4694 201.673L34.9608 198.244C33.1971 198.149 31.4729 198.863 30.1674 200.23C28.8618 201.596 28.082 203.503 27.9995 205.531C27.9169 207.558 28.5384 209.54 29.7271 211.041C30.9159 212.542 32.5746 213.438 34.3383 213.533L34.3075 213.545Z" fill="#167CFB"/>
<path d="M18.1474 201.185C19.0311 201.253 19.9176 201.117 20.755 200.786C21.5925 200.455 22.3641 199.935 23.0247 199.257C23.6853 198.579 24.2216 197.756 24.6023 196.837C24.983 195.918 25.2004 194.921 25.2418 193.904C25.2832 192.887 25.1477 191.871 24.8434 190.915C24.539 189.959 24.0719 189.082 23.4693 188.336C22.8666 187.59 22.1406 186.99 21.3337 186.57C20.5269 186.151 19.6553 185.92 18.77 185.893C17.5316 185.827 16.3022 186.163 15.2226 186.864L16.3994 190.568L13.9603 187.91C12.6629 189.269 11.8868 191.164 11.8018 193.179C11.7715 193.888 11.8291 194.597 11.9728 195.287C12.3039 196.908 13.0858 198.361 14.2001 199.426C15.3144 200.49 16.7002 201.108 18.1474 201.185Z" fill="#167CFB"/>
<path opacity="0.1" d="M20.046 178.649C21.582 178.842 23.0735 179.393 24.6163 179.503C26.1591 179.613 27.8524 179.188 28.8273 177.808C29.3541 177.069 29.6141 176.129 30.0588 175.319C30.4788 174.565 31.0546 173.942 31.735 173.506C32.1623 174.476 32.4049 175.539 32.4466 176.626C32.4884 177.712 32.3282 178.796 31.977 179.805C31.6257 180.815 31.0913 181.726 30.4094 182.48C29.7276 183.233 28.9138 183.811 28.0225 184.175C27.1311 184.538 26.1826 184.679 25.2401 184.589C24.2975 184.498 23.3827 184.177 22.5564 183.648C21.7302 183.119 21.0115 182.393 20.4483 181.52C19.885 180.647 19.4902 179.645 19.29 178.583C19.5432 178.598 19.7929 178.618 20.046 178.649Z" fill="black"/>
<path opacity="0.1" d="M18.1472 201.185C19.2944 201.246 20.4356 200.964 21.4601 200.368C22.4847 199.771 23.3578 198.881 23.9949 197.783C24.6319 196.685 25.0113 195.416 25.0962 194.099C25.181 192.783 24.9685 191.464 24.4792 190.269C23.9518 190.68 23.4978 191.203 23.1416 191.811C22.6662 192.633 22.3788 193.584 21.8212 194.339C20.795 195.743 19.0127 196.199 17.4083 196.117C15.804 196.034 14.2509 195.507 12.65 195.33C12.4276 195.307 12.2019 195.291 11.9658 195.283C12.2966 196.906 13.0792 198.361 14.1949 199.427C15.3106 200.492 16.6984 201.109 18.1472 201.185Z" fill="black"/>
<path opacity="0.1" d="M34.3073 213.545C35.1806 213.592 36.0534 213.441 36.8759 213.1C37.6984 212.759 38.4545 212.236 39.1009 211.559C39.7473 210.882 40.2715 210.066 40.6435 209.156C41.0154 208.247 41.2278 207.262 41.2687 206.258C41.3205 205.06 41.1235 203.864 40.694 202.77C40.1451 203.191 39.6684 203.724 39.288 204.343C38.7715 205.181 38.4465 206.148 37.841 206.923C36.719 208.358 34.8307 208.865 33.1305 208.818C31.4817 208.779 29.8944 208.315 28.2559 208.169C28.662 209.671 29.4608 210.993 30.5435 211.955C31.6263 212.917 32.9404 213.472 34.3073 213.545Z" fill="black"/>
<path opacity="0.1" d="M31.0195 228.413C31.7942 230.163 33.1243 231.503 34.7348 232.158C36.3454 232.812 38.113 232.729 39.6721 231.927C41.2311 231.125 42.4623 229.665 43.1109 227.848C43.7595 226.032 43.7758 223.998 43.1566 222.168C42.6086 222.583 42.1164 223.088 41.6959 223.666C41.0631 224.555 40.6457 225.562 39.9137 226.388C38.5453 227.921 36.356 228.554 34.3993 228.613C33.2702 228.624 32.1416 228.557 31.0195 228.413Z" fill="black"/>
<path d="M230.392 206.294C230.399 205.34 230.211 204.398 229.844 203.543C229.477 202.689 228.94 201.944 228.278 201.37C228.196 197.764 225.959 194.819 223.082 194.363C222.86 193.138 222.361 192.002 221.635 191.068C220.91 190.135 219.984 189.438 218.95 189.046C218.698 188.955 218.441 188.885 218.18 188.838H218.105L217.971 188.818H217.858H217.746H217.598H217.509H217.267C214.332 188.818 211.889 191.398 211.386 194.799C209.488 194.296 207.746 194.949 207.435 196.329C207.355 196.695 207.373 197.08 207.486 197.434C207.808 198.504 208.855 199.526 210.274 200.033L210.459 200.096C210.551 200.128 210.644 200.151 210.736 200.175H210.798C210.276 201.454 210.202 202.915 210.591 204.255C210.98 205.595 211.802 206.712 212.888 207.375C212.845 207.402 212.804 207.432 212.765 207.465C212.589 207.65 212.45 207.875 212.354 208.126C212.011 208.818 211.745 209.556 211.561 210.324C211.424 210.981 211.4 211.669 211.219 212.318C210.907 213.498 210.107 214.532 210.014 215.786C209.973 216.345 210.052 217.001 209.707 217.383C209.621 217.468 209.529 217.545 209.433 217.615C209.191 217.805 208.986 218.052 208.831 218.338C208.73 218.575 208.595 218.791 208.431 218.975C208.119 219.247 207.606 219.219 207.452 219.636C207.298 220.053 207.695 220.544 207.603 221C207.527 221.37 207.175 221.539 206.919 221.787C206.632 222.145 206.431 222.583 206.337 223.057C205.826 223.17 205.3 223.153 204.795 223.005C204.291 222.858 203.821 222.584 203.419 222.204C203.557 222.609 203.658 223.029 203.72 223.458C203.313 222.959 202.643 222.813 202.147 222.554C201.507 222.217 200.936 221.729 200.47 221.122L201.367 220.981L197.398 214.06L196.229 213.785L197.279 216.101C197.193 216.148 197.117 216.217 197.058 216.303C196.999 216.389 196.957 216.489 196.937 216.596C196.88 216.853 196.866 217.12 196.896 217.383C196.951 218.004 197.041 218.62 197.166 219.227L197.47 220.855C197.496 221.008 197.529 221.159 197.569 221.307C197.173 221.291 196.776 221.342 196.393 221.461C195.606 221.126 194.787 220.903 193.954 220.796C193.77 220.759 193.582 220.77 193.403 220.827C193.2 220.935 193.023 221.1 192.89 221.307C192.206 222.216 191.598 223.199 191.077 224.241C188.946 228.503 186.099 232.223 183.435 236.077C181.594 236.938 179.74 237.756 177.883 238.566L173.891 240.316C173.093 240.666 172.266 241.024 171.417 240.961C171.034 240.933 170.569 240.867 170.353 241.24C170.248 241.425 170.167 241.627 170.111 241.838C169.97 241.838 169.83 241.877 169.7 241.885H169.676C169.423 241.162 169.204 240.387 168.718 239.86C168.621 239.877 168.528 239.922 168.449 239.991C168.37 240.059 168.308 240.15 168.267 240.253C168.171 240.458 168.113 240.682 168.003 240.871C167.788 241.232 167.415 241.409 167.148 241.716C166.881 242.023 166.714 242.502 166.426 242.801C166.024 243.137 165.552 243.348 165.058 243.411C164.317 243.611 163.603 243.923 162.934 244.339C162.687 244.513 162.423 244.653 162.147 244.756C161.844 244.822 161.533 244.834 161.227 244.791L159.113 244.614C158.924 244.586 158.734 244.595 158.548 244.642C158.33 244.733 158.145 244.905 158.021 245.131C157.898 245.356 157.842 245.623 157.864 245.888C157.89 246.152 157.962 246.406 158.077 246.636C158.192 246.866 158.346 247.067 158.531 247.225C158.898 247.534 159.304 247.777 159.735 247.945C161.572 248.763 163.466 249.401 165.397 249.852V250.343C166.735 251.118 168.212 251.522 169.71 251.523C169.821 251.533 169.931 251.51 170.032 251.456C170.17 251.337 170.266 251.163 170.302 250.969C170.751 249.427 171.034 247.828 171.147 246.207C171.411 246.187 171.67 246.111 171.91 245.983C172.639 245.754 173.36 246.329 174.109 246.423C175.033 246.537 175.892 245.92 176.764 245.538C176.891 245.483 177.017 245.436 177.144 245.389C176.895 245.759 176.601 246.086 176.271 246.36C175.909 246.659 175.502 246.879 175.146 247.19C174.85 247.5 174.533 247.783 174.198 248.035C173.962 248.162 173.719 248.269 173.47 248.358C173.109 248.509 172.764 248.708 172.444 248.951C172.156 249.146 171.912 249.415 171.732 249.738C171.641 249.888 171.585 250.063 171.57 250.246C171.554 250.428 171.579 250.612 171.643 250.78C171.707 250.948 171.807 251.094 171.934 251.205C172.061 251.316 172.21 251.387 172.368 251.413C172.654 251.471 172.946 251.481 173.234 251.441C174.376 251.342 175.515 251.22 176.655 251.102C177.137 251.065 177.616 250.987 178.088 250.866C178.338 250.796 178.584 250.701 178.834 250.627C179.26 250.497 179.697 250.422 180.137 250.402C180.265 250.391 180.393 250.406 180.517 250.446C180.784 250.544 180.972 250.839 181.242 250.918C181.417 250.937 181.594 250.909 181.758 250.835C182.592 250.627 183.443 250.523 184.297 250.524C184.67 250.501 185.107 250.418 185.282 250.021C185.494 249.529 185.138 248.979 184.998 248.448C184.926 248.111 184.887 247.765 184.882 247.418C184.817 246.561 184.603 245.728 184.252 244.968C184.066 244.613 183.909 244.239 183.784 243.851C185.418 243.136 186.982 242.224 188.45 241.13C189.291 240.528 190.16 239.88 191.111 239.659C192.219 239.404 193.362 239.742 194.453 240.104C197.052 240.968 199.609 241.993 202.112 243.175C203.31 243.737 204.507 244.335 205.732 244.748C206.09 245.303 206.523 245.789 207.014 246.187C207.835 246.797 208.838 246.973 209.802 247.06C211.106 247.197 212.414 247.253 213.723 247.229C214.721 247.209 215.751 247.131 216.644 246.608C216.862 246.479 217.067 246.323 217.256 246.144C217.94 246.285 218.642 245.865 219.179 245.326C219.89 244.631 220.402 243.706 220.65 242.672C220.964 241.252 220.722 239.596 221.481 238.436C221.683 238.126 221.946 237.874 222.145 237.559C222.389 237.138 222.509 236.638 222.487 236.132L222.521 236.073C222.693 235.617 222.808 235.135 222.863 234.642C222.953 234.256 223.067 233.879 223.205 233.513C223.591 232.416 223.926 231.296 224.211 230.159C224.409 229.404 224.564 228.636 224.676 227.858C224.758 227.237 224.806 226.612 224.851 225.987C224.905 225.008 225.071 224.042 225.343 223.112C226.018 220.894 226.4 218.571 226.475 216.223C226.475 216.176 226.475 216.132 226.475 216.085C227.469 215.96 228.385 215.413 229.046 214.552C229.708 213.691 230.066 212.578 230.05 211.429C230.051 210.737 229.925 210.052 229.681 209.42C230.153 208.468 230.398 207.389 230.392 206.294ZM211.048 233.313C211.106 233.552 211.174 233.792 211.243 234.032C210.928 233.674 210.616 233.305 210.298 232.951C210.425 232.994 210.551 233.041 210.675 233.092C210.806 233.152 210.932 233.226 211.051 233.313H211.048ZM209.515 232.133C207.647 230.269 205.485 228.822 203.573 227.021C204.599 227.615 205.626 228.303 206.652 228.963C207.847 229.75 209.055 230.502 210.278 231.221C210.077 231.57 209.822 231.874 209.525 232.117L209.515 232.133ZM210.312 227.438L210.401 227.332C210.401 227.595 210.401 227.843 210.401 228.067C210.233 228.004 210.059 227.941 209.898 227.87C210.046 227.732 210.185 227.582 210.315 227.422L210.312 227.438ZM193.868 232.487C194.637 231.487 195.306 230.391 195.862 229.219C196.601 230.709 197.806 231.783 198.832 233.029C197.183 232.762 195.531 232.554 193.872 232.471L193.868 232.487Z" fill="url(#paint0_linear_874_3489)"/>
<path d="M196.536 214.359L197.716 214.634L201.736 221.46L199.96 221.736L196.536 214.359Z" fill="#2F2E41"/>
<path d="M167.955 242.066C168.273 243.276 168.665 244.458 169.128 245.605C170.46 245.285 171.77 244.855 173.049 244.319C172.801 243.876 172.529 243.452 172.235 243.049C171.92 242.647 171.545 242.315 171.126 242.07C170.719 241.865 170.216 242.019 169.782 242.046C169.173 242.072 168.564 242.079 167.955 242.066Z" fill="#FBBEBE"/>
<path d="M171.134 243.891C170.47 243.651 170.063 242.88 169.793 242.137C169.523 241.394 169.304 240.583 168.791 240.037C168.693 240.054 168.601 240.1 168.522 240.168C168.443 240.237 168.38 240.327 168.339 240.43C168.24 240.627 168.182 240.851 168.069 241.04C167.857 241.394 167.48 241.567 167.21 241.869C166.94 242.172 166.772 242.632 166.482 242.935C166.078 243.268 165.607 243.477 165.113 243.541C164.368 243.735 163.648 244.042 162.972 244.453C162.722 244.619 162.455 244.751 162.178 244.846C161.873 244.913 161.56 244.925 161.251 244.881L159.12 244.705C158.931 244.677 158.738 244.688 158.552 244.736C158.335 244.823 158.15 244.991 158.026 245.213C157.901 245.436 157.846 245.7 157.868 245.963C157.896 246.225 157.972 246.477 158.089 246.704C158.207 246.931 158.365 247.127 158.552 247.28C158.923 247.585 159.331 247.823 159.763 247.988C161.62 248.791 163.53 249.418 165.476 249.864V250.347C166.828 251.117 168.315 251.52 169.824 251.527C169.941 251.539 170.059 251.516 170.166 251.46C170.304 251.344 170.402 251.173 170.44 250.981C170.951 249.262 171.249 247.47 171.326 245.656C171.365 245.198 171.335 244.735 171.237 244.288C171.12 243.847 171.517 244.032 171.148 243.859" fill="#2F2E41"/>
<path d="M211.992 234.657C205.674 235.098 199.434 232.966 193.106 232.738C192.32 232.683 191.532 232.741 190.759 232.911C189.953 233.16 189.173 233.508 188.433 233.949C185.043 235.762 181.533 237.264 178.027 238.767L174.004 240.489C173.197 240.831 172.365 241.181 171.507 241.122C171.124 241.094 170.655 241.028 170.436 241.397C169.783 242.51 170.094 244.15 170.525 245.4C170.665 245.794 170.901 246.246 171.278 246.293C171.544 246.272 171.804 246.196 172.047 246.069C172.779 245.845 173.511 246.411 174.264 246.501C175.198 246.615 176.063 246.006 176.942 245.632C178.4 245.015 179.994 245.035 181.526 244.74C184.099 244.248 186.48 242.876 188.71 241.311C189.558 240.717 190.42 240.08 191.392 239.864C192.511 239.612 193.663 239.942 194.761 240.3C197.379 241.152 199.956 242.161 202.482 243.324C203.797 243.981 205.145 244.545 206.519 245.015C209.513 245.921 212.681 245.709 215.563 244.409C216.59 243.949 217.671 243.139 217.729 241.885C217.763 241.169 217.281 240.54 216.959 239.919C216.75 239.525 216.545 239.132 216.319 238.759C215.232 236.934 213.911 234.524 211.992 234.657Z" fill="#2F2E41"/>
<path opacity="0.1" d="M211.992 234.657C205.674 235.098 199.434 232.966 193.106 232.738C192.32 232.683 191.532 232.741 190.759 232.911C189.953 233.16 189.173 233.508 188.433 233.949C185.043 235.762 181.533 237.264 178.027 238.767L174.004 240.489C173.197 240.831 172.365 241.181 171.507 241.122C171.124 241.094 170.655 241.028 170.436 241.397C169.783 242.51 170.094 244.15 170.525 245.4C170.665 245.794 170.901 246.246 171.278 246.293C171.544 246.272 171.804 246.196 172.047 246.069C172.779 245.845 173.511 246.411 174.264 246.501C175.198 246.615 176.063 246.006 176.942 245.632C178.4 245.015 179.994 245.035 181.526 244.74C184.099 244.248 186.48 242.876 188.71 241.311C189.558 240.717 190.42 240.08 191.392 239.864C192.511 239.612 193.663 239.942 194.761 240.3C197.379 241.152 199.956 242.161 202.482 243.324C203.797 243.981 205.145 244.545 206.519 245.015C209.513 245.921 212.681 245.709 215.563 244.409C216.59 243.949 217.671 243.139 217.729 241.885C217.763 241.169 217.281 240.54 216.959 239.919C216.75 239.525 216.545 239.132 216.319 238.759C215.232 236.934 213.911 234.524 211.992 234.657Z" fill="black"/>
<path d="M180.082 242.42C181.072 242.805 182.068 243.162 183.072 243.489C183.636 242.424 184.69 241.684 184.929 240.469C184.943 240.417 184.943 240.361 184.929 240.308C184.903 240.256 184.864 240.215 184.816 240.19C184.095 239.733 183.295 239.464 182.473 239.404C181.823 239.356 181.529 240.135 181.235 240.682C181.132 240.902 180.345 242.522 180.082 242.42Z" fill="#FBBEBE"/>
<path d="M181.474 241.641C181.179 241.585 180.897 241.458 180.647 241.269C180.396 241.08 180.183 240.833 180.02 240.544C179.88 240.265 179.733 239.887 179.453 239.907C179.172 239.927 179.076 240.281 179.018 240.575C178.829 241.677 178.555 242.758 178.201 243.804C177.843 244.853 177.238 245.767 176.452 246.443C176.086 246.733 175.679 246.954 175.32 247.26C175.021 247.567 174.701 247.846 174.362 248.094C174.124 248.219 173.878 248.324 173.627 248.409C173.258 248.557 172.906 248.753 172.577 248.995C172.288 249.189 172.043 249.458 171.862 249.781C171.774 249.945 171.723 250.131 171.712 250.323C171.701 250.515 171.732 250.707 171.8 250.882C171.874 251.025 171.973 251.148 172.091 251.243C172.209 251.339 172.343 251.405 172.484 251.437C172.773 251.492 173.066 251.5 173.357 251.46C174.509 251.362 175.659 251.244 176.808 251.126C177.295 251.091 177.779 251.015 178.255 250.898C178.508 250.827 178.755 250.733 179.004 250.658C179.436 250.532 179.877 250.458 180.321 250.438C180.45 250.427 180.58 250.441 180.705 250.481C180.971 250.579 181.16 250.874 181.433 250.945C181.61 250.966 181.788 250.939 181.953 250.866C182.794 250.662 183.652 250.559 184.512 250.56C184.888 250.536 185.333 250.453 185.504 250.064C185.72 249.581 185.364 249.038 185.22 248.519C185.149 248.186 185.109 247.846 185.1 247.504C185.036 246.659 184.82 245.839 184.467 245.094C184.173 244.472 183.783 243.788 183.978 243.128C184.083 242.921 184.15 242.692 184.173 242.455C184.125 241.389 181.994 241.783 181.474 241.641Z" fill="#2F2E41"/>
<path d="M202.519 223.01C201.4 222.442 200.503 221.418 200.002 220.135C199.899 219.86 199.81 219.573 199.711 219.294C199.378 218.371 198.863 217.55 198.206 216.895C198.135 216.806 198.049 216.736 197.953 216.689C197.857 216.642 197.753 216.62 197.648 216.624C197.547 216.658 197.456 216.723 197.384 216.812C197.312 216.9 197.261 217.009 197.238 217.127C197.179 217.383 197.164 217.651 197.193 217.914C197.252 218.524 197.343 219.129 197.467 219.726L197.775 221.331C197.814 221.577 197.878 221.817 197.966 222.046C198.098 222.316 198.272 222.554 198.479 222.75C198.76 223.049 199.044 223.336 199.331 223.615C199.49 223.78 199.663 223.925 199.848 224.048C200.151 224.213 200.476 224.322 200.809 224.37C202.064 224.638 203.34 225.023 204.397 225.943C204.397 225.943 204.397 224.87 204.374 224.764C204.361 224.453 204.268 224.153 204.107 223.902C203.71 223.411 203.026 223.265 202.519 223.01Z" fill="#FBBEBE"/>
<path opacity="0.1" d="M202.519 223.01C201.4 222.442 200.503 221.418 200.002 220.135C199.899 219.86 199.81 219.573 199.711 219.294C199.378 218.371 198.863 217.55 198.206 216.895C198.135 216.806 198.049 216.736 197.953 216.689C197.857 216.642 197.753 216.62 197.648 216.624C197.547 216.658 197.456 216.723 197.384 216.812C197.312 216.9 197.261 217.009 197.238 217.127C197.179 217.383 197.164 217.651 197.193 217.914C197.252 218.524 197.343 219.129 197.467 219.726L197.775 221.331C197.814 221.577 197.878 221.817 197.966 222.046C198.098 222.316 198.272 222.554 198.479 222.75C198.76 223.049 199.044 223.336 199.331 223.615C199.49 223.78 199.663 223.925 199.848 224.048C200.151 224.213 200.476 224.322 200.809 224.37C202.064 224.638 203.34 225.023 204.397 225.943C204.397 225.943 204.397 224.87 204.374 224.764C204.361 224.453 204.268 224.153 204.107 223.902C203.71 223.411 203.026 223.265 202.519 223.01Z" fill="black"/>
<path d="M215.382 210.741C216.23 210.741 216.918 209.945 216.918 208.964C216.918 207.982 216.23 207.186 215.382 207.186C214.533 207.186 213.846 207.982 213.846 208.964C213.846 209.945 214.533 210.741 215.382 210.741Z" fill="#2F2E41"/>
<path d="M214.431 207.89C214.019 207.782 213.586 207.853 213.217 208.091C213.039 208.271 212.898 208.494 212.803 208.743C212.457 209.422 212.188 210.149 212.002 210.906C211.866 211.555 211.842 212.231 211.66 212.872C211.346 214.052 210.538 215.055 210.446 216.285C210.405 216.836 210.484 217.485 210.135 217.858C210.048 217.942 209.955 218.017 209.858 218.083C209.615 218.27 209.408 218.514 209.252 218.798C209.148 219.054 209.003 219.284 208.825 219.479C208.51 219.746 207.993 219.718 207.839 220.131C207.685 220.544 208.082 221.024 207.99 221.472C207.915 221.838 207.559 222.007 207.306 222.259C207.017 222.61 206.815 223.043 206.721 223.513C206.207 223.624 205.678 223.606 205.171 223.46C204.664 223.314 204.19 223.044 203.782 222.668C204.21 223.883 204.22 225.224 204.237 226.533C204.286 226.952 204.189 227.376 203.967 227.713C205.192 227.744 206.382 228.106 207.576 228.432C208.086 228.629 208.639 228.629 209.149 228.432C209.422 228.263 209.667 228.04 209.871 227.772C210.521 227.013 211.202 226.199 211.359 225.141C211.401 224.546 211.41 223.948 211.387 223.352C211.45 222.615 211.581 221.889 211.78 221.185C212.124 219.724 212.353 218.23 212.464 216.722C212.536 215.79 213.234 215.043 213.603 214.209C214.288 212.636 215.006 211.004 215.061 209.243C215.109 208.669 214.938 207.965 214.431 207.89Z" fill="#2F2E41"/>
<path opacity="0.1" d="M214.431 207.89C214.019 207.782 213.586 207.853 213.217 208.091C213.039 208.271 212.898 208.494 212.803 208.743C212.457 209.422 212.188 210.149 212.002 210.906C211.866 211.555 211.842 212.231 211.66 212.872C211.346 214.052 210.538 215.055 210.446 216.285C210.405 216.836 210.484 217.485 210.135 217.858C210.048 217.942 209.955 218.017 209.858 218.083C209.615 218.27 209.408 218.514 209.252 218.798C209.148 219.054 209.003 219.284 208.825 219.479C208.51 219.746 207.993 219.718 207.839 220.131C207.685 220.544 208.082 221.024 207.99 221.472C207.915 221.838 207.559 222.007 207.306 222.259C207.017 222.61 206.815 223.043 206.721 223.513C206.207 223.624 205.678 223.606 205.171 223.46C204.664 223.314 204.19 223.044 203.782 222.668C204.21 223.883 204.22 225.224 204.237 226.533C204.286 226.952 204.189 227.376 203.967 227.713C205.192 227.744 206.382 228.106 207.576 228.432C208.086 228.629 208.639 228.629 209.149 228.432C209.422 228.263 209.667 228.04 209.871 227.772C210.521 227.013 211.202 226.199 211.359 225.141C211.401 224.546 211.41 223.948 211.387 223.352C211.45 222.615 211.581 221.889 211.78 221.185C212.124 219.724 212.353 218.23 212.464 216.722C212.536 215.79 213.234 215.043 213.603 214.209C214.288 212.636 215.006 211.004 215.061 209.243C215.109 208.669 214.938 207.965 214.431 207.89Z" fill="black"/>
<path d="M212.994 236.187C211.677 235.468 210.716 234.127 209.652 232.978C207.62 230.784 205.137 229.235 203.002 227.178C201.589 225.818 200.324 224.233 198.767 223.093C197.398 222.089 195.846 221.463 194.231 221.264C194.047 221.227 193.857 221.238 193.677 221.295C193.473 221.4 193.295 221.563 193.16 221.767C192.471 222.661 191.858 223.629 191.33 224.658C188.624 229.935 184.783 234.374 181.598 239.286C181.496 239.402 181.435 239.557 181.428 239.722C181.421 239.886 181.469 240.048 181.56 240.175L182.207 241.633C182.57 242.447 183.151 243.399 183.917 243.238C184.269 243.121 184.584 242.891 184.824 242.573L187.732 239.376L190.78 236.026C192.565 234.06 194.382 232.054 195.548 229.545C196.458 231.358 198.073 232.546 199.181 234.209C199.602 234.838 199.944 235.534 200.32 236.203C200.926 237.276 201.61 238.283 202.294 239.286L205.794 244.418C206.235 245.148 206.782 245.787 207.412 246.305C208.239 246.907 209.249 247.068 210.224 247.166C211.537 247.304 212.856 247.359 214.175 247.331C215.18 247.312 216.227 247.237 217.117 246.722C218.006 246.207 218.762 245.149 218.714 243.997C218.66 243.393 218.488 242.811 218.211 242.294C216.976 239.659 215.341 237.457 212.994 236.187Z" fill="#2F2E41"/>
<path d="M216.326 211.559C216.977 211.559 217.506 210.948 217.506 210.194C217.506 209.441 216.977 208.83 216.326 208.83C215.674 208.83 215.146 209.441 215.146 210.194C215.146 210.948 215.674 211.559 216.326 211.559Z" fill="#E8E8F0"/>
<path d="M216.066 209.168C216.333 209.778 216.38 210.485 216.196 211.134C216.014 211.773 215.758 212.381 215.437 212.943C215.16 213.523 214.829 214.067 214.448 214.563C216.272 214.666 218.04 213.844 219.648 212.845C220.944 212.058 222.237 211.056 222.928 209.557C222.723 209.614 222.509 209.62 222.301 209.576C222.093 209.532 221.896 209.439 221.721 209.302C221.373 209.023 221.061 208.69 220.794 208.311L219.881 207.131C219.665 206.872 219.475 206.586 219.316 206.278C219.116 205.859 219.031 205.381 219.073 204.906C218.71 205.343 218.303 205.731 217.862 206.062C217.209 206.553 216.494 206.907 215.834 207.391C215.601 207.564 215.085 207.843 215.218 208.177C215.351 208.511 215.882 208.791 216.066 209.168Z" fill="#FBBEBE"/>
<path opacity="0.1" d="M216.066 209.168C216.333 209.778 216.38 210.485 216.196 211.134C216.014 211.773 215.758 212.381 215.437 212.943C215.16 213.523 214.829 214.067 214.448 214.563C216.272 214.666 218.04 213.844 219.648 212.845C220.944 212.058 222.237 211.056 222.928 209.557C222.723 209.614 222.509 209.62 222.301 209.576C222.093 209.532 221.896 209.439 221.721 209.302C221.373 209.023 221.061 208.69 220.794 208.311L219.881 207.131C219.665 206.872 219.475 206.586 219.316 206.278C219.116 205.859 219.031 205.381 219.073 204.906C218.71 205.343 218.303 205.731 217.862 206.062C217.209 206.553 216.494 206.907 215.834 207.391C215.601 207.564 215.085 207.843 215.218 208.177C215.351 208.511 215.882 208.791 216.066 209.168Z" fill="black"/>
<path d="M216.09 209.373C215.906 209.672 215.807 210.03 215.807 210.397C215.807 210.764 215.906 211.122 216.09 211.421C216.141 211.496 216.336 211.964 216.432 211.968C216.513 211.96 216.588 211.916 216.641 211.846C217.054 211.35 217.44 210.824 217.797 210.273C218.157 209.715 218.679 209.322 219.268 209.164C219.983 209.034 220.67 209.471 221.296 209.888C221.565 210.041 221.8 210.265 221.981 210.54C222.113 210.814 222.191 211.117 222.21 211.429C222.39 213.304 222.458 215.191 222.415 217.076C222.448 218.435 222.37 219.795 222.182 221.138C222.066 221.83 221.892 222.507 221.81 223.206C221.75 223.823 221.726 224.443 221.738 225.063V227.658C221.723 228.133 221.753 228.609 221.827 229.077C221.968 229.636 222.133 230.186 222.323 230.725C222.489 231.367 222.604 232.025 222.665 232.691L222.973 235.377C223.072 236.226 223.144 237.15 222.696 237.831C222.497 238.141 222.23 238.385 222.011 238.692C221.242 239.817 221.498 241.449 221.156 242.844C220.903 243.869 220.385 244.781 219.672 245.459C219.128 245.99 218.423 246.411 217.718 246.246C216.771 246.041 216.199 244.905 215.939 243.832C215.679 242.758 215.597 241.586 215.026 240.686C214.568 239.942 213.86 239.478 213.22 238.948C212.58 238.417 211.951 237.736 211.811 236.84C211.749 236.447 211.787 236.053 211.752 235.66C211.702 235.159 211.534 234.683 211.268 234.282C211.002 233.88 210.647 233.569 210.24 233.379C209.755 233.163 209.153 233.084 208.872 232.593C209.568 232.09 210.076 231.306 210.295 230.395C210.507 229.497 210.622 228.572 210.637 227.642L210.801 224.52C210.873 223.124 210.907 221.74 211.441 220.485C211.681 219.927 211.978 219.4 212.224 218.846C212.554 218.067 212.836 217.263 213.066 216.439C213.453 215.161 213.843 213.879 214.188 212.585C214.326 211.959 214.533 211.355 214.804 210.788C215.122 210.198 215.543 209.491 216.09 209.373Z" fill="#E8E8F0"/>
<path d="M210.059 229.659L210.777 229.687L210.931 228.44C210.951 228.191 211.002 227.946 211.081 227.713C211.201 227.467 211.339 227.234 211.495 227.017C212.204 225.869 212.152 224.343 212.327 222.947C212.559 221.087 213.237 219.341 213.907 217.626L215.303 214.052C215.427 213.758 215.527 213.451 215.6 213.136C215.661 212.788 215.69 212.433 215.686 212.078C215.686 211.527 215.843 209.518 215.854 208.964C215.854 208.759 215.464 208.873 215.381 208.692C215.207 208.299 214.968 209.369 214.639 209.604C214.33 209.877 214.104 210.256 213.996 210.686C213.695 211.586 213.51 212.534 213.23 213.439C212.984 214.365 212.535 215.203 211.926 215.873C211.643 216.164 211.311 216.392 211.04 216.698C210.172 217.685 210.089 219.243 210.059 220.631C210.038 221.492 209.898 229.659 210.059 229.659Z" fill="#2F2E41"/>
<path d="M220.407 207.882C219.723 208.197 219.326 209.062 219.131 209.903C218.936 210.745 218.854 211.634 218.478 212.381C217.602 214.135 215.369 214.646 214.749 216.541C214.592 217.181 214.508 217.842 214.5 218.507C214.39 219.864 214 221.177 213.884 222.534C213.824 223.589 213.845 224.649 213.949 225.7L214.732 236.407C214.884 237.984 214.804 239.579 214.496 241.126C215.3 241.259 216.119 241.104 216.843 240.682C217.578 240.288 218.249 239.769 218.954 239.321C220.168 238.535 221.509 238.004 222.569 236.962C222.762 236.789 222.927 236.581 223.059 236.344C223.229 235.894 223.344 235.419 223.401 234.933C223.491 234.554 223.605 234.183 223.743 233.824C224.136 232.744 224.478 231.642 224.769 230.521C224.968 229.777 225.125 229.019 225.238 228.252C225.323 227.642 225.368 227.025 225.415 226.411C225.47 225.446 225.637 224.494 225.912 223.58C226.59 221.399 226.974 219.111 227.051 216.797C227.074 216.462 227.055 216.126 226.992 215.798C226.874 215.4 226.716 215.02 226.52 214.665C226.195 213.962 226 213.187 225.693 212.475C225.008 210.863 223.78 209.64 222.498 208.614C221.841 208.114 221.119 207.572 220.407 207.882Z" fill="#2F2E41"/>
<path d="M204.076 225.354C203.521 225.02 203.018 224.581 202.588 224.056C202.393 223.792 202.246 223.498 202.034 223.238C201.532 222.622 200.88 222.195 200.163 222.011C199.451 221.831 198.723 221.75 197.994 221.771C197.507 221.733 197.019 221.801 196.554 221.972C196.321 222.059 196.11 222.214 195.943 222.42C195.775 222.626 195.656 222.878 195.596 223.151C195.49 223.82 195.87 224.469 196.325 224.894C196.748 225.291 197.246 225.57 197.779 225.708C198.213 225.794 198.652 225.853 199.092 225.884C201.678 226.195 203.987 227.811 206.252 229.286C208.243 230.578 210.273 231.788 212.341 232.915C212.423 232.204 212.457 231.486 212.444 230.768C212.444 230.234 212.409 229.416 211.968 229.101C211.455 228.731 210.6 228.649 210.032 228.429C208.699 227.929 207.397 227.324 206.136 226.62C205.421 226.223 204.736 225.802 204.076 225.354Z" fill="#FBBEBE"/>
<path d="M215.382 208.558C217.927 208.558 219.99 206.173 219.99 203.23C219.99 200.287 217.927 197.902 215.382 197.902C212.837 197.902 210.774 200.287 210.774 203.23C210.774 206.173 212.837 208.558 215.382 208.558Z" fill="#FBBEBE"/>
<path d="M221.724 213.922C221.357 214.515 221.057 215.158 220.831 215.837C220.26 217.186 219.367 218.342 218.922 219.77C218.45 221.252 218.467 223.018 217.554 224.186C217.37 224.363 217.232 224.594 217.154 224.854C217.148 225.016 217.132 225.178 217.106 225.338C216.976 225.762 216.37 225.782 216.257 226.215C216.227 226.34 216.257 226.478 216.203 226.608C216.11 226.887 215.792 226.926 215.577 227.095C215.129 227.445 215.235 228.255 214.893 228.759C214.753 228.946 214.574 229.087 214.372 229.168C214.17 229.25 213.953 229.269 213.743 229.223C213.324 229.121 212.92 228.948 212.546 228.708C212.414 228.623 212.269 228.57 212.118 228.554C211.94 228.559 211.766 228.626 211.622 228.747C210.77 229.368 210.37 230.603 210.377 231.767C210.437 232.931 210.677 234.074 211.085 235.141C211.133 235.325 211.214 235.497 211.321 235.644C211.602 235.986 212.094 235.931 212.471 235.739C212.823 235.499 213.198 235.306 213.589 235.165C214.301 235.015 214.999 235.581 215.72 235.534C216.248 235.442 216.746 235.189 217.161 234.803C217.893 234.291 218.549 233.647 219.104 232.896C219.418 232.42 219.651 231.877 219.928 231.37C220.282 230.747 220.67 230.15 221.091 229.585L223.749 225.845C224.016 225.491 224.255 225.111 224.464 224.709C224.704 224.165 224.891 223.593 225.022 223.002C225.306 222.016 225.491 220.996 225.572 219.962C225.586 219.106 225.521 218.251 225.377 217.41C225.288 216.574 225.096 215.757 224.806 214.984C224.214 213.608 222.808 212.467 221.724 213.922Z" fill="#2F2E41"/>
<path d="M230.98 206.982C230.984 206.037 230.792 205.105 230.421 204.262C230.05 203.419 229.51 202.689 228.846 202.133C228.826 200.456 228.288 198.842 227.329 197.578C226.37 196.314 225.051 195.482 223.609 195.232C223.33 193.643 222.572 192.219 221.469 191.209C220.366 190.2 218.988 189.67 217.579 189.714C216.17 189.758 214.819 190.372 213.765 191.448C212.711 192.525 212.021 193.994 211.817 195.598C209.901 195.102 208.15 195.747 207.832 197.104C207.49 198.523 208.858 200.183 210.883 200.812C211.518 201.018 212.179 201.094 212.836 201.036C213.307 201.831 213.918 202.504 214.628 203.012C215.338 203.52 216.133 203.851 216.962 203.985C217.205 205.268 217.755 206.447 218.55 207.39C219.345 208.333 220.353 209.002 221.46 209.321C221.767 210.173 222.242 210.929 222.849 211.531C222.849 211.696 222.825 211.866 222.825 212.039C222.803 212.643 222.888 213.246 223.074 213.812C223.26 214.378 223.544 214.895 223.908 215.332C224.272 215.769 224.709 216.116 225.194 216.353C225.678 216.591 226.199 216.713 226.725 216.713C227.251 216.713 227.772 216.591 228.256 216.353C228.74 216.116 229.178 215.769 229.542 215.332C229.906 214.895 230.19 214.378 230.376 213.812C230.562 213.246 230.647 212.643 230.625 212.039C230.625 211.36 230.498 210.689 230.252 210.072C230.733 209.137 230.984 208.069 230.98 206.982Z" fill="#F86D70"/>
<path opacity="0.1" d="M209.132 197.375C209.45 196.018 211.184 195.373 213.117 195.869C213.342 194.24 214.06 192.755 215.145 191.676C216.229 190.597 217.611 189.993 219.045 189.97C219.179 189.97 219.312 189.97 219.442 189.97C218.888 189.776 218.311 189.678 217.732 189.679C216.297 189.702 214.916 190.306 213.831 191.385C212.746 192.464 212.028 193.949 211.803 195.578C209.888 195.082 208.136 195.727 207.818 197.084C207.476 198.504 208.844 200.163 210.869 200.792C211.246 200.912 211.632 200.989 212.022 201.02C210.1 200.375 208.807 198.763 209.132 197.375Z" fill="black"/>
<path opacity="0.1" d="M224.126 212.314C224.126 212.141 224.126 211.972 224.149 211.803C223.543 211.203 223.067 210.447 222.761 209.597C221.654 209.274 220.647 208.603 219.853 207.66C219.058 206.717 218.507 205.539 218.262 204.257C217.434 204.123 216.638 203.792 215.928 203.284C215.217 202.776 214.607 202.103 214.137 201.307C213.754 201.342 213.368 201.33 212.987 201.272C213.46 202.005 214.055 202.622 214.738 203.088C215.42 203.554 216.176 203.859 216.962 203.985C217.206 205.268 217.756 206.447 218.55 207.39C219.345 208.333 220.353 209.002 221.461 209.321C221.767 210.173 222.243 210.93 222.85 211.531C222.85 211.697 222.826 211.866 222.826 212.039C222.808 213.244 223.206 214.409 223.933 215.278C224.66 216.147 225.656 216.651 226.705 216.679C225.94 216.339 225.283 215.74 224.822 214.96C224.361 214.18 224.118 213.257 224.126 212.314Z" fill="black"/>
<path d="M217.49 205.182C217.803 204.909 217.8 204.299 217.484 203.82C217.167 203.341 216.657 203.174 216.344 203.448C216.031 203.721 216.034 204.331 216.35 204.81C216.667 205.289 217.177 205.456 217.49 205.182Z" fill="#FBBEBE"/>
<path d="M107.345 231.696L111.902 228.617C111.286 227.407 110.499 226.324 109.572 225.413L100.979 228.484L107.711 223.934C106.044 222.885 104.168 222.352 102.268 222.389C100.367 222.426 98.5081 223.032 96.873 224.145C95.2379 225.259 93.8832 226.843 92.9423 228.742C92.0014 230.64 91.5067 232.787 91.5068 234.972C91.5068 241.92 96.4089 242.16 102.453 242.16C108.498 242.16 113.4 241.92 113.4 234.972C113.404 233.211 113.083 231.469 112.459 229.86L107.345 231.696Z" fill="#167CFB"/>
<path opacity="0.1" d="M108.505 238.452C108.02 237.893 107.478 237.403 106.89 236.993C106.066 236.36 105.207 235.715 104.232 235.503C103.377 235.314 102.495 235.475 101.622 235.416C100.108 235.31 98.6818 234.558 97.6233 233.309C97.0007 232.569 96.5115 231.661 95.7623 231.095C94.925 230.523 93.9371 230.315 92.9778 230.509C92.6998 230.553 92.4244 230.618 92.1534 230.701C91.7246 232.071 91.5058 233.516 91.5068 234.972C91.5068 241.92 96.4089 242.16 102.453 242.16C105.389 242.16 108.05 242.105 110.017 241.252L109.675 240.548C109.364 239.795 108.971 239.091 108.505 238.452Z" fill="black"/>
</g>
<defs>
<linearGradient id="paint0_linear_874_3489" x1="194.132" y1="251.527" x2="194.132" y2="188.752" gradientUnits="userSpaceOnUse">
<stop stop-color="#808080" stop-opacity="0.25"/>
<stop offset="0.54" stop-color="#808080" stop-opacity="0.12"/>
<stop offset="1" stop-color="#808080" stop-opacity="0.1"/>
</linearGradient>
<clipPath id="clip0_874_3489">
<rect width="391" height="261" fill="white"/>
</clipPath>
</defs>
</svg>
