<svg width="32" height="32" viewBox="0 0 32 32" fill="none" xmlns="http://www.w3.org/2000/svg">
<path d="M26.6408 9.532C26.2212 6.87069 24.9757 4.66449 22.9103 2.92545C21.1182 1.41647 19.0316 0.612749 16.7019 0.45502C16.4659 0.438945 16.231 0.430908 15.998 0.430908C14.4439 0.430908 12.9472 0.782534 11.5172 1.43857C9.60001 2.31864 8.09531 3.68094 6.96477 5.44409C6.29109 6.49395 5.807 7.63422 5.59017 8.87396C5.57807 8.90108 5.5579 8.9272 5.55286 8.95634C5.24728 10.4834 5.28661 12.0115 5.56799 13.5355C6.0198 15.9828 7.01923 18.2121 8.31819 20.3199C9.3267 21.9565 10.4986 23.4695 11.7723 24.9071C13.0128 26.3076 14.3471 27.6106 15.7741 28.8222C15.9607 28.981 16.0898 29.0201 16.3106 28.8333C16.4286 28.7338 16.5456 28.6333 16.6616 28.5319C16.7786 28.4304 16.8935 28.3289 17.0085 28.2255C17.6963 27.6086 18.3569 26.9626 18.9902 26.2855C19.3372 25.9148 19.7244 25.5822 20.0643 25.2015C20.3477 24.886 20.5645 24.5163 20.8852 24.234C20.9841 24.1325 21.09 24.0371 21.1807 23.9286C22.038 22.8928 22.8316 21.8108 23.5527 20.6775C24.7236 18.838 25.6958 16.9031 26.2525 14.7843C26.7053 13.0603 26.9201 11.3102 26.6408 9.532ZM21.4349 16.9543C19.9544 18.3488 18.1471 19.05 16.0867 19.036C15.9234 19.035 15.761 19.045 15.5976 19.049C14.5457 18.9928 13.5332 18.7406 12.5882 18.2995C11.3165 17.7068 10.3372 16.7524 9.48504 15.6473C8.10237 13.849 7.71409 11.253 8.34542 9.08996C9.25106 5.9866 11.2943 4.02955 14.4398 3.33936C16.8361 2.81493 19.078 3.35041 21.0123 4.89053C22.5836 6.14333 23.5719 7.76784 23.8976 9.7691C24.3585 12.6012 23.5013 15.0073 21.4349 16.9543Z" fill="#167CFB"/>
<path d="M27.5273 29.433C27.2772 29.6731 26.9928 29.872 26.6549 29.9785C26.5823 30.0428 26.4986 30.081 26.4048 30.096C26.3847 30.1071 26.3655 30.1181 26.3463 30.1282C23.9148 31.0474 21.3663 31.3187 18.7987 31.4985C17.9929 31.5548 17.185 31.5759 16.3792 31.5819C16.236 31.5829 16.0938 31.5839 15.9506 31.5839C15.2306 31.5839 14.5105 31.5698 13.7904 31.5387C13.5504 31.5277 13.3114 31.5156 13.0713 31.5005C12.1132 31.4412 11.1572 31.3478 10.2051 31.2092C8.81341 31.0072 7.4257 30.7681 6.09749 30.2799C5.58819 30.092 5.09604 29.873 4.66843 29.5264C4.10064 29.0663 4.09056 28.4193 4.7118 27.9802C5.21101 27.6266 5.75258 27.4046 6.32138 27.1966C7.53562 26.7536 8.79324 26.5285 10.0619 26.3417C10.4764 26.2804 10.893 26.2412 11.3074 26.1869C11.4739 26.1648 11.5949 26.2111 11.7119 26.3387C12.9695 27.709 14.3451 28.9547 15.7903 30.1252C15.9799 30.2799 16.0979 30.2939 16.3056 30.1252C16.3954 30.0528 16.4841 29.9795 16.5729 29.9051C16.6616 29.8328 16.7504 29.7585 16.8391 29.6841C16.9289 29.6108 17.0166 29.5354 17.1054 29.4611C17.2486 29.3395 17.3908 29.218 17.532 29.0954C17.652 28.9909 17.772 28.8864 17.89 28.7809C17.9979 28.6855 18.1058 28.5901 18.2117 28.4926C18.3186 28.3962 18.4245 28.2997 18.5304 28.2013C18.5617 28.1721 18.5939 28.143 18.6252 28.1129C18.6494 28.0908 18.6746 28.0676 18.6998 28.0435C18.7704 27.9782 18.84 27.9119 18.9096 27.8456C19.1688 27.5995 19.4239 27.3483 19.6751 27.0931C19.7436 27.0248 19.8112 26.9555 19.8778 26.8862C20.0432 26.7154 20.2065 26.5426 20.3679 26.3678C20.4476 26.2814 20.5434 26.1829 20.6705 26.1829C21.566 26.1789 22.4969 26.3829 23.3763 26.5466C24.3354 26.7244 25.2874 26.9585 26.1971 27.3111C27.0049 27.6236 28.5257 28.4715 27.5273 29.433Z" fill="#167CFB"/>
<path d="M16.0238 15.1127C14.8075 15.1127 13.5912 15.1127 12.376 15.1127C11.7658 15.1127 11.5702 14.8987 11.6842 14.305C11.899 13.1888 12.4637 12.2686 13.3805 11.6005C14.9225 10.4773 16.5734 10.3688 18.2415 11.282C19.4981 11.9702 20.201 13.0894 20.438 14.4939C20.4995 14.8585 20.2403 15.1087 19.8248 15.1097C18.5582 15.1127 17.2905 15.1107 16.0238 15.1107C16.0238 15.1107 16.0238 15.1117 16.0238 15.1127Z" fill="#167CFB"/>
<path d="M16.0425 10.0465C14.8555 10.1048 13.6443 9.1001 13.6534 7.66848C13.6614 6.33431 14.6679 5.31158 16.0304 5.29752C17.5402 5.28144 18.4559 6.53625 18.4347 7.70364C18.4095 9.0127 17.3707 10.0495 16.0425 10.0465Z" fill="#167CFB"/>
</svg>
