<svg width="32" height="32" viewBox="0 0 32 32" fill="none" xmlns="http://www.w3.org/2000/svg">
<path d="M26.6408 9.53206C26.2212 6.87075 24.9757 4.66455 22.9103 2.92551C21.1182 1.41653 19.0316 0.61281 16.7019 0.455081C16.4659 0.439006 16.231 0.430969 15.998 0.430969C14.4439 0.430969 12.9472 0.782595 11.5172 1.43863C9.60001 2.3187 8.09531 3.681 6.96477 5.44415C6.29109 6.49401 5.807 7.63428 5.59017 8.87402C5.57807 8.90114 5.5579 8.92726 5.55286 8.9564C5.24728 10.4835 5.28661 12.0115 5.56799 13.5356C6.0198 15.9829 7.01923 18.2122 8.31819 20.32C9.3267 21.9565 10.4986 23.4695 11.7723 24.9072C13.0128 26.3076 14.3471 27.6107 15.7741 28.8223C15.9607 28.981 16.0898 29.0202 16.3106 28.8333C16.4286 28.7339 16.5456 28.6334 16.6616 28.5319C16.7786 28.4305 16.8935 28.329 17.0085 28.2255C17.6963 27.6087 18.3569 26.9627 18.9902 26.2855C19.3372 25.9148 19.7244 25.5823 20.0643 25.2015C20.3477 24.8861 20.5645 24.5164 20.8852 24.2341C20.9841 24.1326 21.09 24.0371 21.1807 23.9286C22.038 22.8929 22.8316 21.8109 23.5527 20.6776C24.7236 18.8381 25.6958 16.9032 26.2525 14.7844C26.7053 13.0604 26.9201 11.3103 26.6408 9.53206ZM21.4349 16.9544C19.9544 18.3488 18.1471 19.0501 16.0867 19.036C15.9234 19.035 15.761 19.0451 15.5976 19.0491C14.5457 18.9928 13.5332 18.7407 12.5882 18.2996C11.3165 17.7069 10.3372 16.7525 9.48504 15.6473C8.10237 13.849 7.71409 11.253 8.34542 9.09002C9.25106 5.98666 11.2943 4.02961 14.4398 3.33942C16.8361 2.815 19.078 3.35047 21.0123 4.89059C22.5836 6.14339 23.5719 7.7679 23.8976 9.76916C24.3585 12.6013 23.5013 15.0074 21.4349 16.9544Z" fill="white"/>
<path d="M27.5273 29.4331C27.2772 29.6732 26.9928 29.8721 26.6549 29.9786C26.5823 30.0429 26.4986 30.0811 26.4048 30.0962C26.3847 30.1072 26.3655 30.1183 26.3463 30.1283C23.9148 31.0476 21.3663 31.3188 18.7987 31.4986C17.9929 31.5549 17.185 31.576 16.3792 31.582C16.236 31.583 16.0938 31.584 15.9506 31.584C15.2306 31.584 14.5105 31.57 13.7904 31.5388C13.5504 31.5278 13.3114 31.5157 13.0713 31.5006C12.1132 31.4414 11.1572 31.3479 10.2051 31.2093C8.81341 31.0074 7.4257 30.7683 6.09749 30.28C5.58819 30.0921 5.09604 29.8731 4.66843 29.5265C4.10064 29.0664 4.09056 28.4194 4.7118 27.9804C5.21101 27.6267 5.75258 27.4047 6.32138 27.1967C7.53562 26.7537 8.79324 26.5287 10.0619 26.3418C10.4764 26.2805 10.893 26.2413 11.3074 26.1871C11.4739 26.165 11.5949 26.2112 11.7119 26.3388C12.9695 27.7091 14.3451 28.9549 15.7903 30.1253C15.9799 30.28 16.0979 30.2941 16.3056 30.1253C16.3954 30.053 16.4841 29.9796 16.5729 29.9053C16.6616 29.8329 16.7504 29.7586 16.8391 29.6842C16.9289 29.6109 17.0166 29.5356 17.1054 29.4612C17.2486 29.3397 17.3908 29.2181 17.532 29.0955C17.652 28.991 17.772 28.8866 17.89 28.7811C17.9979 28.6856 18.1058 28.5902 18.2117 28.4927C18.3186 28.3963 18.4245 28.2998 18.5304 28.2014C18.5617 28.1723 18.5939 28.1431 18.6252 28.113C18.6494 28.0909 18.6746 28.0678 18.6998 28.0437C18.7704 27.9784 18.84 27.9121 18.9096 27.8457C19.1688 27.5996 19.4239 27.3484 19.6751 27.0933C19.7436 27.0249 19.8112 26.9556 19.8778 26.8863C20.0432 26.7155 20.2065 26.5427 20.3679 26.3679C20.4476 26.2815 20.5434 26.1831 20.6705 26.1831C21.566 26.179 22.4969 26.383 23.3763 26.5467C24.3354 26.7246 25.2874 26.9586 26.1971 27.3113C27.0049 27.6237 28.5257 28.4716 27.5273 29.4331Z" fill="white"/>
<path d="M16.0238 15.1129C14.8075 15.1129 13.5912 15.1129 12.376 15.1129C11.7658 15.1129 11.5702 14.8989 11.6842 14.3052C11.899 13.189 12.4637 12.2687 13.3805 11.6007C14.9225 10.4775 16.5734 10.369 18.2415 11.2822C19.4981 11.9704 20.201 13.0895 20.438 14.494C20.4995 14.8587 20.2403 15.1089 19.8248 15.1099C18.5582 15.1129 17.2905 15.1109 16.0238 15.1109C16.0238 15.1109 16.0238 15.1119 16.0238 15.1129Z" fill="white"/>
<path d="M16.0425 10.0464C14.8555 10.1047 13.6443 9.10004 13.6534 7.66842C13.6614 6.33425 14.6679 5.31152 16.0304 5.29746C17.5402 5.28138 18.4559 6.53618 18.4347 7.70358C18.4095 9.01264 17.3707 10.0494 16.0425 10.0464Z" fill="white"/>
</svg>
